<svg width="1355" height="312" viewBox="0 0 1355 312" fill="none" xmlns="http://www.w3.org/2000/svg">
<path fill-rule="evenodd" clip-rule="evenodd" d="M13.5729 147.133C-9.18174 108.067 -2.8606 59.6433 29.042 27.6101C48.9106 7.66974 75.6864 -2.18555 103.761 0.407945C139.84 3.74244 172.166 34.694 196.494 59.1247C197.169 59.7989 197.169 60.903 196.494 61.5774C195.811 62.2516 194.713 62.2516 194.038 61.57C170.429 37.8581 138.475 7.09177 103.449 3.86842C76.3986 1.37867 50.6466 10.856 31.5052 30.0627C0.708039 60.9771 -5.39055 107.682 16.5703 145.399C17.0526 146.221 16.7706 147.281 15.9471 147.77C15.1236 148.244 14.0552 147.963 13.5729 147.133Z" fill="#243E8F"/>
<path fill-rule="evenodd" clip-rule="evenodd" d="M298.564 164.86C321.088 203.929 314.831 252.371 283.259 284.383C263.586 304.324 237.082 314.181 209.292 311.594C173.586 308.274 141.582 277.314 117.501 252.874C116.833 252.2 116.833 251.103 117.501 250.429C118.177 249.755 119.264 249.755 119.932 250.435C143.3 274.15 174.93 304.918 209.6 308.141C236.369 310.639 261.867 301.16 280.806 281.953C311.292 251.036 317.321 204.314 295.582 166.61C295.112 165.788 295.384 164.72 296.206 164.245C297.037 163.749 298.088 164.031 298.564 164.86Z" fill="#243E8F"/>
<path fill-rule="evenodd" clip-rule="evenodd" d="M167.934 11.2642C208.223 -9.4887 256.557 -1.0036 287.231 32.0833C306.33 52.689 314.985 79.6748 311.082 107.367C306.061 142.964 273.481 173.578 247.821 196.561C247.106 197.187 246.003 197.142 245.354 196.435C244.707 195.729 244.759 194.641 245.474 194.007C270.39 171.708 302.761 141.455 307.625 106.896C311.387 80.2194 303.059 54.2565 284.661 34.4088C255.046 2.46994 208.432 -5.71345 169.542 14.3182C168.694 14.7524 167.636 14.4286 167.196 13.5897C166.757 12.7434 167.077 11.6984 167.934 11.2642Z" fill="#243E8F"/>
<path fill-rule="evenodd" clip-rule="evenodd" d="M142.073 300.738C102.339 321.486 54.6783 313.006 24.4203 279.917C5.58512 259.317 -2.94356 232.33 0.905732 204.628C5.84957 169.035 37.9882 138.42 63.2951 115.443C63.993 114.81 65.0875 114.861 65.7266 115.56C66.3584 116.267 66.3144 117.356 65.6017 117.989C41.0367 140.296 9.11121 170.538 4.31426 205.098C0.604547 231.785 8.81003 257.743 26.9619 277.599C56.1622 309.533 102.141 317.718 140.494 297.691C141.331 297.25 142.374 297.581 142.808 298.42C143.241 299.251 142.918 300.297 142.073 300.738Z" fill="#243E8F"/>
<path d="M79 82.0417L115.984 118L122 111.958L85.0155 76L79 82.0417Z" fill="#243E8F"/>
<path d="M234.4 77L200 111.295L203.6 115L238 80.7055L234.4 77Z" fill="#243E8F"/>
<path d="M240 229.954L203.02 194L197 200.046L233.98 236L240 229.954Z" fill="#243E8F"/>
<path d="M79.6988 240L115 205.709L111.3 202L76 236.291L79.6988 240Z" fill="#243E8F"/>
<path fill-rule="evenodd" clip-rule="evenodd" d="M142.583 139.549C142.415 139.76 139.748 142.408 139.588 142.51C138.77 142.313 136.001 141 135.621 141.059C135.176 141.205 132.604 146.026 132.341 146.478L135.57 149.308C135.504 149.906 134.73 151.729 134.482 153.509L130.223 154.115L130.23 160.628C130.99 160.745 131.859 160.92 132.531 161.036L134.182 161.379C134.62 161.547 134.62 162.648 134.883 163.633C135.066 164.333 135.256 164.989 135.468 165.587C134.781 166.31 132.67 167.622 132.217 168.272L135.329 173.785C136.359 173.72 138.068 172.721 139.295 172.466L139.756 172.897C140.377 173.612 141.765 175.084 142.459 175.5L140.976 179.439C141.472 179.876 145.965 182.487 146.527 182.648L149.267 179.629C149.822 179.709 150.684 180.051 151.283 180.212C152.057 180.401 152.678 180.526 153.489 180.708L154.175 184.668C154.723 184.982 159.186 184.668 160.596 184.85C160.677 183.968 160.947 180.978 161.67 180.693L162.466 180.518C163.847 180.227 164.483 179.928 165.643 179.629C166.527 180.671 167.411 181.787 168.216 182.824L173.716 179.715C173.738 178.542 172.488 176.704 172.488 175.609C173.702 174.676 174.402 173.654 175.579 172.568L179.385 174.005C179.853 173.626 180.605 172.035 181.027 171.328C181.474 170.555 182.256 169.417 182.62 168.535C182.379 168.163 180.013 166.106 179.487 165.901C179.552 165.573 180.634 161.671 180.663 161.613C181.24 161.255 183.834 161.014 184.783 160.905L184.775 154.436C184.221 154.304 180.823 153.794 180.758 153.604L179.508 149.446C180.597 148.513 181.824 147.776 182.774 146.763C182.467 145.975 180.275 142.459 179.61 141.197L175.571 142.62C174.498 141.708 173.658 140.592 172.496 139.695C172.78 138.462 173.905 136.624 174.015 135.457C173.38 135.326 169.633 132.868 168.494 132.394L165.702 135.742C164.789 135.647 164.519 135.391 163.73 135.114C163.102 134.881 162.401 134.786 161.597 134.706L161.02 131.052C160.954 130.541 161.035 130.228 160.56 130.228H154.752C154.219 130.228 154.3 130.716 154.219 131.249L153.576 134.852C152.568 134.4 150.494 135.523 149.515 135.749C149.091 135.129 148.668 134.597 148.185 133.955C147.842 133.488 147.229 132.554 146.819 132.321C146.403 132.467 145.746 132.89 145.344 133.138L142.524 134.706C141.925 134.998 141.64 135.173 141.18 135.494L142.583 139.549ZM125 157.032C125 139.315 140.121 124.684 158.098 125.005C175.944 125.319 190.217 140.03 189.997 158.221C189.897 166.478 185.878 175.529 180.064 180.883C158.478 200.773 125 185.996 125 157.032Z" fill="#243E8F"/>
<path d="M233.462 207H232.538C220.09 207 210 217.297 210 230C210 242.703 220.09 253 232.538 253H233.462C245.91 253 256 242.703 256 230C256 217.297 245.91 207 233.462 207Z" fill="url(#paint0_linear)"/>
<path d="M250 80.7882V80.2115C250 72.3628 243.731 66 236 66C228.269 66 222 72.3628 222 80.2115V80.7882C222 88.6372 228.269 95 236 95C243.731 95 250 88.6372 250 80.7882Z" fill="url(#paint1_linear)"/>
<path d="M94 236.275V235.725C94 228.145 87.732 222 80.0002 222C72.268 222 66 228.145 66 235.725V236.275C66 243.856 72.268 250 80.0002 250C87.732 250 94 243.856 94 236.275Z" fill="url(#paint2_linear)"/>
<path d="M105 83.475V82.5253C105 69.5325 94.7026 59 82 59C69.2974 59 59 69.5325 59 82.5246V83.475C59 96.4668 69.2974 107 82 107C94.7026 107 105 96.4668 105 83.475Z" fill="url(#paint3_linear)"/>
<path fill-rule="evenodd" clip-rule="evenodd" d="M127.687 120.789C127.354 121.221 122.009 126.553 121.698 126.769C120.07 126.367 114.533 123.73 113.771 123.827C112.882 124.125 107.745 133.836 107.212 134.745L113.682 140.442C113.556 141.633 111.994 145.297 111.505 148.901L103 150.115L103.015 163.222C104.54 163.445 106.279 163.81 107.627 164.041L110.913 164.726C111.779 165.061 111.787 167.287 112.312 169.261C112.682 170.661 113.06 171.98 113.489 173.178C112.105 174.638 107.886 177.283 106.975 178.593L113.2 189.696C115.258 189.576 118.686 187.559 121.136 187.053L122.046 187.923C123.29 189.338 126.058 192.31 127.457 193.159L124.482 201.082C125.466 201.969 134.46 207.219 135.578 207.539L141.041 201.463C142.151 201.619 143.869 202.318 145.083 202.638C146.622 203.049 147.866 203.279 149.487 203.645L150.849 211.627C151.937 212.268 160.857 211.621 163.677 212C163.84 210.22 164.388 204.21 165.832 203.645L167.431 203.264C170.199 202.668 171.457 202.074 173.774 201.463C175.551 203.569 177.305 205.827 178.919 207.919L189.911 201.657C189.956 199.296 187.454 195.587 187.454 193.405C189.875 191.514 191.28 189.473 193.627 187.268L201.222 190.181C202.162 189.406 203.68 186.226 204.502 184.774C205.397 183.21 206.951 180.924 207.699 179.159C207.211 178.406 202.472 174.273 201.422 173.841C201.571 173.186 203.724 165.322 203.775 165.217C204.932 164.495 210.106 164.019 212 163.788L211.985 150.778C210.882 150.495 204.088 149.482 203.954 149.088L201.467 140.717C203.643 138.84 206.093 137.351 207.98 135.31C207.359 133.717 202.999 126.65 201.666 124.103L193.582 126.955C191.437 125.123 189.764 122.881 187.447 121.064C188.002 118.577 190.266 114.869 190.474 112.53C189.201 112.269 181.71 107.325 179.437 106.356L173.863 113.103C172.02 112.925 171.495 112.411 169.939 111.837C168.666 111.376 167.267 111.175 165.654 111.026L164.491 103.668C164.359 102.626 164.529 102 163.581 102H151.981C150.908 102 151.078 102.976 150.916 104.055L149.635 111.309C147.621 110.393 143.469 112.649 141.514 113.103C140.671 111.86 139.819 110.788 138.864 109.499C138.176 108.568 136.962 106.677 136.133 106.23C135.311 106.52 133.994 107.384 133.187 107.861L127.554 111.018C126.362 111.607 125.784 111.964 124.867 112.604L127.687 120.789ZM119.063 156.386C119.063 135.273 136.955 117.84 158.214 118.22C179.326 118.599 196.218 136.137 195.952 157.815C195.825 167.639 191.065 178.437 184.203 184.819C158.666 208.537 119.063 190.91 119.063 156.386Z" fill="#243E8F"/>
<path d="M22.0948 140L40.4568 121.63C29.4388 84.8911 36.7841 66.5217 62.4926 48.1521C97.2751 23.2986 128.601 55.4998 139.619 62.8477C148.433 68.726 164.103 61.6231 169 59.1737C121.256 4.06495 71.033 17.1692 55.1481 26.1079C-3.61339 59.1737 13.5254 119.181 22.0948 140Z" fill="url(#paint4_linear)"/>
<path d="M138 287.846L119.48 269.368C82.4394 280.456 63.9194 273.064 45.3992 247.19C20.342 212.184 52.8072 180.658 60.2153 169.57C66.1418 160.698 58.9807 144.928 56.5113 140C0.950676 188.05 14.1624 238.596 23.1744 254.582C56.5112 313.72 117.01 296.471 138 287.846Z" fill="url(#paint5_linear)"/>
<path d="M169 24.0948L187.52 42.4568C224.561 31.4388 243.08 38.7841 261.601 64.4926C286.658 99.275 254.193 130.601 246.785 141.619C240.858 150.433 248.02 166.103 250.488 171C306.049 123.256 292.838 73.033 283.826 57.1481C250.488 -1.61341 189.989 15.5254 169 24.0948Z" fill="url(#paint6_linear)"/>
<path d="M287.846 177L269.368 195.369C280.456 232.109 273.064 250.479 247.19 268.848C212.184 293.701 180.658 261.5 169.57 254.152C160.698 248.274 144.928 255.377 140 257.827C188.05 312.935 238.596 299.831 254.582 290.892C313.72 257.827 296.471 197.819 287.846 177Z" fill="url(#paint7_linear)"/>
<path d="M388.875 179V111.004H404.828V139.341L442.493 111.004H465.426L420.364 143.04L470.958 179H445.516L404.828 149.087V179H388.875Z" fill="#0033A0"/>
<path d="M539.694 122.101H503.605V138.28H539.694C542.375 138.28 544.262 137.937 545.355 137.25C546.427 136.436 546.963 135.16 546.963 133.423V126.958C546.963 125.221 546.427 123.945 545.355 123.13C544.262 122.444 542.375 122.101 539.694 122.101ZM539.694 149.473H503.605V166.745H539.694C542.739 166.745 544.765 166.306 545.773 165.427C546.824 164.505 547.349 162.928 547.349 160.698V155.552C547.349 153.301 546.824 151.714 545.773 150.792C544.744 149.913 542.718 149.473 539.694 149.473ZM488.07 179V111.004H546.288C551.606 111.004 555.519 112.066 558.028 114.188C560.387 116.29 561.566 119.624 561.566 124.192V132.49C561.566 135.664 560.558 138.258 558.543 140.274C556.463 142.354 553.568 143.576 549.858 143.941C553.782 144.477 556.806 145.892 558.929 148.186C561.051 150.395 562.113 153.333 562.113 156.999V165.684C562.113 170.08 560.44 173.425 557.095 175.719C553.857 177.906 548.85 179 542.074 179H488.07Z" fill="#0033A0"/>
<path d="M604.956 151.853H634.708L619.977 124.192L604.956 151.853ZM574.496 179L612.836 111.004H628.115L667.13 179H649.343L641.173 164.108H598.105L590.192 179H574.496Z" fill="#0033A0"/>
<path d="M682.087 179V111.004H697.879V137.379H747.284V111.004H763.238V179H747.284V149.762H697.879V179H682.087Z" fill="#0033A0"/>
<path d="M823.032 123.13V179H807.207V123.13H775.975V111.004H854.36V123.13H823.032Z" fill="#0033A0"/>
<path d="M864.267 127.086C864.267 120.932 865.403 116.719 867.676 114.446C870.099 112.151 874.581 111.004 881.121 111.004H931.169C937.752 111.004 942.191 112.151 944.485 114.446C946.865 116.697 948.055 120.911 948.055 127.086V162.918C948.055 169.115 946.865 173.339 944.485 175.591C942.169 177.864 937.731 179 931.169 179H881.121C874.602 179 870.121 177.864 867.676 175.591C865.403 173.318 864.267 169.093 864.267 162.918V127.086ZM880.059 166.231H932.23V123.13H880.059V166.231Z" fill="#0033A0"/>
<path d="M1018.01 122.744H982.439V140.789H1018.01C1020.78 140.789 1022.67 140.392 1023.67 139.598C1024.64 138.805 1025.12 137.401 1025.12 135.385V128.148C1025.12 126.132 1024.64 124.728 1023.67 123.934C1022.67 123.141 1020.78 122.744 1018.01 122.744ZM966.904 179V111.004H1024.99C1030.33 111.004 1034.29 112.023 1036.86 114.06C1039.24 116.14 1040.43 119.517 1040.43 124.192V139.341C1040.43 143.908 1039.24 147.243 1036.86 149.344C1034.35 151.467 1030.4 152.529 1024.99 152.529H982.439V179H966.904Z" fill="#0033A0"/>
<path d="M1144.39 179V111.004H1133.58L1085.75 151.081C1083.76 152.625 1082.31 153.847 1081.41 154.748C1080.38 155.777 1079.24 157.01 1078 158.447C1078.09 157.075 1078.17 155.584 1078.26 153.976C1078.36 152.368 1078.45 151.178 1078.51 150.406C1078.6 149.355 1078.64 148.122 1078.64 146.707V111.004H1064.43V179H1075.23L1125.15 136.961C1126.59 135.717 1127.64 134.752 1128.31 134.066C1129.38 133.015 1130.21 132.136 1130.81 131.429C1130.77 132.201 1130.69 133.23 1130.56 134.516C1130.43 135.803 1130.34 136.757 1130.3 137.379C1130.21 138.687 1130.17 140.306 1130.17 142.236V179H1144.39Z" fill="#0033A0"/>
<path d="M1167.06 179V166.231H1205.92H1227.92V155.037H1183.92C1177.34 155.037 1172.9 153.89 1170.6 151.596C1168.24 149.344 1167.06 145.131 1167.06 138.955V111.004H1182.86V143.297H1227.92V111.004H1243.74V162.918C1243.74 169.072 1242.6 173.296 1240.3 175.591C1237.86 177.864 1233.38 179 1226.86 179H1204.73H1183.92H1167.06Z" fill="#0033A0"/>
<path d="M1265.26 179V111.004H1278.03L1310.04 152.11L1341.4 111.004H1354.07V179H1339.43V136.961C1339.43 135.739 1339.48 134.731 1339.56 133.937C1339.67 132.887 1339.8 131.482 1339.95 129.724C1339.52 130.517 1339.12 131.289 1338.76 132.04C1338.39 132.79 1338.05 133.466 1337.73 134.066C1336.91 135.524 1336.34 136.446 1335.99 136.832L1310.45 170.83H1307.27L1281.73 136.704C1281.04 135.846 1280.25 134.613 1279.35 133.005C1278.47 131.589 1277.9 130.496 1277.65 129.724C1277.77 131.161 1277.9 132.479 1278.03 133.68V136.961V179H1265.26Z" fill="#0033A0"/>
<path d="M390.16 85.0001V49.8205H396.767L413.325 71.088L429.55 49.8205H436.107V85.0001H428.535V63.25C428.535 62.6176 428.557 62.0962 428.602 61.6857C428.657 61.1421 428.724 60.4154 428.801 59.5057C428.579 59.9162 428.374 60.3156 428.185 60.7038C427.997 61.0921 427.819 61.4416 427.653 61.7523C427.231 62.5067 426.932 62.9837 426.754 63.1834L413.541 80.7732H411.894L398.68 63.1168C398.325 62.6731 397.915 62.0352 397.449 61.2031C396.994 60.4709 396.7 59.9051 396.567 59.5057C396.634 60.249 396.7 60.9313 396.767 61.5526V63.25V85.0001H390.16Z" fill="#0033A0"/>
<path d="M445.026 58.1411C445.026 54.9571 445.614 52.7771 446.79 51.6011C448.044 50.414 450.363 49.8205 453.746 49.8205H479.64C483.046 49.8205 485.343 50.414 486.53 51.6011C487.761 52.766 488.377 54.946 488.377 58.1411V76.6795C488.377 79.8857 487.761 82.0713 486.53 83.2361C485.332 84.4121 483.035 85.0001 479.64 85.0001H453.746C450.374 85.0001 448.055 84.4121 446.79 83.2361C445.614 82.0602 445.026 79.8746 445.026 76.6795V58.1411ZM453.197 78.3935H480.189V56.0942H453.197V78.3935Z" fill="#0033A0"/>
<path d="M526.003 78.9261H507.598V69.5903H526.003C527.412 69.5903 528.388 69.7955 528.932 70.206C529.431 70.6387 529.681 71.3654 529.681 72.386V76.147C529.681 77.1676 529.431 77.8943 528.932 78.327C528.399 78.7264 527.423 78.9261 526.003 78.9261ZM499.56 49.8205V85.0001H529.614C532.377 85.0001 534.423 84.4787 535.755 83.4358C536.986 82.3375 537.602 80.5846 537.602 78.1772V70.3392C537.602 67.9872 536.986 66.262 535.755 65.1637C534.446 64.0765 532.399 63.5329 529.614 63.5329H507.598V55.8945H534.124L536.437 49.8205H507.598H499.56Z" fill="#0033A0"/>
<path d="M588.491 85.0001V49.8205H582.899L558.154 70.5555C557.122 71.3543 556.373 71.9866 555.907 72.4526C555.375 72.9851 554.787 73.623 554.143 74.3663C554.188 73.6563 554.232 72.8853 554.276 72.0532C554.332 71.2211 554.376 70.6054 554.41 70.206C554.454 69.6624 554.476 69.0245 554.476 68.2923V49.8205H547.121V85.0001H552.712L578.539 63.25C579.283 62.6065 579.826 62.1073 580.17 61.7523C580.725 61.2086 581.158 60.7538 581.468 60.3877C581.446 60.7871 581.402 61.3196 581.335 61.9852C581.269 62.6509 581.224 63.1446 581.202 63.4663C581.158 64.143 581.135 64.9807 581.135 65.9791V85.0001H588.491Z" fill="#0033A0"/>
<path d="M620.059 49.8205L640.362 85.0001H631.026L616.781 59.5722L603.218 85.0001H595.031L614.401 49.8205H620.059Z" fill="#0033A0"/>
<path d="M673.611 78.9261H655.206V69.5903H673.611C674.998 69.5903 675.974 69.7955 676.54 70.206C677.039 70.6387 677.289 71.3654 677.289 72.386V76.147C677.289 77.1676 677.039 77.8943 676.54 78.327C675.996 78.7264 675.02 78.9261 673.611 78.9261ZM647.168 49.8205V85.0001H677.222C679.985 85.0001 682.026 84.4787 683.346 83.4358C684.578 82.3375 685.193 80.5846 685.193 78.1772V70.3392C685.193 67.9872 684.578 66.262 683.346 65.1637C682.059 64.0765 680.018 63.5329 677.222 63.5329H655.206V49.8205H647.168Z" fill="#0033A0"/>
<path d="M695.844 85.0001V49.8205H704.015V63.4663H729.576V49.8205H737.83V85.0001H729.576V69.8732H704.015V85.0001H695.844Z" fill="#0033A0"/>
<path d="M774.957 78.9261H756.551V69.5903H774.957C776.365 69.5903 777.342 69.7955 777.885 70.206C778.385 70.6387 778.634 71.3654 778.634 72.386V76.147C778.634 77.1676 778.385 77.8943 777.885 78.327C777.353 78.7264 776.377 78.9261 774.957 78.9261ZM748.514 49.8205V85.0001H778.568C781.33 85.0001 783.377 84.4787 784.708 83.4358C785.94 82.3375 786.555 80.5846 786.555 78.1772V70.3392C786.555 67.9872 785.94 66.262 784.708 65.1637C783.399 64.0765 781.352 63.5329 778.568 63.5329H756.551V49.8205H748.514ZM791.797 85.0667V49.8205H800.251V85.0667H791.797Z" fill="#0033A0"/>
<path d="M851.556 85.0001V49.8205H845.965L821.219 70.5555C820.188 71.3543 819.439 71.9866 818.973 72.4526C818.44 72.9851 817.852 73.623 817.209 74.3663C817.253 73.6563 817.297 72.8853 817.342 72.0532C817.397 71.2211 817.442 70.6054 817.475 70.206C817.519 69.6624 817.542 69.0245 817.542 68.2923V49.8205H810.186V85.0001H815.778L841.605 63.25C842.348 62.6065 842.892 62.1073 843.236 61.7523C843.79 61.2086 844.223 60.7538 844.534 60.3877C844.512 60.7871 844.467 61.3196 844.401 61.9852C844.334 62.6509 844.29 63.1446 844.267 63.4663C844.223 64.143 844.201 64.9807 844.201 65.9791V85.0001H851.556ZM823.399 49.8205V43.8296H839.292V49.8205H823.399Z" fill="#0033A0"/>
<path d="M937.841 56.0942V85.0001H929.654V56.0942H913.495V49.8205H954.05V56.0942H937.841Z" fill="#0033A0"/>
<path d="M958.277 85.0001V49.8205H994.272V55.828H966.464V63.666H982.69V69.6569H966.464V78.3935H994.621V85.0001H958.277Z" fill="#0033A0"/>
<path d="M1001.88 85.0001L1018.57 66.9443L1001.59 49.8205H1012.43L1023.68 61.7523L1034.38 49.8205H1043.8L1028.45 65.9791L1047.41 85.0001H1036.29L1023.41 71.3709L1011.55 85.0001H1001.88Z" fill="#0033A0"/>
<path d="M1054.83 85.0001V49.8205H1063V63.4663H1088.56V49.8205H1096.82V85.0001H1088.56V69.8732H1063V85.0001H1054.83Z" fill="#0033A0"/>
<path d="M1106.48 58.1411C1106.48 54.9571 1107.07 52.7771 1108.25 51.6011C1109.5 50.414 1111.82 49.8205 1115.2 49.8205H1141.1C1144.5 49.8205 1146.8 50.414 1147.99 51.6011C1149.22 52.766 1149.83 54.946 1149.83 58.1411V76.6795C1149.83 79.8857 1149.22 82.0713 1147.99 83.2361C1146.79 84.4121 1144.49 85.0001 1141.1 85.0001H1115.2C1111.83 85.0001 1109.51 84.4121 1108.25 83.2361C1107.07 82.0602 1106.48 79.8746 1106.48 76.6795V58.1411ZM1114.65 78.3935H1141.65V56.0942H1114.65V78.3935Z" fill="#0033A0"/>
<path d="M1168.24 85.0001V56.4437H1191.55V85.0001H1199.74V49.8205H1191.01H1160.07V58.1411V85.0001H1168.24Z" fill="#0033A0"/>
<path d="M1223.14 70.9549H1238.53L1230.91 56.6434L1223.14 70.9549ZM1207.38 85.0001L1227.22 49.8205H1235.12L1255.31 85.0001H1246.1L1241.88 77.2952H1219.59L1215.5 85.0001H1207.38Z" fill="#0033A0"/>
<path d="M1289.01 55.8945H1270.6V65.2303H1289.01C1290.44 65.2303 1291.41 65.025 1291.93 64.6146C1292.43 64.2041 1292.68 63.4774 1292.68 62.4345V58.6903C1292.68 57.6474 1292.43 56.9207 1291.93 56.5102C1291.41 56.0998 1290.44 55.8945 1289.01 55.8945ZM1262.56 85.0001V49.8205H1292.62C1295.38 49.8205 1297.43 50.3474 1298.76 51.4014C1299.99 52.4775 1300.6 54.2248 1300.6 56.6434V64.4814C1300.6 66.8445 1299.99 68.5696 1298.76 69.6569C1297.46 70.7552 1295.41 71.3043 1292.62 71.3043H1270.6V85.0001H1262.56Z" fill="#0033A0"/>
<path d="M1312.14 85.0001V49.8205H1320.37V64.4814L1339.88 49.8205H1351.73L1328.41 66.3952L1354.59 85.0001H1341.44L1320.37 69.5237V85.0001H1312.14Z" fill="#0033A0"/>
<path d="M418.574 221.284V256.891H408.508V221.284H388.604V213.556H438.561V221.284H418.574Z" fill="#0033A0"/>
<path d="M479.723 220.628H456.723V230.939H479.723C481.432 230.939 482.634 230.72 483.331 230.283C484.015 229.764 484.356 228.951 484.356 227.844V223.723C484.356 222.616 484.015 221.803 483.331 221.284C482.634 220.847 481.432 220.628 479.723 220.628ZM479.723 238.073H456.723V249.081H479.723C481.664 249.081 482.955 248.801 483.598 248.241C484.267 247.653 484.602 246.649 484.602 245.227V241.947C484.602 240.512 484.267 239.501 483.598 238.913C482.942 238.353 481.65 238.073 479.723 238.073ZM446.822 256.891V213.556H483.926C487.315 213.556 489.809 214.232 491.408 215.585C492.911 216.924 493.663 219.05 493.663 221.96V227.249C493.663 229.272 493.021 230.925 491.736 232.21C490.41 233.536 488.565 234.315 486.201 234.547C488.702 234.889 490.629 235.791 491.982 237.253C493.335 238.661 494.011 240.533 494.011 242.87V248.405C494.011 251.206 492.945 253.338 490.813 254.8C488.75 256.194 485.559 256.891 481.24 256.891H446.822Z" fill="#0033A0"/>
<path d="M504.507 256.891V213.556H548.847V220.956H514.593V230.611H534.58V237.991H514.593V248.753H549.278V256.891H504.507Z" fill="#0033A0"/>
<path d="M592.122 221.038H569.449V232.538H592.122C593.884 232.538 595.087 232.285 595.729 231.78C596.344 231.274 596.652 230.379 596.652 229.094V224.482C596.652 223.197 596.344 222.302 595.729 221.796C595.087 221.291 593.884 221.038 592.122 221.038ZM559.548 256.891V213.556H596.57C599.973 213.556 602.494 214.205 604.134 215.503C605.651 216.829 606.41 218.981 606.41 221.96V231.616C606.41 234.527 605.651 236.652 604.134 237.991C602.535 239.344 600.014 240.02 596.57 240.02H569.449V256.891H559.548Z" fill="#0033A0"/>
<path d="M660.405 221.284H633.202V248.753H660.405V239.426L670.491 241.517V246.642C670.491 250.564 669.76 253.256 668.297 254.718C666.739 256.167 663.883 256.891 659.729 256.891H633.879C629.724 256.891 626.868 256.167 625.31 254.718C623.848 253.256 623.117 250.564 623.117 246.642V223.805C623.117 219.897 623.848 217.211 625.31 215.749C626.854 214.287 629.711 213.556 633.879 213.556H659.729C663.897 213.556 666.753 214.287 668.297 215.749C669.76 217.211 670.491 219.897 670.491 223.805V227.926L660.405 229.525V221.284Z" fill="#0033A0"/>
<path d="M679.49 256.891V213.556H689.637V231.616L713.662 213.556H728.258L699.538 233.973L731.784 256.891H715.589L689.637 237.827V256.891H679.49Z" fill="#0033A0"/>
<path d="M757.06 239.59H776.022L766.633 221.96L757.06 239.59ZM737.647 256.891L762.082 213.556H771.819L796.685 256.891H785.349L780.142 247.4H752.693L747.65 256.891H737.647Z" fill="#0033A0"/>
<path d="M826.778 221.038H849.45V233.133H826.778C825.042 233.133 823.84 232.88 823.17 232.374C822.555 231.841 822.248 230.946 822.248 229.689V224.482C822.248 223.197 822.555 222.302 823.17 221.796C823.84 221.291 825.042 221.038 826.778 221.038ZM859.352 256.891V213.556H822.33C818.913 213.556 816.399 214.205 814.786 215.503C813.269 216.829 812.51 218.981 812.51 221.96V232.128C812.51 235.025 813.269 237.15 814.786 238.503C816.344 239.843 818.858 240.512 822.33 240.512H827.967L807.98 256.891H822.412L839.877 240.512H849.45V256.891H859.352Z" fill="#0033A0"/>
<path d="M943.399 223.805C943.399 219.883 944.123 217.198 945.572 215.749C947.116 214.287 949.973 213.556 954.141 213.556H986.038C990.233 213.556 993.062 214.287 994.525 215.749C996.042 217.184 996.8 219.869 996.8 223.805V246.642C996.8 250.591 996.042 253.283 994.525 254.718C993.049 256.167 990.22 256.891 986.038 256.891H954.141C949.986 256.891 947.13 256.167 945.572 254.718C944.123 253.27 943.399 250.578 943.399 246.642V223.805ZM953.464 248.753H986.714V221.284H953.464V248.753Z" fill="#0033A0"/>
<path d="M1043.15 249.409H1020.48V237.909H1043.15C1044.88 237.909 1046.09 238.162 1046.76 238.667C1047.37 239.2 1047.68 240.096 1047.68 241.353V245.986C1047.68 247.243 1047.37 248.138 1046.76 248.671C1046.1 249.163 1044.9 249.409 1043.15 249.409ZM1010.58 213.556V256.891H1047.6C1051 256.891 1053.52 256.249 1055.16 254.964C1056.68 253.611 1057.44 251.452 1057.44 248.487V238.831C1057.44 235.934 1056.68 233.809 1055.16 232.456C1053.55 231.117 1051.03 230.447 1047.6 230.447H1020.48V221.038H1053.15L1056 213.556H1020.48H1010.58Z" fill="#0033A0"/>
<path d="M1096.2 213.556L1121.21 256.891H1109.71L1092.16 225.568L1075.46 256.891H1065.37L1089.23 213.556H1096.2Z" fill="#0033A0"/>
<path d="M1142.78 239.59H1161.74L1152.35 221.96L1142.78 239.59ZM1123.36 256.891L1147.8 213.556H1157.54L1182.4 256.891H1171.07L1165.86 247.4H1138.41L1133.37 256.891H1123.36Z" fill="#0033A0"/>
<path d="M1229.8 221.284H1202.59V248.753H1229.8V239.426L1239.88 241.517V246.642C1239.88 250.564 1239.15 253.256 1237.69 254.718C1236.13 256.167 1233.27 256.891 1229.12 256.891H1203.27C1199.12 256.891 1196.26 256.167 1194.7 254.718C1193.24 253.256 1192.51 250.564 1192.51 246.642V223.805C1192.51 219.897 1193.24 217.211 1194.7 215.749C1196.25 214.287 1199.1 213.556 1203.27 213.556H1229.12C1233.29 213.556 1236.14 214.287 1237.69 215.749C1239.15 217.211 1239.88 219.897 1239.88 223.805V227.926L1229.8 229.525V221.284Z" fill="#0033A0"/>
<path d="M1276.92 221.284V256.891H1266.84V221.284H1246.93V213.556H1296.89V221.284H1276.92Z" fill="#0033A0"/>
<path d="M1338.3 249.409H1315.63V237.909H1338.3C1340.01 237.909 1341.21 238.162 1341.91 238.667C1342.52 239.2 1342.83 240.096 1342.83 241.353V245.986C1342.83 247.243 1342.52 248.138 1341.91 248.671C1341.24 249.163 1340.04 249.409 1338.3 249.409ZM1305.73 213.556V256.891H1342.75C1346.15 256.891 1348.67 256.249 1350.29 254.964C1351.81 253.611 1352.57 251.452 1352.57 248.487V238.831C1352.57 235.934 1351.81 233.809 1350.29 232.456C1348.71 231.117 1346.19 230.447 1342.75 230.447H1315.63V213.556H1305.73Z" fill="#0033A0"/>
<defs>
<linearGradient id="paint0_linear" x1="232.924" y1="241.451" x2="232.924" y2="218.451" gradientUnits="userSpaceOnUse">
<stop stop-color="#971B1E"/>
<stop offset="1" stop-color="#C93827"/>
</linearGradient>
<linearGradient id="paint1_linear" x1="250.315" y1="80.5243" x2="221.728" y2="80.5243" gradientUnits="userSpaceOnUse">
<stop stop-color="#E04226"/>
<stop offset="1" stop-color="#F16822"/>
</linearGradient>
<linearGradient id="paint2_linear" x1="79.984" y1="222.007" x2="79.984" y2="250.033" gradientUnits="userSpaceOnUse">
<stop stop-color="#243E8F"/>
<stop offset="1" stop-color="#08AFD8"/>
</linearGradient>
<linearGradient id="paint3_linear" x1="105.528" y1="83.1998" x2="58.5809" y2="83.1998" gradientUnits="userSpaceOnUse">
<stop stop-color="#036635"/>
<stop offset="1" stop-color="#81C241"/>
</linearGradient>
<linearGradient id="paint4_linear" x1="-14.6312" y1="128.978" x2="121.287" y2="33.5015" gradientUnits="userSpaceOnUse">
<stop stop-color="#971B1E"/>
<stop offset="1" stop-color="#C93827"/>
</linearGradient>
<linearGradient id="paint5_linear" x1="126.888" y1="324.808" x2="30.8575" y2="187.857" gradientUnits="userSpaceOnUse">
<stop stop-color="#E34825"/>
<stop offset="1" stop-color="#EF6322"/>
</linearGradient>
<linearGradient id="paint6_linear" x1="180.111" y1="-12.6312" x2="275.322" y2="124.019" gradientUnits="userSpaceOnUse">
<stop stop-color="#243E8F"/>
<stop offset="1" stop-color="#08ADD7"/>
</linearGradient>
<linearGradient id="paint7_linear" x1="324.808" y1="188.021" x2="188.597" y2="284.316" gradientUnits="userSpaceOnUse">
<stop stop-color="#036635"/>
<stop offset="1" stop-color="#81C241"/>
</linearGradient>
</defs>
</svg>
