<svg xmlns="http://www.w3.org/2000/svg" width="246" height="200" fill="none">
  <path fill="#EFF5FF" d="M207 11l2 1 6 3 5 5c1 1 2 3 1 5-1 3-5 6-8 7-2 0 0 3-1 5-1 3 3 2 5 3 3 2 7 5 6 8l-4 5c0 2-4 3-4 5v4l5 5 7 6 2 3-1 4 2 7c1 1 2 2 8 3 6 0 5 6 3 7-1 0-1 2 1 4l3 5-2 6-2 6c-2 3 2 3 4 4 2 2 1 4 0 4h-8c-2-1-2-3-2-4l-2-3-5-3c-1-1-4 1-5 3-2 2 0 2-2 5l-4 4c-2 1-4 1-6-1-2-1-3 0-4 1l4 6-3 8h-3l-6-3c-1-1-1 1-1 1l-4 4-8 4-8 3c-2 0-1 3-4 4-2 1-3-1-5-2l-6-2c-1-2-3-3-6-3-4 1-4 2-4 3l4 3c1 1-1 8-2 8l-4 3v6c1 3-2 4-4 6l-4 3h-8c-3 0-5 2-7 3l-3-1-5-3-3-1c-2 0-2-2-4-3-2-2-2 0-4 0-2 1-3-1-6-1-3-1-2 1-3 3 0 2 2 4 1 5s-3-2-5-2c-3-1-2 1-1 3 1 1-1 3-1 4l-5 5c-1 2-3 3-5 3l-5 2-4 2h-8l-6-3-7-1c-3-1-2 0-4 1-2 0-3 1-7-1-5-1-3-3-3-4h-6c-2 0-2 0-3 2 0 3-1 2-2 1l-3-2h-5l-3-3 1-4-1-4v-4l4-2c1-1-1-3-1-4-1-2 0-3 2-4 1 0 0-2-2-3-1-1 0-3 1-4l1-2c1-1 0-1-1-1l-6-1c-2 0-1-1-2-3v-4l-4-1-3-3c0-1-1-2 1-4l2-5H7l-4-1-2-2v-2l-1-2c-1-1 1-2 1-3l2-1v-4c0-2 2 0 3 0v-4l3-2 3 3 4-1c1-1 2 1 3 1l3 1 3-1 3-2c1 0 2-1 1-2v-3l4-3h4l1 2 1-1c0-1 1-3 3-3 1-1 6-1 6-4 0-2 3-3 3-1 1 1 2 0 3-1l1-3 5-2 2-3 5-5h4l5 2 4 1c2 0 2-2 2-3l-1-4 2-2 2-6c2-2 5-3 7-2v-3l-1-4c-1-2 1-2 1-3l4-2v-5c0-2-2-2-3-3s-2-2-1-5c1-2 1-3 3-3 3-1 2 0 5 1s3-1 4-1l5-3 5 1 4 1 6 4c3 2 2 1 4 1v-3l1-6h3l6 2c2 1 2-1 2-1l4-4 1-4v-3c0-2 3 0 5 0l3-3h5l5 1c3 0 3-1 5-2l5-5 4 1 4-1 3-1c1-1 0-4 2-4 2-1 1-2 1-4l2-3c1-1 4-1 4-3l-2-3 3-2h4l3-1 3 2 1 3 1 3 1 3z"/>
  <path fill="#C1D4FE" d="M220 69l1-1 6 6-1 1-2 2-2 3c-2 2-3 2-5 2-1 1-2 2-5 1-3 0-2 1-3 2l-5 1-4 2-2-2 1-3 1-1v-2l1-2v-1l-1-2 3-2h4c2 0 1-2 2-2h4l2-1 2 3 3-1v-2-1z"/>
  <path fill="#fff" fill-rule="evenodd" d="M221 68l7 5-1 1a7 7 0 01-1 1h-1l-1 2a4 4 0 01-1 2l-1 1-2 2h-1-1-1a7 7 0 00-1 1h-1-3-2v1l-1 1h-1l-1 1h-3l-2 1-2 1h-1v-1l-1-1v-2l1-2 1-1v-1-1a11 11 0 001-1 2 2 0 010-1v-1l-1-1v-1h1l1-1h5l1-1v-1l1-1h2l1 1h1l1-1 1-1v1a12 12 0 012 1 58 58 0 001 2l1-1h1v-1-1-1-1h1zm-1 0v4a3 3 0 01-2 1h-1a7 7 0 01-1-1 64 64 0 00-1-2h-1l-1 1h-2l-1-1-1 1v1l-1 1h-1a5 5 0 01-3 0h-1l-1 1a20 20 0 00-1 0l-1 1h1v4a11 11 0 00-1 1v2h-1v2l-1 2 1 1h3v-1h2l2-1h2l1-1h1v-1h5l1-1h1a7 7 0 012 0l1-1 2-1 1-1v-1l1-1 1-2 1-1h1l-6-6h-1z" clip-rule="evenodd"/>
  <path fill="#C1D4FE" d="M169 89l-1 2-3 1-1 5v4l1 3-1 3 4 2 5 1 5 1 4 1s1 3 3 3l6-1c2-1 2-3 2-6 0-2-1-2-3-4-1-2 1-1 3-3 2-1 3-5 2-6l1-3c1-2-1-2-1-3l-3-2c-1-1-3 1-4 1h-4c-2-2-1-2-1-3-1-2-2 0-3 0-2 0-3-2-3-2l-3-2c-2 0-2 2-3 3l-3 1-1 2 2 2z"/>
  <path fill="#fff" fill-rule="evenodd" d="M172 82l-1 2-2 1h-1l-1 1v1h1v1h1v1l-1 2h-1l-2 1v1a30 30 0 00-1 4 9 9 0 000 3v1l1 1v4l-1 1 1 1h1l2 1a6 6 0 003 1h7a13 13 0 013 1h1v1l1 1 1 1 1 1 3-1 3-1 2-2v-3l-1-2-1-1a13 13 0 01-1-2v-1h1l2-1 2-3v-2-1-2l1-2v-1a3 3 0 00-1-1l-3-2h-2l-1 1h-1-4l-1-1v-1-1l-1-1h-1l-1 1-2-1-1-1-3-2h-1l-1 1zm1-1h1l3 1v1a29 29 0 001 1h5v3h1l2 1h2l1-1h3l3 2 1 1v2l-1 1v2l1 1-1 2-2 3-2 1h-1v1l1 2h1l1 3v3l-2 3-3 1h-4l-1-1a8 8 0 01-1-2v-1h-1-1-2l-5-1a15 15 0 00-3 0l-2-1-2-1h-1-1v-1a5 5 0 011-1v-2l-1-2v-1-1a8 8 0 010-4 36 36 0 000-1v-2l1-1v-1h2l1-1 1-1v-1h-1l-1-1v-1-1h1l1-1 2-1 1-1 1-1z" clip-rule="evenodd"/>
  <path fill="#C1D4FE" d="M104 127v5l-3 1 3 2c2 1 0 1-1 2l-5 2c-2 0-2 1-3 3l-3 3-6 1h-5l-4-3-6-1c-3-1-2-2-2-3v-4l3-4c1-2-1-3-1-5l2-4v-3l5-1c2 0 5-2 5-3l5-3c3-2 5 0 6 0h6l-1 2c-1 1 0 2 2 2v6c-1 2 0 2 1 2l2 3z"/>
  <path fill="#C1D4FE" d="M108 136l1 1c1 1 1 0 2-1l2-1 1 2v3l3 1 3 1 4 3 2 2 2 3 3 3 3 2c2 1 2 2 2 3l-1 3c-1 0-3-1-3-3l-3-1c-2 0-3 1-3 2l-5 6-2 3c-2 1-2 3-1 5l2 4-3 2-3-4c-1-1-1 0-2 1s-4 0-6-1v-6l-2-4-1-5-2-4v-3c0-2-2-5-3-5l-2-1-1-2 3-2 1-3 3-1 2-1 2-1 2-1z"/>
  <path fill="#C1D4FE" d="M95 147l-1-1h-2l-3 1h-3l-3 1-2 1-2 1h-1l-2 1-1 1 1 2 2 1 1 1v3l-1 2-1 2 1 2-2 1v2l2 1-1 3v1l1 2 1 1h4l1 2v2l1 2h2l2-1 1 2 3 1h3l-1-3 2-1 3 2c2 1 2-1 2-1v-4l2-3 1-2-1-4-1-1-1-4-1-3-1-3-1-2 1-2-1-2-1-2-2-1-1-1z"/>
  <path fill="#C1D4FE" d="M80 147c1 0 1 0 0 0l-1 1-1 1h-1l-2 1-2 1v1l1 3c0 1 0 0 0 0h1l2 1 1 2-1 1-1 1v1l-1 1 1 2-1 1-1 1v1l2 2v1l-1 2v1l-3 2v4h-5l-4-1-5 1c-3 0-1-2-1-4s-2-2-1-3l-1-2h-4l-2-2-2-2 1-3 2-4v-2l2-2-1-3 1-4 2 1 4-3c1-1 2 1 3 2l3 1c2 0 3-3 4-5l1-2h1l2 1 4 1 2 1 2 2z"/>
</svg>
