<svg width="44" height="44" viewBox="0 0 44 44" fill="none" xmlns="http://www.w3.org/2000/svg">
<path d="M38.1364 7.72086C38.5 7.90267 38.608 8.22095 37.6367 8.22095C37.1367 8.22095 37.1367 8.72095 37.1367 9.22095C37.1367 9.72095 36.1367 9.72095 35.6367 9.72095H34.6367C34.3034 9.88761 33.5367 10.3209 33.1367 10.7209C32.6367 11.2209 31.6367 11.7209 31.1367 11.7209C30.6367 11.7209 31.1367 12.7209 31.1367 13.2209C31.1367 13.7209 31.6367 14.7209 31.6367 15.7209C31.6367 16.7209 31.6367 16.2209 32.1367 16.2209H33.1367C33.6367 16.2209 34.1367 16.7209 34.6367 16.7209C35.0367 16.7209 35.1367 17.0543 35.1367 17.2209C35.3034 17.5543 35.6367 18.3209 35.6367 18.7209C35.6367 19.1209 34.9701 19.5543 34.6367 19.7209C34.4701 20.0543 34.1367 20.8209 34.1367 21.2209C34.1367 21.7209 33.6367 21.7209 33.6367 22.2209C33.6367 22.7209 33.1367 22.7209 33.1367 23.2209C33.1367 23.7209 33.6367 24.2209 33.6367 25.2209C33.6367 26.2209 33.6367 26.2209 33.1367 26.2209C32.6367 26.2209 32.1367 26.7209 31.6367 26.7209C31.1367 26.7209 31.6367 27.7209 32.1367 28.2209L33.6367 29.7209C34.1367 30.2209 34.1367 30.7209 33.6367 31.2209C33.2367 31.6209 32.8034 32.7209 32.6367 33.2209C32.8034 33.5543 33.0367 34.2209 32.6367 34.2209C32.1367 34.2209 31.6367 35.2209 30.1367 35.7209C28.6367 36.2209 30.1367 38.2209 29.6367 39.7209C29.1367 41.2209 27.1367 40.2209 25.1367 39.7209C23.1367 39.2209 22.6367 38.7209 21.1367 38.7209C19.6367 38.7209 18.6367 39.7209 15.6367 39.7209C12.6367 39.7209 15.1367 38.2209 15.1367 36.2209C15.1367 34.2209 13.1367 34.2209 13.6367 33.2209C14.1367 32.2209 13.6367 31.7209 12.6367 31.2209C11.6367 30.7209 11.1367 31.2209 9.13638 30.7209C7.13604 30.2209 6.63672 30.2209 6.63672 29.2209C6.63672 28.2209 5.63627 28.2209 5.13627 27.2209C4.63627 26.2209 5.63627 24.7209 6.13627 24.2209C6.63627 23.7209 8.13638 21.2209 8.13638 20.2209C8.13638 19.2209 7.13638 18.7209 8.13638 17.7209C9.13638 16.7209 9.63638 16.7209 10.1364 16.2209C10.6364 15.7209 9.13638 14.2209 9.13638 13.2209C9.13638 12.2209 9.13638 10.7209 9.63638 9.22095C10.1364 7.72095 12.1364 10.2209 12.1364 9.72095C12.1364 9.22095 15.1364 7.22095 16.1364 6.72095C17.1364 6.22095 18.1364 8.22095 19.1364 9.22095C20.1364 10.2209 20.6364 9.72095 22.1364 9.72095C23.6364 9.72095 25.1364 6.72095 26.1364 5.22095C27.1364 3.72095 26.6364 3.72086 27.1364 3.22086C27.5364 2.82086 27.6364 3.05419 27.6364 3.22086L29.6364 4.22086C30.6364 4.72086 31.6364 4.72086 33.6364 5.22086C35.6364 5.72086 35.6364 5.22086 36.1364 5.72086C36.6364 6.22086 37.1364 7.22086 38.1364 7.72086Z" fill="#C1D4FE"/>
</svg>
