<svg width="44" height="44" viewBox="0 0 44 44" fill="none" xmlns="http://www.w3.org/2000/svg">
<path fill-rule="evenodd" clip-rule="evenodd" d="M14.9737 40.5528L14.7905 39.0868L16.0789 37.9224L15.9644 37.0958L16.2411 36.8801L16.4988 37.2086L18.4941 35.5503H18.8672L19.4089 35.0764V34.6618L19.1321 34.2949L19.3487 33.9864H19.5413L20.2876 33.0394V32.3406L21.0888 31.6929V31.2841L21.3658 31.1161H21.7496L23.3658 30.1532L23.8172 29.5849H24.2649L24.4461 29.8783L25.1815 29.1653H25.6608L26.1581 28.5108H26.9513L27.3545 25.5477H27.0184V25.0454H27.5831L27.8384 24.569H28.3358L29.0214 23.3127L29.3171 23.4849L29.1289 23.9346L29.2768 24.146L30.1774 23.8685L31.1453 22.863H31.6338L31.7928 22.4735L31.2496 22.2002L31.3489 21.1896L30.9789 20.6196L31.0468 20.2493L31.6684 19.5247L32.3371 20.0696H32.9326L33.2565 19.6793L33.3662 19.2831L33.0674 18.9128L34.1781 17.2913V16.9327L33.8278 16.6452L34.1927 15.1808L34.0029 14.8071V14.5196L34.5137 14.2187V13.7155L35.2435 13.2851L35.7835 12.6097V12.2754L35.2684 11.671V11.106H34.5614V10.8444L35.586 9.89656L36.1803 10.4206H36.4774L37 10.088L36.7745 9.85559H36.0471V9.64413L36.877 9.11002L36.3271 8.26665L36.1706 8.13293L36.408 7.69577V6.68775L36.0676 6.40773V5.18741L36.2346 4.90991V3.8325L36.1072 3.65029H35.3429L35.0435 3.88851V4.72852H34.7059L34.2028 5.25511V5.6187L34.3619 5.85692L34.2601 6.01907L33.3556 5.64963L33.2027 5.85692L32.9798 5.69393V5.24257L32.1709 4.3992L31.8416 4.58142L31.5363 4.02809L30.9419 3.64862V3H30.7169L30.2429 3.45888H29.8253L29.4878 4.20947L29.1906 4.35992L29.0621 5.34789L29.2709 6.10683L29.1466 6.30158L28.2632 6.40356L27.9379 7.30292L27.5622 7.50687L26.6986 7.6615L26.5879 7.85625V8.28756L25.7604 9.15767H25.2017L24.7701 9.37331V8.9696H24.0699L23.8789 9.12924L23.4758 8.75396L23.7517 8.41961L23.2921 8.00671H22.5695L22.1948 8.54165H21.3831L20.9549 8.44553L19.9558 9.25296L18.3804 8.20815L18.0217 8.45724L18.1554 8.74727V9.08662H17.8178V8.55419L17.3255 8.30511L16.7557 8.56087L16.6433 9.07325L16.1931 9.25296L15.9681 8.84423L14.3001 9.58228L13.9897 9.44268H13.7058L13.3155 10.001L12.5172 10.1866L12.1988 11.0275L12.3715 11.2682L11.069 13.3611L10.6437 13.6328V16.717L11.7549 17.4075V18.6161L11.3562 18.968L10.7019 19.2496L10.2726 19.4912L10.0784 19.8632L10.375 22.1158L11.3697 23.1689V24.1903L11.1878 24.9551L9.39118 26.4764L8.97164 27.1985L7.839 27.8388L7 28.7056V30.0471H7.73415L8.13264 30.7484V31.3477L8.59412 32.441L8.152 33.2626L8.50549 34.7253L8.10004 35.8403L9.00364 37.8012L9.2427 39.4152L9.91047 40.2344L9.80334 40.7534L10.0676 41L10.6167 40.4224H12.5409L13.3149 39.7044L13.8015 40.5528H14.9737Z" fill="#C1D4FE"/>
</svg>
