<svg width="85" height="15" viewBox="0 0 85 15" fill="none" xmlns="http://www.w3.org/2000/svg">
<path d="M71.4796 14.9982C75.1169 14.9982 78.0656 12.0495 78.0656 8.41217C78.0656 4.77482 75.1169 1.82617 71.4796 1.82617C67.8422 1.82617 64.8936 4.77482 64.8936 8.41217C64.8936 12.0495 67.8422 14.9982 71.4796 14.9982Z" fill="white"/>
<path d="M21.5 15C25.6421 15 29 11.6421 29 7.5C29 3.35786 25.6421 0 21.5 0C17.3579 0 14 3.35786 14 7.5C14 11.6421 17.3579 15 21.5 15Z" fill="#292929"/>
<path d="M21.4999 12.1913C24.0914 12.1913 26.1922 10.0904 26.1922 7.49895C26.1922 4.90746 24.0914 2.80664 21.4999 2.80664C18.9084 2.80664 16.8076 4.90746 16.8076 7.49895C16.8076 10.0904 18.9084 12.1913 21.4999 12.1913Z" fill="#C2C2C2"/>
<path d="M21.4997 11.6663C23.8009 11.6663 25.6663 9.80086 25.6663 7.49967C25.6663 5.19849 23.8009 3.33301 21.4997 3.33301C19.1985 3.33301 17.333 5.19849 17.333 7.49967C17.333 9.80086 19.1985 11.6663 21.4997 11.6663Z" fill="#656565"/>
<path d="M22.6378 7.5004C22.6369 7.72504 22.5695 7.9444 22.4441 8.13078C22.3187 8.31715 22.1409 8.46219 21.9331 8.54757C21.7253 8.63295 21.4969 8.65486 21.2766 8.61051C21.0564 8.56617 20.8542 8.45757 20.6957 8.29842C20.5371 8.13927 20.4293 7.93672 20.3858 7.71633C20.3423 7.49594 20.365 7.26759 20.4512 7.06013C20.5374 6.85266 20.6831 6.67538 20.8699 6.55066C21.0567 6.42594 21.2764 6.35938 21.501 6.35938C21.6506 6.35937 21.7988 6.38892 21.937 6.44631C22.0752 6.50371 22.2007 6.58782 22.3063 6.69383C22.4119 6.79984 22.4956 6.92566 22.5525 7.06407C22.6093 7.20248 22.6383 7.35076 22.6378 7.5004Z" fill="#C2C2C2"/>
<path d="M70.5 15C74.6421 15 78 11.6421 78 7.5C78 3.35786 74.6421 0 70.5 0C66.3579 0 63 3.35786 63 7.5C63 11.6421 66.3579 15 70.5 15Z" fill="#292929"/>
<path d="M70.4999 12.1913C73.0914 12.1913 75.1922 10.0904 75.1922 7.49895C75.1922 4.90746 73.0914 2.80664 70.4999 2.80664C67.9084 2.80664 65.8076 4.90746 65.8076 7.49895C65.8076 10.0904 67.9084 12.1913 70.4999 12.1913Z" fill="#C2C2C2"/>
<path d="M70.4997 11.6663C72.8009 11.6663 74.6663 9.80086 74.6663 7.49967C74.6663 5.19849 72.8009 3.33301 70.4997 3.33301C68.1985 3.33301 66.333 5.19849 66.333 7.49967C66.333 9.80086 68.1985 11.6663 70.4997 11.6663Z" fill="#656565"/>
<path d="M71.6378 7.5004C71.6369 7.72504 71.5695 7.9444 71.4441 8.13078C71.3187 8.31715 71.1409 8.46219 70.9331 8.54757C70.7253 8.63295 70.4969 8.65486 70.2766 8.61051C70.0564 8.56617 69.8542 8.45757 69.6957 8.29842C69.5371 8.13927 69.4293 7.93672 69.3858 7.71633C69.3423 7.49594 69.365 7.26759 69.4512 7.06013C69.5374 6.85266 69.6831 6.67538 69.8699 6.55066C70.0567 6.42594 70.2764 6.35938 70.501 6.35938C70.6506 6.35937 70.7988 6.38892 70.937 6.44631C71.0752 6.50371 71.2007 6.58782 71.3063 6.69383C71.4119 6.79984 71.4956 6.92566 71.5525 7.06407C71.6093 7.20248 71.6383 7.35076 71.6378 7.5004Z" fill="#C2C2C2"/>
</svg>
