<svg xmlns="http://www.w3.org/2000/svg" xmlns:xlink="http://www.w3.org/1999/xlink" viewBox="0 0 39.51 39.54"><defs><style>.cls-1{fill:none;}.cls-2{fill:#2d3d81;}.cls-11,.cls-12,.cls-13,.cls-14,.cls-15,.cls-16,.cls-17,.cls-2{fill-rule:evenodd;}.cls-3{clip-path:url(#clip-path);}.cls-4{fill:url(#Безымянный_градиент_91);}.cls-5{clip-path:url(#clip-path-2);}.cls-6{fill:url(#Безымянный_градиент_92);}.cls-7{clip-path:url(#clip-path-3);}.cls-8{fill:url(#Безымянный_градиент_89);}.cls-9{clip-path:url(#clip-path-4);}.cls-10{fill:url(#Безымянный_градиент_95);}.cls-11{fill:#cd5b1b;}.cls-12{fill:#fff;}.cls-13{fill:#5ba2ce;}.cls-14{fill:#cac8c8;}.cls-15{fill:#5f5d5c;}.cls-16{fill:#999695;}.cls-17{fill:#a2a09f;}.cls-18{clip-path:url(#clip-path-5);}.cls-19{fill:url(#Безымянный_градиент_91-2);}.cls-20{clip-path:url(#clip-path-6);}.cls-21{fill:url(#Безымянный_градиент_92-2);}.cls-22{clip-path:url(#clip-path-7);}.cls-23{fill:url(#Безымянный_градиент_95-2);}.cls-24{clip-path:url(#clip-path-8);}.cls-25{fill:url(#Безымянный_градиент_95-3);}.cls-26{clip-path:url(#clip-path-9);}.cls-27{fill:url(#Безымянный_градиент_95-4);}</style><clipPath id="clip-path"><path class="cls-1" d="M5,5A10,10,0,0,0,3.41,17.12L5.35,15.2A7.36,7.36,0,0,1,6.64,6.82c3-3.11,7.34-2.55,10.54-.05a3.74,3.74,0,0,0,4.44.51C19.17,4.75,16,2.56,12.46,2.23a8.64,8.64,0,0,0-.88,0A9.17,9.17,0,0,0,5,5"/></clipPath><linearGradient id="Безымянный_градиент_91" x1="-543.32" y1="228.68" x2="-542.32" y2="228.68" gradientTransform="matrix(0, 14.93, 19.59, 0, -4469.33, 8113.39)" gradientUnits="userSpaceOnUse"><stop offset="0" stop-color="#396435"/><stop offset="1" stop-color="#98bc39"/></linearGradient><clipPath id="clip-path-2"><path class="cls-1" d="M34.14,24.4a7.34,7.34,0,0,1-1.29,8.38c-3,3.11-7.33,2.56-10.53,0a3.74,3.74,0,0,0-4.45-.5c2.46,2.53,5.6,4.72,9.16,5a9.18,9.18,0,0,0,7.48-2.73,10,10,0,0,0,1.57-12.15L34.14,24.4"/></clipPath><linearGradient id="Безымянный_градиент_92" x1="-543.32" y1="228.68" x2="-542.32" y2="228.68" gradientTransform="matrix(14.88, 0, 0, -11.34, 8107.39, 2623.3)" gradientUnits="userSpaceOnUse"><stop offset="0" stop-color="#841f1b"/><stop offset="1" stop-color="#ad311e"/></linearGradient><clipPath id="clip-path-3"><path class="cls-1" d="M22.54,3.46c.64.65,1.28,1.29,1.91,1.94a7.34,7.34,0,0,1,8.38,1.29c3.12,3,2.56,7.33.05,10.54a3.76,3.76,0,0,0-.5,4.44c2.53-2.46,4.72-5.6,5-9.16A9.24,9.24,0,0,0,34.7,5,10,10,0,0,0,22.54,3.46"/></clipPath><linearGradient id="Безымянный_градиент_89" x1="-543.32" y1="228.68" x2="-542.32" y2="228.68" gradientTransform="matrix(0, 23.85, 14.92, 0, -3382.7, 12955.52)" gradientUnits="userSpaceOnUse"><stop offset="0" stop-color="#be371c"/><stop offset="1" stop-color="#ce5d1b"/></linearGradient><clipPath id="clip-path-4"><path class="cls-1" d="M2.07,27.09a9.22,9.22,0,0,0,2.72,7.48A10,10,0,0,0,17,36.15L15,34.2a7.34,7.34,0,0,1-8.38-1.29c-3.11-3-2.55-7.33,0-10.53a3.74,3.74,0,0,0,.5-4.45c-2.52,2.46-4.71,5.6-5,9.16"/></clipPath><linearGradient id="Безымянный_градиент_95" x1="-543.32" y1="228.68" x2="-542.32" y2="228.68" gradientTransform="matrix(0, 19.59, 14.93, 0, -3404.36, 10663.87)" gradientUnits="userSpaceOnUse"><stop offset="0" stop-color="#2d3d81"/><stop offset="1" stop-color="#17a4cc"/></linearGradient><clipPath id="clip-path-5"><path class="cls-1" d="M27.72,31.75A1.3,1.3,0,1,0,29,30.43a1.3,1.3,0,0,0-1.3,1.32"/></clipPath><linearGradient id="Безымянный_градиент_91-2" x1="-543.32" y1="228.68" x2="-542.32" y2="228.68" gradientTransform="matrix(0, 2.64, 2.58, 0, -561.69, 1462.17)" xlink:href="#Безымянный_градиент_91"/><clipPath id="clip-path-6"><path class="cls-1" d="M8.07,9.31A1.29,1.29,0,1,0,9.36,8,1.3,1.3,0,0,0,8.07,9.31"/></clipPath><linearGradient id="Безымянный_градиент_92-2" x1="-543.32" y1="228.68" x2="-542.32" y2="228.68" gradientTransform="matrix(0, -1.37, -1.34, 0, 316.41, -734.23)" xlink:href="#Безымянный_градиент_92"/><clipPath id="clip-path-7"><rect class="cls-1" x="29.95" y="7.75" width="1.39" height="8.68"/></clipPath><linearGradient id="Безымянный_градиент_95-2" x1="-543.32" y1="228.68" x2="-542.32" y2="228.68" gradientTransform="matrix(1.38, 0, 0, -8.67, 782.18, 1995.74)" xlink:href="#Безымянный_градиент_95"/><clipPath id="clip-path-8"><rect class="cls-1" x="28.2" y="11.81" width="1.18" height="4.62"/></clipPath><linearGradient id="Безымянный_градиент_95-3" x1="-543.32" y1="228.68" x2="-542.32" y2="228.68" gradientTransform="matrix(1.18, 0, 0, -4.61, 671.78, 1069.34)" xlink:href="#Безымянный_градиент_95"/><clipPath id="clip-path-9"><rect class="cls-1" x="26.51" y="13.01" width="1.19" height="3.41"/></clipPath><linearGradient id="Безымянный_градиент_95-4" x1="-543.32" y1="228.68" x2="-542.32" y2="228.68" gradientTransform="matrix(3.3, 0, 0, -3.42, 1816.18, 796.6)" xlink:href="#Безымянный_градиент_95"/></defs><title>it-qu</title><g id="Слой_2" data-name="Слой 2"><g id="Слой_1-2" data-name="Слой 1"><path class="cls-2" d="M1.76,18.59a12.37,12.37,0,0,1,2-15A11.58,11.58,0,0,1,13.11.11c4.54.42,8.6,4.32,11.67,7.4a.23.23,0,0,1,0,.31.22.22,0,0,1-.31,0c-3-3-7-6.86-11.4-7.27a11.18,11.18,0,0,0-9,3.3A11.93,11.93,0,0,0,2.14,18.37a.22.22,0,0,1-.08.3.22.22,0,0,1-.3-.08"/><path class="cls-2" d="M37.81,20.94a12.39,12.39,0,0,1-2,15.06,11.61,11.61,0,0,1-9.4,3.43C21.92,39,17.85,35.11,14.79,32a.21.21,0,0,1,0-.31.22.22,0,0,1,.31,0c3,3,7,6.86,11.4,7.26a11.16,11.16,0,0,0,9-3.3,12,12,0,0,0,1.88-14.53.22.22,0,0,1,.08-.3.24.24,0,0,1,.3.08"/><path class="cls-2" d="M21.36,1.43a12.38,12.38,0,0,1,15,2.64,11.6,11.6,0,0,1,3,9.55c-.63,4.52-4.71,8.4-7.93,11.31a.22.22,0,1,1-.29-.32c3.12-2.83,7.18-6.67,7.79-11A11.22,11.22,0,0,0,36,4.36,11.94,11.94,0,0,0,21.56,1.82a.22.22,0,0,1-.29-.1.21.21,0,0,1,.09-.29"/><path class="cls-2" d="M18.06,38.11a12.39,12.39,0,0,1-15-2.64,11.63,11.63,0,0,1-3-9.55C.74,21.4,4.83,17.52,8,14.6a.22.22,0,0,1,.31,0,.21.21,0,0,1,0,.31C5.22,17.76,1.16,21.59.55,26a11.16,11.16,0,0,0,2.88,9.19,11.94,11.94,0,0,0,14.42,2.55.23.23,0,0,1,.3.1.23.23,0,0,1-.09.29"/><g class="cls-3"><rect class="cls-4" x="1.13" y="2.19" width="20.49" height="14.93"/></g><g class="cls-5"><rect class="cls-6" x="17.87" y="22.49" width="20.49" height="15.15"/></g><g class="cls-7"><rect class="cls-8" x="22.54" y="2.08" width="15.15" height="19.59"/></g><g class="cls-9"><rect class="cls-10" x="1.81" y="17.93" width="15.15" height="20.49"/></g><path class="cls-11" d="M19.66,26.72a5.77,5.77,0,1,0-5.77,5.89,5.82,5.82,0,0,0,5.77-5.89"/><path class="cls-12" d="M12.88,25.5l-.2.21a1.55,1.55,0,0,0-.27-.1,3.13,3.13,0,0,0-.22.36l.22.2a1.38,1.38,0,0,0-.07.28l-.29,0v.44l.15,0,.12,0s0,.09,0,.15a1,1,0,0,1,0,.14c0,.05-.18.13-.22.18l.21.37a1.71,1.71,0,0,0,.27-.09l0,0a1.07,1.07,0,0,0,.19.18l-.1.26a2,2,0,0,0,.37.22l.18-.2a.37.37,0,0,1,.14,0l.15,0,.05.27s.34,0,.43,0,0-.26.07-.28h.06l.21-.06a1.84,1.84,0,0,1,.17.22l.38-.22c0-.08-.09-.2-.09-.28a2,2,0,0,0,.21-.2l.26.1a1.42,1.42,0,0,0,.11-.18l.11-.19a.91.91,0,0,0-.21-.18,2,2,0,0,1,.08-.29,1.78,1.78,0,0,1,.28-.05v-.44l-.28-.05-.08-.28c.07-.07.16-.12.22-.19s-.17-.29-.21-.37l-.28.09-.21-.2c0-.08.1-.2.11-.28s-.3-.18-.38-.21l-.18.23-.14,0a.32.32,0,0,0-.14,0l0-.25s0-.06,0-.06h-.39s0,0,0,.07l0,.25c-.07,0-.21,0-.28.06l-.09-.12s-.06-.1-.09-.11a.24.24,0,0,0-.1.05l-.19.11-.09.05Zm-1.19,1.19a2.2,2.2,0,1,1,4.4.08,2.25,2.25,0,0,1-.67,1.53,2.2,2.2,0,0,1-3.73-1.61"/><path class="cls-12" d="M11.9,24.32s-.38.38-.4.4-.48-.2-.52-.2a4.71,4.71,0,0,0-.44.73l.43.37c0,.08-.11.32-.15.56l-.57.09v.86l.31.06.21,0c.06,0,.06.17.1.3s0,.18.07.26-.37.28-.43.36l.42.74c.13,0,.36-.14.53-.18l.06.06a2.38,2.38,0,0,0,.36.35l-.2.52a5.48,5.48,0,0,0,.74.43l.36-.4a2.76,2.76,0,0,1,.27.08l.3.06.09.53c.07.05.66,0,.86,0,0-.12,0-.52.14-.56l.1,0c.19,0,.27-.08.43-.12.12.14.23.29.34.43l.73-.42c0-.15-.16-.4-.16-.55a5.09,5.09,0,0,0,.41-.4l.51.19a2.27,2.27,0,0,0,.22-.36,3.25,3.25,0,0,0,.21-.37,2.44,2.44,0,0,0-.42-.35c0-.05.15-.57.16-.57a2.58,2.58,0,0,1,.55-.1v-.86c-.08,0-.53-.09-.54-.11l-.17-.56a5.2,5.2,0,0,0,.44-.35c0-.11-.33-.58-.42-.75l-.54.19c-.14-.12-.26-.27-.41-.39,0-.16.19-.41.2-.57-.08,0-.58-.34-.74-.41l-.37.45a1,1,0,0,1-.26-.08,1.27,1.27,0,0,0-.28-.06l-.08-.49c0-.06,0-.11-.06-.11h-.78c-.07,0-.06.07-.07.14l-.08.48c-.14-.06-.42.09-.55.12l-.17-.24a2.13,2.13,0,0,0-.18-.22,1.28,1.28,0,0,0-.2.11l-.38.21-.18.11Zm-.57,2.36a2.57,2.57,0,1,1,5.13.1,2.6,2.6,0,0,1-.79,1.78,2.56,2.56,0,0,1-4.34-1.88"/><path class="cls-13" d="M25.18,16.69a7.58,7.58,0,1,0-7.57,7.73,7.65,7.65,0,0,0,7.57-7.73"/><path class="cls-12" d="M14.24,13.15h7.14a.69.69,0,0,1,.69.69v3.49a.69.69,0,0,1-.69.69H14.24a.69.69,0,0,1-.69-.69V13.84a.69.69,0,0,1,.69-.69m-.58-.88H22a.94.94,0,0,1,.94.93V18a.94.94,0,0,1-.94.93H13.66a.93.93,0,0,1-.93-.93V13.2a.93.93,0,0,1,.93-.93"/><path class="cls-12" d="M12.92,20.87h9.77a.2.2,0,0,0,.2-.19v-1a.2.2,0,0,0-.2-.2H12.92a.2.2,0,0,0-.19.2v1a.2.2,0,0,0,.19.19"/><path class="cls-12" d="M20.56,17.11l-.47.29.25.4.13-.08.11.17h0l.18-.11.27.41.16-.11.23.35.18-.11.22.35.18-.11a3.66,3.66,0,0,1,.26.41l1.51-1-.21-.35.17-.11L23.4,17l.17-.11-.86-1.35-.18.11-.1-.17a.58.58,0,0,0-.18.11c.05.08.31.46.33.53a.64.64,0,0,1-.18.1L22,15.55l-.35.22.34.54-.18.11-.46-.71-.28.18.44.7a.81.81,0,0,1-.18.12s-.48-.75-.54-.85-.45-.73-.54-.85l-.35.23,1.49,2.34-.17.11-.32-.5-.17.11Z"/><path class="cls-14" d="M23.56,17.66l.21.35-1.51,1a3.66,3.66,0,0,0-.26-.41l.26.42,1.52-1Z"/><path class="cls-15" d="M21.61,15.77v0l.32.51-.16.11-.45-.71h0l.46.71.18-.11Z"/><path class="cls-16" d="M21,18.2l-.27-.41-.18.11h0l-.11-.17-.13.08-.24-.4s0,0,0,0l.24.38.13-.08.11.18.18-.11.23.36v0s0,0,0,0"/><path class="cls-17" d="M22.4,16.24a.64.64,0,0,0,.18-.1,4.53,4.53,0,0,0-.33-.53.58.58,0,0,1,.18-.11h0l-.15.1.34.53Z"/><path class="cls-2" d="M30,24.6a4.88,4.88,0,1,0-4.88,5,4.93,4.93,0,0,0,4.88-5"/><g class="cls-18"><rect class="cls-19" x="27.72" y="30.43" width="2.58" height="2.64"/></g><g class="cls-20"><rect class="cls-21" x="8.07" y="8" width="2.58" height="2.63"/></g><path class="cls-12" d="M28.29,25.68a.94.94,0,0,0,0-.44l0-.1a.83.83,0,0,0-.09-.16.77.77,0,0,0-.4-.31c-.12-.05-.25-.08-.25-.25v-.05a.88.88,0,0,0-.11-.57,1,1,0,0,0-.66-.47.85.85,0,0,0-.5,0,1.58,1.58,0,0,0-.39.24l-.2.14-.11-.22a.82.82,0,0,0-.12-.2,1.36,1.36,0,0,0-2.39,1.1v.17l-.17,0a.81.81,0,0,0-.59.5l0,.1a.93.93,0,0,0,0,.44,1.63,1.63,0,0,0,.09.19.79.79,0,0,0,.54.38,5.54,5.54,0,0,0,.71,0H27a1.75,1.75,0,0,0,1-.13l.09-.08a.87.87,0,0,0,.25-.38m-6.45.67,0,0,0,0c0-.09-.09-.15-.13-.24a1.56,1.56,0,0,1-.12-.67,2.11,2.11,0,0,1,0-.25,1.65,1.65,0,0,1,.44-.78h0l.19-.15h0l.11-.07v-.06a1.83,1.83,0,0,1,.05-.4h0A2.46,2.46,0,0,1,22.7,23l.09-.11A1.75,1.75,0,0,1,23,22.6a1.93,1.93,0,0,1,.49-.31,2.06,2.06,0,0,1,1.75,0,2.12,2.12,0,0,1,.62.48l.14-.07a1.73,1.73,0,0,1,.31-.07,1.06,1.06,0,0,1,.25,0,1.6,1.6,0,0,1,.89.26l.19.13a2.73,2.73,0,0,1,.23.25l.08.11a1.78,1.78,0,0,1,.25.64.28.28,0,0,0,0,.09l.23.16h0l.18.18h0a.43.43,0,0,1,0,.07,1.31,1.31,0,0,1,.31.87,1.56,1.56,0,0,1-.13.68l-.06.12a1.49,1.49,0,0,1-.34.41A1.69,1.69,0,0,1,27.2,27H23.34a2,2,0,0,1-.93-.14,1.55,1.55,0,0,1-.57-.47"/><g class="cls-22"><rect class="cls-23" x="29.95" y="7.75" width="1.39" height="8.68"/></g><g class="cls-24"><rect class="cls-25" x="28.2" y="11.81" width="1.18" height="4.62"/></g><g class="cls-26"><rect class="cls-27" x="26.51" y="13.02" width="1.19" height="3.41"/></g></g></g></svg>