<svg xmlns="http://www.w3.org/2000/svg" xmlns:xlink="http://www.w3.org/1999/xlink" viewBox="0 0 39.83 39.85"><defs><style>.cls-1{fill:none;}.cls-2{fill:#3c3a38;}.cls-11,.cls-2{fill-rule:evenodd;}.cls-3{clip-path:url(#clip-path);}.cls-4{fill:url(#Безымянный_градиент_101);}.cls-5{clip-path:url(#clip-path-2);}.cls-6{fill:url(#Безымянный_градиент_101-2);}.cls-7{clip-path:url(#clip-path-3);}.cls-8{fill:url(#Безымянный_градиент_101-3);}.cls-9{clip-path:url(#clip-path-4);}.cls-10{fill:url(#Безымянный_градиент_101-4);}.cls-11{fill:#212740;}.cls-12{clip-path:url(#clip-path-5);}.cls-13{fill:url(#Безымянный_градиент_100);}.cls-14{clip-path:url(#clip-path-6);}.cls-15{fill:url(#Безымянный_градиент_101-5);}</style><clipPath id="clip-path"><path class="cls-1" d="M5,5A10.05,10.05,0,0,0,3.44,17.25l2-1.92A7.38,7.38,0,0,1,6.7,6.88c3-3.14,7.39-2.58,10.62,0a3.77,3.77,0,0,0,4.47.51c-2.47-2.55-5.64-4.76-9.23-5.09a8.83,8.83,0,0,0-.89,0A9.3,9.3,0,0,0,5,5"/></clipPath><linearGradient id="Безымянный_градиент_101" x1="-260.08" y1="340.33" x2="-259.08" y2="340.33" gradientTransform="matrix(0, 24.42, 19.75, 0, -6708.69, 6349.81)" gradientUnits="userSpaceOnUse"><stop offset="0" stop-color="#2e4572"/><stop offset="1" stop-color="#a9ceb8"/></linearGradient><clipPath id="clip-path-2"><path class="cls-1" d="M34.41,24.6A7.39,7.39,0,0,1,33.11,33c-3,3.14-7.39,2.58-10.62.06A3.76,3.76,0,0,0,18,32.59c2.48,2.55,5.65,4.75,9.23,5.08a9.26,9.26,0,0,0,7.54-2.75,10.06,10.06,0,0,0,1.59-12.25l-2,1.93"/></clipPath><linearGradient id="Безымянный_градиент_101-2" x1="-260.08" y1="340.33" x2="-259.08" y2="340.33" gradientTransform="matrix(0, 24.41, 19.73, 0, -6688.02, 6366.69)" xlink:href="#Безымянный_градиент_101"/><clipPath id="clip-path-3"><path class="cls-1" d="M22.72,3.49l1.93,2a7.4,7.4,0,0,1,8.45,1.3c3.13,3,2.57,7.39,0,10.62a3.77,3.77,0,0,0-.51,4.48c2.55-2.47,4.75-5.64,5.08-9.23A9.27,9.27,0,0,0,35,5.07,10,10,0,0,0,22.72,3.49"/></clipPath><linearGradient id="Безымянный_градиент_101-3" x1="-260.08" y1="340.33" x2="-259.08" y2="340.33" gradientTransform="matrix(0, 25.53, 15.04, 0, -5089.6, 6639.66)" xlink:href="#Безымянный_градиент_101"/><clipPath id="clip-path-4"><path class="cls-1" d="M2.08,27.31a9.3,9.3,0,0,0,2.75,7.54,10.06,10.06,0,0,0,12.26,1.58l-1.93-2a7.4,7.4,0,0,1-8.45-1.3c-3.14-3.05-2.57-7.4,0-10.62a3.77,3.77,0,0,0,.51-4.48c-2.55,2.48-4.75,5.64-5.09,9.23"/></clipPath><linearGradient id="Безымянный_градиент_101-4" x1="-260.08" y1="340.33" x2="-259.08" y2="340.33" gradientTransform="matrix(0, 25.53, 15.04, 0, -5110.09, 6655.11)" xlink:href="#Безымянный_градиент_101"/><clipPath id="clip-path-5"><path class="cls-1" d="M13.77,14.21a2.38,2.38,0,0,0-2,1.91,20.77,20.77,0,0,0-1.55,7.23,3.59,3.59,0,0,0,2.2,2.76,18.54,18.54,0,0,1,10.34.55c.4.24,1.67-.12,3.88-1.14a1.88,1.88,0,0,0,1.08-2.34,55.52,55.52,0,0,0-2.32-7.83,1.93,1.93,0,0,0-1.76-1.23,29.82,29.82,0,0,0-9.9.09"/></clipPath><linearGradient id="Безымянный_градиент_100" x1="-260.08" y1="340.33" x2="-259.08" y2="340.33" gradientTransform="matrix(0, 18.89, 19.06, 0, -6466.56, 4924.5)" gradientUnits="userSpaceOnUse"><stop offset="0" stop-color="#545150"/><stop offset="0.21" stop-color="#fff"/><stop offset="0.41" stop-color="#d4d2d2"/><stop offset="0.58" stop-color="#545150"/><stop offset="0.79" stop-color="#ececed"/><stop offset="0.95" stop-color="#545150"/><stop offset="1" stop-color="#fff"/></linearGradient><clipPath id="clip-path-6"><path class="cls-1" d="M13.43,14.69a1,1,0,0,0-.95.94,23.54,23.54,0,0,0-2,7c-.21,1.14.67,2.31,2.21,3.51a18.23,18.23,0,0,1,10.08.54l3.1-1.8c1.65-1.25-.28-5.15-1.17-9.27a1.25,1.25,0,0,0-1.08-.95,21.85,21.85,0,0,0-10.21,0"/></clipPath><linearGradient id="Безымянный_градиент_101-5" x1="-260.08" y1="340.33" x2="-259.08" y2="340.33" gradientTransform="matrix(0, 12.6, 16.06, 0, -5446.35, 3290.35)" xlink:href="#Безымянный_градиент_101"/></defs><title>vr-qu</title><g id="Слой_2" data-name="Слой 2"><g id="Слой_1-2" data-name="Слой 1"><path class="cls-2" d="M1.77,18.74a12.47,12.47,0,0,1,2-15.17A11.67,11.67,0,0,1,13.21.11C17.79.53,21.89,4.46,25,7.57a.21.21,0,0,1,0,.31.22.22,0,0,1-.31,0c-3-3-7-6.91-11.49-7.32A11.27,11.27,0,0,0,4.05,3.87a12,12,0,0,0-1.9,14.65.21.21,0,0,1-.08.3.22.22,0,0,1-.3-.08"/><path class="cls-2" d="M38.1,21.11a12.47,12.47,0,0,1-2,15.18,11.7,11.7,0,0,1-9.47,3.45c-4.58-.42-8.68-4.35-11.77-7.45a.23.23,0,0,1,0-.32.22.22,0,0,1,.31,0c3,3,7,6.92,11.49,7.33A11.29,11.29,0,0,0,35.83,36a12,12,0,0,0,1.89-14.65.23.23,0,0,1,.09-.3.21.21,0,0,1,.29.08"/><path class="cls-2" d="M21.53,1.44A12.48,12.48,0,0,1,36.6,4.1a11.71,11.71,0,0,1,3,9.63c-.63,4.55-4.75,8.47-8,11.4a.22.22,0,1,1-.3-.32c3.15-2.86,7.24-6.72,7.86-11.14a11.3,11.3,0,0,0-2.9-9.27A12,12,0,0,0,21.73,1.83a.23.23,0,0,1-.3-.09.23.23,0,0,1,.1-.3"/><path class="cls-2" d="M18.2,38.42A12.48,12.48,0,0,1,3.13,35.75a11.68,11.68,0,0,1-3-9.62c.63-4.56,4.75-8.47,8-11.41a.22.22,0,1,1,.29.33C5.26,17.9,1.17,21.77.55,26.19a11.28,11.28,0,0,0,2.9,9.26A12,12,0,0,0,18,38a.23.23,0,0,1,.3.1.22.22,0,0,1-.09.3"/><g class="cls-3"><rect class="cls-4" x="1.14" y="2.21" width="20.66" height="15.05"/></g><g class="cls-5"><rect class="cls-6" x="18.01" y="22.67" width="20.66" height="15.27"/></g><g class="cls-7"><rect class="cls-8" x="22.72" y="2.09" width="15.27" height="19.75"/></g><g class="cls-9"><rect class="cls-10" x="1.82" y="18.08" width="15.27" height="20.66"/></g><path class="cls-11" d="M7.39,8.93a1.2,1.2,0,1,0,2.39,0,1.2,1.2,0,1,0-2.39,0"/><path class="cls-11" d="M32.54,8.93a1.2,1.2,0,1,1-2.39,0,1.2,1.2,0,1,1,2.39,0"/><path class="cls-11" d="M30.15,30.25A1.2,1.2,0,1,0,31.35,29a1.2,1.2,0,0,0-1.2,1.22"/><path class="cls-11" d="M9.78,30.25A1.2,1.2,0,1,1,8.58,29a1.21,1.21,0,0,1,1.2,1.22"/><path class="cls-2" d="M30.48,22.7,29.17,16a2.71,2.71,0,0,0-2.51-2.16,46,46,0,0,0-14,0c-.93.28-1.47,1.2-1.8,2.43a22.05,22.05,0,0,0-.58,8.55,3.1,3.1,0,0,0,2.52,2.12,20.09,20.09,0,0,1,10.52.63l4.73-.77c1.37-.37,2.14-1.8,2.43-4.09"/><g class="cls-12"><rect class="cls-13" x="8.46" y="10.95" width="21.34" height="18.75" transform="translate(-6.13 8.44) rotate(-21.54)"/></g><g class="cls-14"><rect class="cls-15" x="10.29" y="14.06" width="17.24" height="12.6"/></g></g></g></svg>