<svg width="85" height="60" viewBox="0 0 85 60" fill="none" xmlns="http://www.w3.org/2000/svg">
<g clip-path="url(#clip0)">
<path d="M76.1312 24.582L81.8975 36.0311V53.598H42.507H30.282L27.645 48.6886H15.1191L12.7019 53.598H3.11647V36.0311L6.17541 24.582H76.1312Z" fill="#0033A1"/>
<path d="M6.17445 24.582H76.1302L81.7646 35.7674H3.18583L6.17445 24.582Z" fill="white"/>
<g opacity="0.2">
<path opacity="0.2" d="M31.7588 36.295H3.11635V36.0313L3.18667 35.7676H31.7588V36.295Z" fill="black"/>
<path opacity="0.2" d="M73.1821 50.4951V50.2358C73.1798 48.7636 72.5936 47.3524 71.5522 46.3117C70.5107 45.2711 69.099 44.686 67.6268 44.6849H58.8367V36.2948H57.1139V52.2048H31.7677V51.6774H56.5777V36.2948H32.2599V35.7674H56.5777V25.4214H31.7589V24.8984H57.1051V35.7674H58.8279V24.8984H73.5996L78.7199 34.6862L78.7506 34.7433V35.7674H81.7656L81.8975 36.0311V36.2948H78.7506V50.4951H73.1821ZM78.2276 34.8708L73.2832 25.4214H59.3509V35.7674H78.2276V34.8708ZM78.2276 36.2948H59.329V44.1575H67.6268C69.1928 44.1593 70.6978 44.7646 71.8291 45.8475C72.9603 46.9304 73.6306 48.4077 73.7007 49.9721H78.2276V36.2948Z" fill="black"/>
</g>
<path d="M76.1309 24.582L75.8012 24.1029C75.1487 23.146 74.2723 22.3631 73.2481 21.8224C72.224 21.2816 71.0832 20.9993 69.9251 21H12.3501C11.096 21.0003 9.86413 21.3317 8.7791 21.9607C7.69407 22.5896 6.79429 23.4938 6.1707 24.582H76.1309Z" fill="#E3E3E3"/>
<path d="M76.751 34.6772H61.7815C61.4184 34.6524 61.0798 34.4851 60.8395 34.2118C60.5991 33.9385 60.4764 33.5814 60.4981 33.2181V27.7023C60.4764 27.339 60.5991 26.9819 60.8395 26.7086C61.0798 26.4353 61.4184 26.268 61.7815 26.2432H71.9648C72.2035 26.2505 72.4348 26.3271 72.6307 26.4637C72.8266 26.6003 72.9785 26.7909 73.0679 27.0123L76.751 34.6772Z" fill="#424242"/>
<path d="M76.4213 25.1572H74.4699L79.5374 34.8087H81.2822L76.4213 25.1572Z" fill="#424242"/>
<path d="M15.1319 45.4277H27.6709V48.7724H15.1319V45.4277Z" fill="#0033A1"/>
<path opacity="0.2" d="M25.2676 45.8848H15.9193" stroke="black" stroke-width="2.39" stroke-miterlimit="10" stroke-linecap="round"/>
<path opacity="0.2" d="M25.2676 43.9814H15.9193" stroke="black" stroke-width="2.39" stroke-miterlimit="10" stroke-linecap="round"/>
<path opacity="0.2" d="M25.2676 42.083H15.9193" stroke="black" stroke-width="2.39" stroke-miterlimit="10" stroke-linecap="round"/>
<path opacity="0.2" d="M60.8321 40.9668L63.1307 40.9668C63.6401 40.9668 64.1286 40.7644 64.4888 40.4043C64.849 40.0441 65.0513 39.5555 65.0513 39.0462V38.0001C65.0513 37.9116 65.0161 37.8266 64.9535 37.764C64.8908 37.7013 64.8059 37.6661 64.7173 37.6661H60.8321C60.7435 37.6661 60.6585 37.7013 60.5959 37.764C60.5332 37.8266 60.498 37.9116 60.498 38.0001V40.6372C60.4992 40.725 60.5349 40.8088 60.5974 40.8705C60.6599 40.9322 60.7442 40.9668 60.8321 40.9668Z" fill="black"/>
<path d="M82.5871 48.7715H82.1784C81.5435 48.7715 80.9148 48.8965 80.3283 49.1395C79.7417 49.3825 79.2088 49.7386 78.7598 50.1875C78.3109 50.6364 77.9548 51.1694 77.7118 51.7559C77.4689 52.3425 77.3438 52.9711 77.3438 53.606H82.5871C82.9047 53.606 83.2192 53.5433 83.5125 53.4215C83.8058 53.2997 84.0722 53.1212 84.2964 52.8962C84.5206 52.6712 84.6981 52.4042 84.8188 52.1104C84.9396 51.8167 85.0011 51.502 85 51.1844C85 50.5444 84.7458 49.9307 84.2933 49.4782C83.8408 49.0257 83.227 48.7715 82.5871 48.7715Z" fill="#C2C2C2"/>
<path d="M2.40386 48.7715H5.65179C6.93399 48.7715 8.16367 49.2808 9.07032 50.1875C9.97697 51.0941 10.4863 52.3238 10.4863 53.606H2.41264C1.77271 53.606 1.15899 53.3518 0.706484 52.8993C0.253983 52.4468 -0.000224726 51.8331 -0.000224726 51.1931V51.1931C-0.00138116 50.8763 0.0598828 50.5623 0.180074 50.2691C0.300265 49.9759 0.477027 49.7093 0.700267 49.4844C0.923508 49.2595 1.18885 49.0808 1.48115 48.9585C1.77346 48.8362 2.087 48.7726 2.40386 48.7715V48.7715Z" fill="#C2C2C2"/>
<path d="M82.2714 43.9205V39.2441C82.403 39.2441 82.5333 39.2701 82.6548 39.3204C82.7764 39.3708 82.8869 39.4446 82.9799 39.5376C83.073 39.6307 83.1468 39.7412 83.1972 39.8627C83.2475 39.9843 83.2734 40.1146 83.2734 40.2462V42.914C83.2734 43.1802 83.168 43.4355 82.9802 43.6241C82.7924 43.8127 82.5375 43.9193 82.2714 43.9205V43.9205Z" fill="white"/>
<path d="M81.8969 38.8701H82.6396V44.2892H81.8969V38.8701Z" fill="#C2C2C2"/>
<path d="M81.8969 45.5986H82.6396V47.6951H81.8969V45.5986Z" fill="#C2C2C2"/>
<path d="M83.0839 47.4142H82.6444V45.8848H83.0839C83.2867 45.8848 83.4812 45.9653 83.6246 46.1088C83.7681 46.2522 83.8486 46.4467 83.8486 46.6495V46.6495C83.8486 46.8523 83.7681 47.0468 83.6246 47.1903C83.4812 47.3337 83.2867 47.4142 83.0839 47.4142V47.4142Z" fill="#E9662C"/>
<path d="M9.43563 26.2432H28.9584C29.5822 26.2432 30.0879 26.7489 30.0879 27.3727V33.5477C30.0879 34.1715 29.5822 34.6772 28.9584 34.6772H9.43563C8.81181 34.6772 8.3061 34.1715 8.3061 33.5477V27.3727C8.3061 26.7489 8.81181 26.2432 9.43563 26.2432Z" fill="#424242"/>
<path opacity="0.1" d="M71.6345 26.2432H71.9642C72.2028 26.2505 72.4342 26.3271 72.6301 26.4637C72.826 26.6003 72.9779 26.7909 73.0673 27.0123L73.6826 28.2956L71.6345 26.2432Z" fill="white"/>
<path opacity="0.1" d="M76.0385 25.1572H76.4209L76.8076 25.922L76.0385 25.1572Z" fill="white"/>
<path opacity="0.2" d="M81.8969 45.5986H82.6396V46.1568H81.8969V45.5986Z" fill="white"/>
<path opacity="0.2" d="M81.8969 38.8701H82.6396V40.3073H81.8969V38.8701Z" fill="white"/>
<path d="M3.11555 42.083H4.62305V48.091H3.11555V42.083Z" fill="#B5292A"/>
<path d="M3.11555 42.083H4.62305V43.9817H3.11555V42.083Z" fill="#DCA700"/>
<path d="M32.2951 25.4219H56.5908V51.669H32.2951V25.4219Z" fill="#0033A1"/>
<path d="M32.2951 25.4219H56.5908V35.7678H32.2951V25.4219Z" fill="white"/>
<path d="M34.795 26.2432H54.3177C54.9416 26.2432 55.4473 26.7489 55.4473 27.3727V33.5477C55.4473 34.1715 54.9416 34.6772 54.3177 34.6772H34.795C34.1712 34.6772 33.6655 34.1715 33.6655 33.5477V27.3727C33.6655 26.7489 34.1712 26.2432 34.795 26.2432Z" fill="#424242"/>
<g opacity="0.2">
<path opacity="0.2" d="M31.768 25.4219H32.291V51.669H31.768V25.4219Z" fill="black"/>
</g>
</g>
<defs>
<clipPath id="clip0">
<rect width="85" height="60" fill="white"/>
</clipPath>
</defs>
</svg>
