<svg xmlns="http://www.w3.org/2000/svg" xmlns:xlink="http://www.w3.org/1999/xlink" viewBox="0 0 39.91 39.93"><defs><style>.cls-1{fill:none;}.cls-2{fill:#ce5d1b;}.cls-11,.cls-2,.cls-3,.cls-4,.cls-5,.cls-6,.cls-7{fill-rule:evenodd;}.cls-3{fill:#5b903f;}.cls-4{fill:#8394ca;}.cls-5{fill:#f4d510;}.cls-6{fill:#2d3d81;}.cls-12,.cls-7{fill:#fff;}.cls-8{opacity:0.58;}.cls-9{clip-path:url(#clip-path);}.cls-10{clip-path:url(#clip-path-2);}.cls-11{fill:#ececed;}</style><clipPath id="clip-path"><rect class="cls-1" x="15.03" y="13.65" width="10.29" height="10.29"/></clipPath><clipPath id="clip-path-2"><rect class="cls-1" x="15.03" y="13.65" width="10.29" height="10.29"/></clipPath></defs><title>geo-qu</title><g id="Слой_2" data-name="Слой 2"><g id="Слой_1-2" data-name="Слой 1"><path class="cls-2" d="M18.05,32.65c2.48,2.56,5.66,4.77,9.25,5.1A9.29,9.29,0,0,0,34.85,35a10.06,10.06,0,0,0,1.59-12.27l-2,1.92a7.41,7.41,0,0,1-1.3,8.47c-3.05,3.14-7.41,2.58-10.64,0a3.79,3.79,0,0,0-4.49-.51"/><path class="cls-3" d="M32.71,21.89c2.55-2.48,4.76-5.66,5.09-9.26a9.3,9.3,0,0,0-2.75-7.55A10.1,10.1,0,0,0,22.77,3.49l1.93,2a7.38,7.38,0,0,1,8.46,1.3c3.15,3.05,2.58,7.4.05,10.64a3.79,3.79,0,0,0-.5,4.49"/><path class="cls-4" d="M7.19,18.12c-2.56,2.48-4.77,5.65-5.1,9.24a9.32,9.32,0,0,0,2.76,7.56A10.07,10.07,0,0,0,17.12,36.5l-1.93-2a7.4,7.4,0,0,1-8.46-1.31c-3.15-3.05-2.58-7.4-.05-10.64a3.79,3.79,0,0,0,.51-4.48"/><path class="cls-5" d="M20.17,22.82a3.51,3.51,0,1,1,3.58-3.51,3.54,3.54,0,0,1-3.58,3.51"/><path class="cls-4" d="M32.84,9.24a2,2,0,1,1-2-2,2,2,0,0,1,2,2"/><path class="cls-3" d="M11.5,30.46a1.95,1.95,0,1,1-1.94-2,2,2,0,0,1,1.94,2"/><path class="cls-2" d="M8.13,9.52a2.15,2.15,0,1,1,2.14,2.19A2.16,2.16,0,0,1,8.13,9.52"/><path class="cls-6" d="M1.78,18.78a12.5,12.5,0,0,1,2-15.21A11.73,11.73,0,0,1,13.24.11C17.82.54,21.93,4.47,25,7.58a.22.22,0,1,1-.31.31c-3-3-7.06-6.93-11.51-7.34A11.28,11.28,0,0,0,4.06,3.88a12.06,12.06,0,0,0-1.9,14.68.23.23,0,0,1-.08.3.21.21,0,0,1-.3-.08"/><path class="cls-6" d="M38.18,21.15a12.5,12.5,0,0,1-2,15.21,11.73,11.73,0,0,1-9.5,3.46c-4.58-.42-8.69-4.36-11.78-7.47a.21.21,0,0,1,0-.31.23.23,0,0,1,.31,0c3,3,7.06,6.93,11.51,7.34a11.28,11.28,0,0,0,9.15-3.33A12.06,12.06,0,0,0,37.8,21.38a.24.24,0,0,1,.08-.31.22.22,0,0,1,.3.08"/><path class="cls-6" d="M21.57,1.44a12.5,12.5,0,0,1,15.1,2.67,11.72,11.72,0,0,1,3,9.65c-.63,4.55-4.76,8.48-8,11.42a.22.22,0,1,1-.29-.32c3.15-2.86,7.25-6.74,7.86-11.16a11.27,11.27,0,0,0-2.9-9.29A12.07,12.07,0,0,0,21.78,1.83a.22.22,0,0,1-.3-.09.22.22,0,0,1,.09-.3"/><path class="cls-6" d="M18.24,38.49a12.5,12.5,0,0,1-15.1-2.67,11.71,11.71,0,0,1-3-9.64c.63-4.56,4.76-8.48,8-11.43a.22.22,0,1,1,.29.33C5.27,17.93,1.17,21.81.55,26.24a11.32,11.32,0,0,0,2.91,9.29A12.06,12.06,0,0,0,18,38.1a.22.22,0,0,1,.3.09.23.23,0,0,1-.09.3"/><path class="cls-6" d="M21.84,7.35c-2.48-2.55-5.66-4.77-9.25-5.1A9.29,9.29,0,0,0,5,5,10.07,10.07,0,0,0,3.45,17.29l2-1.93a7.43,7.43,0,0,1,1.3-8.47c3.05-3.14,7.41-2.58,10.64,0a3.79,3.79,0,0,0,4.49.51"/><path class="cls-6" d="M31,32.61a2.06,2.06,0,1,1,2.1-2.06A2.08,2.08,0,0,1,31,32.61"/><path class="cls-6" d="M20.17,8.82A11.25,11.25,0,1,1,8.91,20.07,11.24,11.24,0,0,1,20.17,8.82"/><path class="cls-7" d="M20.17,9.18c4.46,0,8.08,4.88,8.08,10.89S24.63,31,20.17,31s-8.08-4.87-8.08-10.88S15.71,9.18,20.17,9.18m0-.36c4.61,0,8.35,5,8.35,11.25s-3.74,11.25-8.35,11.25-8.35-5-8.35-11.25S15.56,8.82,20.17,8.82"/><path class="cls-7" d="M9.29,20.07c0-4.46,4.87-8.08,10.88-8.08s10.89,3.62,10.89,8.08-4.88,8.08-10.89,8.08S9.29,24.53,9.29,20.07m-.37,0c0-4.61,5-8.35,11.25-8.35s11.25,3.74,11.25,8.35-5,8.35-11.25,8.35S8.92,24.68,8.92,20.07"/><path class="cls-7" d="M9.29,20c0-3.27,4.87-5.91,10.88-5.91S31.06,16.76,31.06,20s-4.88,5.9-10.89,5.9S9.29,23.29,9.29,20m-.37,0c0-3.38,5-6.11,11.25-6.11S31.42,16.65,31.42,20s-5,6.1-11.25,6.1S8.92,23.4,8.92,20"/><path class="cls-7" d="M20.17,13.65A5.15,5.15,0,1,1,15,18.8a5.15,5.15,0,0,1,5.14-5.15m0-1.28a6.43,6.43,0,1,1-6.43,6.43,6.43,6.43,0,0,1,6.43-6.43"/><g class="cls-8"><g class="cls-9"><g class="cls-10"><path class="cls-11" d="M20.17,13.65A5.15,5.15,0,1,1,15,18.8a5.15,5.15,0,0,1,5.14-5.15"/></g></g></g><rect class="cls-12" x="24.73" y="22.56" width="1.1" height="9.68" transform="translate(-10.42 16.67) rotate(-30.57)"/><rect class="cls-12" x="8.92" y="19.91" width="22.5" height="0.25"/><rect class="cls-12" x="20.05" y="8.78" width="0.25" height="22.51"/></g></g></svg>