<svg xmlns="http://www.w3.org/2000/svg" viewBox="0 0 95.52 95.54"><defs><style>.cls-1,.cls-5{fill:#2f3687;}.cls-1,.cls-2,.cls-4{fill-rule:evenodd;}.cls-2{fill:#d0681b;}.cls-3,.cls-4{fill:#fff;}</style></defs><title>hi-tech-qu</title><g id="Слой_2" data-name="Слой 2"><g id="Слой_1-2" data-name="Слой 1"><path class="cls-1" d="M74.51,30.71a2.23,2.23,0,0,0,.09-.87c-.1-.28-.42-.71-.62-.7a5.64,5.64,0,0,0-2,.43,4,4,0,0,1-3.73-.12c.24-.19.44-.31.61-.47.58-.56.45-1-.25-1.33-1.17-.62-2.56-1-3.19-2.33-.1-.22-.19-.46-.3-.74.4,0,.78.19,1,.07s.67-.54.63-.77a6,6,0,0,0-.62-1.76,3.66,3.66,0,0,1-.06-3.3,8,8,0,0,0,1.51.65c.12,0,.73.22,1-.18.11,0,.23-.08.42-.67A3.86,3.86,0,0,1,72.21,15a5.33,5.33,0,0,0-.11,1c.06.59.3.89,1,.65a8.3,8.3,0,0,1,2.36-.57,15,15,0,0,1,2.7.4,7.26,7.26,0,0,0-1,.85c-.33.47-.35.86.3,1.18a10.13,10.13,0,0,1,2.26,1.36,11.2,11.2,0,0,1,1.44,2c-.63,0-1-.18-1.26-.05s-.67.58-.62.82c.11.7.54,1.35.62,2a22.93,22.93,0,0,1,0,2.87l-.36.05c-.24-.26-.44-.65-.73-.73a1.16,1.16,0,0,0-1,.23c-.4.61-.54,1.41-1,2a18,18,0,0,1-2,1.95l-.31-.26M73,24.54A1.61,1.61,0,0,0,74.63,23,1.78,1.78,0,0,0,73,21.31a1.69,1.69,0,0,0-1.59,1.63A1.55,1.55,0,0,0,73,24.54"/><path class="cls-2" d="M52.81,14C46.19,7.2,37.72,1.29,28.13.41A24.8,24.8,0,0,0,8,7.77,26.87,26.87,0,0,0,3.74,40.53L9,35.38a19.78,19.78,0,0,1,3.48-22.59c8.13-8.39,19.76-6.88,28.39-.14,4.16,3.25,8,3.48,12,1.36"/><path class="cls-2" d="M42.71,81.53c6.62,6.82,15.09,12.72,24.68,13.6a24.83,24.83,0,0,0,20.16-7.35A26.91,26.91,0,0,0,91.79,55l-5.24,5.14a19.78,19.78,0,0,1-3.47,22.6c-8.14,8.39-19.76,6.88-28.4.13-4.16-3.25-8-3.48-12-1.36"/><path class="cls-2" d="M81.81,52.8c6.82-6.62,12.72-15.09,13.6-24.68A24.83,24.83,0,0,0,88.06,8,26.91,26.91,0,0,0,55.3,3.72L60.44,9A19.8,19.8,0,0,1,83,12.43c8.39,8.14,6.88,19.76.13,28.4-3.25,4.16-3.48,8-1.36,12"/><path class="cls-2" d="M13.71,42.74C6.9,49.36,1,57.83.11,67.42A24.82,24.82,0,0,0,7.47,87.58a26.91,26.91,0,0,0,32.76,4.24l-5.15-5.24a19.77,19.77,0,0,1-22.59-3.47C4.1,75,5.61,63.35,12.35,54.72c3.26-4.17,3.48-8,1.36-12"/><path class="cls-1" d="M43.21,41.74c-.06.07-1,1-1,1-.28-.06-1.23-.52-1.36-.5a14.71,14.71,0,0,0-1.13,1.87l1.11,1c0,.2-.29.83-.37,1.44L39,46.76V49l.8.14.57.11c.15.06.15.44.24.78s.13.47.2.67c-.24.26-1,.71-1.12.93l1.07,1.9c.36,0,.95-.36,1.37-.45l.16.15a6.54,6.54,0,0,0,.93.9l-.52,1.36a16.07,16.07,0,0,0,1.92,1.1l.94-1c.19,0,.49.15.69.2l.76.17.24,1.37c.19.11,1.72,0,2.21.06,0-.3.12-1.33.37-1.43l.28-.06c.47-.1.69-.21,1.09-.31.3.36.61.75.89,1.11l1.89-1.08c0-.4-.42-1-.42-1.41.41-.33.66-.68,1.06-1l1.31.5a6,6,0,0,0,.57-.93c.15-.27.42-.66.55-1a6.12,6.12,0,0,0-1.09-.91c0-.11.4-1.46.41-1.48a6.26,6.26,0,0,1,1.42-.24V46.88c-.2-.05-1.37-.23-1.39-.29l-.43-1.44A11.44,11.44,0,0,0,57,44.23c-.1-.28-.86-1.49-1.08-1.92l-1.4.49c-.37-.32-.65-.7-1.05-1,.09-.43.48-1.06.52-1.47-.22,0-1.51-.89-1.9-1l-1,1.15a2.35,2.35,0,0,1-.68-.21,2.7,2.7,0,0,0-.74-.14l-.2-1.27c0-.17,0-.28-.16-.28h-2c-.18,0-.15.17-.18.35L47,40.11c-.35-.15-1.06.23-1.4.31l-.46-.62a3,3,0,0,0-.47-.56,4.29,4.29,0,0,0-.51.28l-1,.54a4.64,4.64,0,0,0-.46.28Zm-6.06,6a11.2,11.2,0,1,1,22.39.41A11.47,11.47,0,0,1,56.12,56a11.19,11.19,0,0,1-19-8.23"/><path class="cls-2" d="M38.21,35.7c-.11.14-1.93,1.95-2,2-.55-.14-2.43-1-2.69-1a30,30,0,0,0-2.23,3.68l2.2,1.93c0,.4-.57,1.64-.74,2.86l-2.89.41V50c.52.07,1.11.2,1.57.27l1.12.23c.29.12.3.87.47,1.54.13.47.26.92.4,1.32-.46.5-1.9,1.39-2.21,1.83L33.29,59c.7,0,1.86-.72,2.69-.89l.31.29a13.21,13.21,0,0,0,1.84,1.77l-1,2.68A32.76,32.76,0,0,0,40.89,65L42.75,63c.38,0,1,.29,1.37.39s1,.22,1.5.34l.46,2.7c.38.22,3.41,0,4.37.13,0-.6.24-2.63.73-2.83l.54-.12c.94-.21,1.37-.41,2.16-.61.6.71,1.2,1.47,1.75,2.18L59.36,63c0-.8-.83-2.05-.83-2.79.82-.64,1.3-1.32,2.1-2.07l2.58,1a9.83,9.83,0,0,0,1.11-1.82,18.42,18.42,0,0,0,1.09-1.9,13.49,13.49,0,0,0-2.13-1.8c0-.22.78-2.87.8-2.91a13.35,13.35,0,0,1,2.79-.48v-4.4a23.7,23.7,0,0,1-2.73-.57l-.85-2.83a26.57,26.57,0,0,0,2.22-1.82c-.22-.54-1.7-2.93-2.15-3.79l-2.75,1c-.73-.62-1.3-1.37-2.08-2,.19-.84.95-2.09,1-2.88-.44-.09-3-1.76-3.76-2.09L53.91,33.1a4.13,4.13,0,0,1-1.34-.43,6,6,0,0,0-1.45-.27l-.4-2.49c0-.35,0-.56-.31-.56H46.47c-.36,0-.31.33-.36.69l-.44,2.45c-.68-.31-2.1.46-2.76.61-.29-.42-.57-.78-.9-1.22a5.18,5.18,0,0,0-.93-1.1,6.57,6.57,0,0,0-1,.55L38.16,32.4a5.91,5.91,0,0,0-.91.53Zm-2.93,12a13.07,13.07,0,1,1,26.13.48,13.35,13.35,0,0,1-4,9.12,13.06,13.06,0,0,1-22.14-9.6"/><path class="cls-1" d="M28.7,64.46h-3l0-.69H22c0,.24,0,.45,0,.7H19a7.71,7.71,0,0,1,4.85-1.68,7.93,7.93,0,0,1,4.9,1.67m.69,11.77a7.65,7.65,0,0,1-6.06,2.35,7.92,7.92,0,0,1-5.45-13.09H22c0,.26,0,.48.05.72h1c-.09.69.38,1,.79,1.39.41-.42.88-.73.76-1.4h1c0-.24,0-.46,0-.73h4.1a8.05,8.05,0,0,1,1.9,4.28,7.58,7.58,0,0,1-2.27,6.48"/><rect class="cls-3" x="21.35" y="69.84" width="4.91" height="0.74"/><path class="cls-4" d="M21.35,69.64v-.78h2v-.94h.78a7.08,7.08,0,0,1,0,1,.8.8,0,0,1-.8.69c-.66,0-1.32,0-2,0"/><path class="cls-4" d="M26.21,70.78v.78H24.15v.94h-.77a7.1,7.1,0,0,1,0-1,.8.8,0,0,1,.8-.68c.66,0,1.32,0,2,0"/><path class="cls-4" d="M26.65,74a.72.72,0,0,0-.37-.67l-2-1.16a.74.74,0,0,0-.76,0l-2,1.16a.73.73,0,0,0-.38.67V76.3a.76.76,0,0,0,.39.69l2,1.14a.74.74,0,0,0,.76,0l2-1.17a.7.7,0,0,0,.36-.65V74m-.86,1.87a.58.58,0,0,1-.32.56l-1.19.68c-.26.15-.42.07-.42-.24V75.54a.59.59,0,0,1,.31-.55l1.23-.71c.24-.14.38-.06.39.23s0,.47,0,.71v.69"/><path class="cls-1" d="M76.59,76.74,77,77l.06-.1a5.59,5.59,0,0,0,.38-.56Z"/><path class="cls-1" d="M74.36,78,73,78.85l.81-1.36-3.5.51,3.3-1.26L72.23,76l1.58,0-2-2.8,2.58,2.25,0-1.58.77,1.38,1.53-3.85-.78,4,1.81-1.32L76.39,76l1.17,0c.11-.25.19-.5.32-.81a17,17,0,0,0,1-7.34,4.26,4.26,0,0,0-3.35-4.27,12.57,12.57,0,0,0-6.3-.06,4.21,4.21,0,0,0-3.57,4.07,19.5,19.5,0,0,0,0,3,14.94,14.94,0,0,0,.69,3.94l.27-.41.21.13,1.06-1.66-.37-.24.2-.31.37.24.38-.59.43.28-.38.59.54.34.38-.59.43.28-.38.59L73,75.37l.26.35-.46,0-3.51-2.25-1.06,1.66.22.15-1,1.56a5.55,5.55,0,0,0,5,2.48,6,6,0,0,0,1.89-.39Zm-5.75-7.39c-.08,0-.25-.13-.25-.2V67.35l.42-.3h7.07l.32.37c0,.4,0,.4,0,2.9a.51.51,0,0,1-.34.33Z"/><rect class="cls-5" x="67.06" y="73.49" width="1.98" height="0.64" transform="translate(-30.81 91.31) rotate(-57.36)"/><path class="cls-1" d="M75.85,78v.08h0l0,0Z"/><path class="cls-1" d="M74.84,78.69l.41-.19-.15-.27Z"/><path class="cls-1" d="M76.39,77.49l0,.07.07-.07Z"/><path class="cls-1" d="M24.37,17.61V16.19a.08.08,0,0,0-.09-.09h-.16c-.1,0-.1,0-.1-.1v-.54c0-.08,0-.11-.11-.11h-.19c-.1,0-.12,0-.12.12s0,.38,0,.56,0,.08-.07.07h-.15c-.13,0-.13,0-.13.13v1.41h1.1a0,0,0,0,0,0,0"/><path class="cls-1" d="M26.13,17.61V16.19A.08.08,0,0,0,26,16.1h-.16c-.1,0-.1,0-.1-.1s0-.36,0-.54,0-.11-.1-.11h-.19c-.1,0-.12,0-.12.12V16c0,.06,0,.08-.07.07h-.14c-.13,0-.14,0-.14.13v1.41h1.11s0,0,0,0"/><path class="cls-1" d="M27.87,17.61V16.19a.08.08,0,0,0-.09-.09h-.16c-.1,0-.1,0-.1-.1v-.54c0-.08,0-.11-.11-.11h-.19c-.1,0-.12,0-.12.12s0,.38,0,.56,0,.08-.07.07h-.15c-.13,0-.13,0-.13.13v1.41h1.1a0,0,0,0,0,0,0"/><path class="cls-1" d="M32.44,22.14h-.57c-.05,0-.07,0-.07-.06a1,1,0,0,0,0-.17c0-.1,0-.12-.11-.12H30.27v1.11H31.7c.08,0,.1,0,.1-.11a1,1,0,0,0,0-.17c0-.06,0-.08.08-.07h.57c.08,0,.1,0,.1-.11a1.21,1.21,0,0,0,0-.19c0-.1,0-.12-.11-.12"/><path class="cls-1" d="M32.44,23.9h-.57c-.05,0-.07,0-.07-.06a1,1,0,0,0,0-.17c0-.1,0-.12-.11-.12H30.27v1.11H31.7c.08,0,.1,0,.1-.11a1,1,0,0,0,0-.17c0-.06,0-.08.08-.08a5.42,5.42,0,0,0,.57,0c.08,0,.1,0,.1-.1a1.33,1.33,0,0,0,0-.2c0-.09,0-.11-.11-.11"/><path class="cls-1" d="M32.44,20.39h-.57c-.05,0-.07,0-.07-.07a1,1,0,0,0,0-.17c0-.1,0-.11-.11-.11H30.27v1.11H31.7c.08,0,.1,0,.1-.1a1.08,1.08,0,0,0,0-.18c0-.05,0-.07.08-.07h.57c.08,0,.1,0,.1-.1a1.33,1.33,0,0,0,0-.2c0-.1,0-.11-.11-.11"/><path class="cls-1" d="M23.26,28.81v1.45c0,.06,0,.08.08.08a1.08,1.08,0,0,0,.18,0c.07,0,.09,0,.09.08a5.42,5.42,0,0,0,0,.57c0,.08,0,.1.1.1h.19c.1,0,.12,0,.12-.11v-.57c0-.05,0-.07.06-.07a1,1,0,0,0,.17,0c.1,0,.12,0,.12-.11V28.81Z"/><path class="cls-1" d="M16.94,22.56h.55c.06,0,.08,0,.07.07v.16c0,.1,0,.12.12.12H19.1V21.8H17.64c-.05,0-.08,0-.08.09v.19c0,.06,0,.08-.07.08h-.56c-.1,0-.12,0-.12.12v.17c0,.11,0,.13.13.13"/><path class="cls-1" d="M17.49,20.4h-.56c-.1,0-.12,0-.12.12v.17c0,.1,0,.12.13.12s.37,0,.55,0,.08,0,.07.08v.16c0,.1,0,.12.12.12H19.1v-1.1H17.64a.07.07,0,0,0-.08.08v.2c0,.06,0,.07-.07.07"/><path class="cls-1" d="M16.94,24.28h.55c.06,0,.08,0,.07.08v.16c0,.1,0,.12.12.12H19.1v-1.1H17.64a.07.07,0,0,0-.08.08v.2c0,.06,0,.07-.07.07h-.56c-.1,0-.12,0-.12.12v.17c0,.1,0,.12.13.12"/><path class="cls-1" d="M21.51,28.81v1.45c0,.06,0,.08.08.08h.18c.08,0,.08,0,.08.09V31a.09.09,0,0,0,.1.1h.22c.08,0,.1,0,.1-.1V30.4a.05.05,0,0,1,.06-.06,1.21,1.21,0,0,0,.19,0c.08,0,.1,0,.1-.1V28.81Z"/><path class="cls-1" d="M26.75,28.84v1.42c0,.06,0,.08.07.08a1.47,1.47,0,0,0,.21,0s.06,0,.06.07V31c0,.06,0,.09.1.09a1.47,1.47,0,0,0,.21,0c.08,0,.11,0,.11-.1V30.4s0-.06,0-.06a1.21,1.21,0,0,0,.19,0c.09,0,.11,0,.11-.1V28.81H26.75v0"/><path class="cls-1" d="M31.7,25.29H30.27v1.1h1.45c.06,0,.08,0,.08-.09a1.21,1.21,0,0,0,0-.19c0-.05,0-.07.07-.07h.59c.06,0,.09,0,.09-.1a.81.81,0,0,0,0-.22c0-.07,0-.1-.1-.1h-.59s-.06,0-.06-.05a1.2,1.2,0,0,0,0-.19c0-.09,0-.1-.1-.1"/><path class="cls-1" d="M25,28.8s0,0,0,.06v1.38c0,.08,0,.1.1.1a1.08,1.08,0,0,0,.18,0s.07,0,.07.07V31c0,.07,0,.09.1.09h.19c.1,0,.12,0,.12-.12v-.56c0-.05,0-.07.07-.07a1,1,0,0,0,.17,0c.1,0,.11,0,.11-.11V28.81H25"/><path class="cls-1" d="M22.62,17.61V16.17c0-.05,0-.07-.08-.07h-.21s-.06,0-.06-.06v-.59c0-.07,0-.1-.09-.1H22c-.09,0-.12,0-.12.12s0,.38,0,.57,0,.06-.06.06h-.18c-.09,0-.11,0-.11.11v1.42h1.1a0,0,0,0,0,0,0"/><path class="cls-1" d="M16.92,26.05h.58c.05,0,.06,0,.06.06v.18c0,.09,0,.1.11.1H19.1V25.29H17.64c-.06,0-.08,0-.08.08v.19c0,.06,0,.08-.07.08h-.57c-.08,0-.11,0-.11.1v.21c0,.08,0,.11.11.11"/><path class="cls-1" d="M20.87,28.81h-1.1v1.46c0,.05,0,.07.08.07H20c.09,0,.09,0,.09.09V31c0,.08,0,.1.11.1h.18c.1,0,.12,0,.12-.12v-.55c0-.06,0-.08.08-.08a.86.86,0,0,0,.16,0c.09,0,.1,0,.1-.1V28.81"/><path class="cls-1" d="M28.5,28.81a0,0,0,0,0,0,0v1.42c0,.06,0,.08.08.08a1.2,1.2,0,0,0,.19,0c.06,0,.08,0,.08.08V31c0,.08,0,.1.1.1h.2c.09,0,.11,0,.11-.11v-.57c0-.05,0-.07.07-.07a.86.86,0,0,0,.16,0c.1,0,.12,0,.12-.11V28.81Z"/><path class="cls-1" d="M31.73,19.41c.05,0,.07,0,.07-.08a1.33,1.33,0,0,0,0-.2c0-.05,0-.07.07-.06h.58c.08,0,.1,0,.1-.11a1.33,1.33,0,0,0,0-.2c0-.08,0-.11-.1-.11h-.59s-.06,0-.06,0a1,1,0,0,0,0-.17c0-.11,0-.13-.12-.13H30.27v1.11h1.46"/><path class="cls-1" d="M32.43,27.38h-.56c-.05,0-.07,0-.07-.06a1.08,1.08,0,0,0,0-.18c0-.1,0-.11-.11-.11H30.27v1.1h1.45c.06,0,.08,0,.08-.09a1.33,1.33,0,0,0,0-.2c0-.05,0-.06.07-.06h.58c.08,0,.1,0,.1-.1a1.21,1.21,0,0,0,0-.19c0-.1,0-.12-.12-.12"/><path class="cls-1" d="M19.77,17.64h1.1v0c0-.48,0-1,0-1.44a.07.07,0,0,0-.08-.08h-.2c-.06,0-.07,0-.07-.07v-.57c0-.09,0-.11-.11-.11h-.19c-.09,0-.11,0-.11.12s0,.38,0,.56,0,.08-.07.07h-.17c-.1,0-.11,0-.11.11v1.43Z"/><path class="cls-1" d="M29.6,17.62V16.18a.07.07,0,0,0-.08-.08h-.2c-.05,0-.07,0-.07-.07v-.58c0-.08,0-.1-.1-.1H29c-.09,0-.11,0-.11.12V16a.05.05,0,0,1-.06.06h-.17c-.11,0-.12,0-.12.12v1.41H29.6"/><path class="cls-1" d="M17.66,18.31c-.08,0-.1,0-.1.1v.18c0,.05,0,.07-.06.07s-.39,0-.58,0-.11,0-.11.1V19c0,.1,0,.12.12.12h.57c.05,0,.06,0,.06.06v.18c0,.09,0,.1.11.1H19.1v-1.1H17.66"/><path class="cls-1" d="M17.64,27c-.05,0-.08,0-.08.07v.19c0,.09,0,.09-.09.09h-.56c-.07,0-.1,0-.1.1v.2c0,.09,0,.11.11.11h.57c.06,0,.08,0,.07.07V28c0,.09,0,.11.11.11H19.1V27H17.64"/><path class="cls-1" d="M29.71,18h-10a.22.22,0,0,0-.23.22v10a.22.22,0,0,0,.22.22h10a.16.16,0,0,0,.1,0,.18.18,0,0,0,.12-.2v-10a.21.21,0,0,0-.21-.21m-8.62,9.28a.61.61,0,0,1-.62-.61.62.62,0,0,1,.62-.62.61.61,0,0,1,.61.62.61.61,0,0,1-.61.61m0-7a.62.62,0,0,1-.62-.62.61.61,0,0,1,.62-.61.61.61,0,0,1,.61.61.61.61,0,0,1-.61.62m7.13,7a.61.61,0,0,1-.62-.61.62.62,0,0,1,.62-.62.61.61,0,0,1,.61.62.61.61,0,0,1-.61.61m0-7a.62.62,0,0,1-.62-.62.61.61,0,0,1,.62-.61.61.61,0,0,1,.61.61.61.61,0,0,1-.61.62"/></g></g></svg>