<svg xmlns="http://www.w3.org/2000/svg" xmlns:xlink="http://www.w3.org/1999/xlink" viewBox="0 0 44.32 44.01"><defs><style>.cls-1{fill:none;}.cls-2{isolation:isolate;}.cls-3,.cls-4{fill:#2f3687;}.cls-3{fill-rule:evenodd;}.cls-5{mix-blend-mode:multiply;}.cls-6{clip-path:url(#clip-path);}.cls-7{clip-path:url(#clip-path-3);}.cls-8{fill:#80207e;}</style><clipPath id="clip-path"><rect class="cls-1" x="38.86" y="22.42" width="0.02" height="0.04"/></clipPath><clipPath id="clip-path-3"><rect class="cls-1" x="37.69" y="22.41" width="0.64" height="0.9"/></clipPath></defs><title>robo-qu</title><g class="cls-2"><g id="Слой_2" data-name="Слой 2"><g id="Слой_1-2" data-name="Слой 1"><path class="cls-3" d="M44.28,15.64a2.1,2.1,0,1,0-2.47,1.65,2.11,2.11,0,0,0,2.47-1.65m-.73-.14A1.36,1.36,0,0,1,42,16.56,1.35,1.35,0,0,1,40.89,15a1.36,1.36,0,1,1,2.66.53m-.44-.09a.91.91,0,0,1-1.07.71.89.89,0,0,1-.71-1.06.91.91,0,1,1,1.78.35M30.93,1.15a3.12,3.12,0,1,0-.46,4.39,3.13,3.13,0,0,0,.46-4.39M30,2a1.86,1.86,0,1,1-2.61-.27A1.87,1.87,0,0,1,30,2m-.35.28a1.41,1.41,0,1,1-2-.21,1.41,1.41,0,0,1,2,.21M40.15,6.35a2.7,2.7,0,1,0-3.8-.41,2.71,2.71,0,0,0,3.8.41m-.66-.82a1.65,1.65,0,1,1,.25-2.32,1.65,1.65,0,0,1-.25,2.32m-.28-.35a1.2,1.2,0,1,1,.18-1.69,1.19,1.19,0,0,1-.18,1.69m-3.49.63-4.2-.66a3.5,3.5,0,0,0,.59-2.33,3.54,3.54,0,0,0-1-2.18l5,1.49a3.17,3.17,0,0,0-.4,3.68m4.58,7.75L37.79,7.31a3.18,3.18,0,0,0,3.12-1.06l1.81,6.49a2.56,2.56,0,0,0-2.42.82"/><path class="cls-3" d="M26.52,40.5l-.94-1.37a2,2,0,0,1-1.86-1.21l-2.23-.42.77-4.13.37.54-.09,2.37,1.22,0a2,2,0,0,1,1.62-1.11l.41-1.15-2.24-.77-.37-.54,4.13.78-.42,2.22a2,2,0,0,1,.46,2.18l.93,1.37a2.51,2.51,0,0,0-1.76,1.21M28.37,44a2.1,2.1,0,1,0-1.64-2.46A2.1,2.1,0,0,0,28.37,44m.15-.73a1.35,1.35,0,1,1,.53-2.65,1.35,1.35,0,1,1-.53,2.65m.09-.44a.9.9,0,0,1-.72-1.06A.92.92,0,0,1,29,41a.91.91,0,0,1,.71,1.07.89.89,0,0,1-1.06.71M42.86,30.63a3.12,3.12,0,1,0-4.39-.46,3.13,3.13,0,0,0,4.39.46m-.79-1A1.86,1.86,0,1,1,42.34,27a1.86,1.86,0,0,1-.27,2.61m-.29-.34A1.41,1.41,0,0,1,40,27.11a1.41,1.41,0,1,1,1.77,2.19M37.66,39.85a2.71,2.71,0,1,0,.41-3.8,2.73,2.73,0,0,0-.41,3.8m.82-.66a1.65,1.65,0,1,1,2.32.25,1.66,1.66,0,0,1-2.32-.25m.35-.28a1.21,1.21,0,1,1,1.69.18,1.21,1.21,0,0,1-1.69-.18m-.63-3.49.66-4.2a3.57,3.57,0,0,0,2.33.59,3.52,3.52,0,0,0,2.18-1l-1.49,5a3.17,3.17,0,0,0-3.68-.39M30.45,40l6.26-2.52a3.17,3.17,0,0,0,1.06,3.12l-6.49,1.82A2.57,2.57,0,0,0,30.45,40m-5.14-1.66A1.2,1.2,0,1,0,25.75,36a1.2,1.2,0,1,0-.44,2.36m.08-.43a.76.76,0,1,0-.61-.89.78.78,0,0,0,.61.89"/><path class="cls-3" d="M0,28.37a2.12,2.12,0,0,0,1.65,2.47A2.1,2.1,0,1,0,0,28.37m.73.15A1.36,1.36,0,1,1,3.43,29a1.38,1.38,0,0,1-1.6,1.07A1.35,1.35,0,0,1,.77,28.52m.44.08a.89.89,0,0,1,1.06-.71.91.91,0,1,1-1.06.71M13.38,42.86a3.13,3.13,0,1,0,.46-4.39,3.15,3.15,0,0,0-.46,4.39m1-.8a1.85,1.85,0,1,1,2.61.28,1.87,1.87,0,0,1-2.61-.28m.35-.28a1.4,1.4,0,1,1,2,.21,1.41,1.41,0,0,1-2-.21M4.16,37.66A2.71,2.71,0,1,0,8,38.07a2.72,2.72,0,0,0-3.81-.41m.66.82a1.65,1.65,0,1,1-.25,2.32,1.67,1.67,0,0,1,.25-2.32m.28.35A1.2,1.2,0,1,1,6.61,40.7a1.2,1.2,0,0,1-1.69-.18,1.21,1.21,0,0,1,.18-1.69m3.5-.63,4.2.66a3.56,3.56,0,0,0-.6,2.33,3.52,3.52,0,0,0,1,2.18l-5-1.49a3.19,3.19,0,0,0,.4-3.68M4,30.45l2.51,6.26a3.14,3.14,0,0,0-3.12,1.06l-1.82-6.5A2.56,2.56,0,0,0,4,30.45"/><path class="cls-3" d="M15.94,0a2.1,2.1,0,1,0,1.65,2.47A2.1,2.1,0,0,0,15.94,0M15.8.77a1.35,1.35,0,0,1,1.06,1.59,1.36,1.36,0,0,1-1.59,1.07,1.38,1.38,0,0,1-1.07-1.6A1.36,1.36,0,0,1,15.8.77m-.09.44A.91.91,0,0,1,15.36,3a.91.91,0,1,1,.35-1.78M1.45,13.38a3.13,3.13,0,0,0,3.93,4.86,3.13,3.13,0,0,0-3.93-4.86m.8,1A1.86,1.86,0,1,1,2,17a1.87,1.87,0,0,1,.27-2.61m.28.35a1.4,1.4,0,1,1-.21,2,1.41,1.41,0,0,1,.21-2M6.65,4.16A2.71,2.71,0,1,0,6.24,8a2.72,2.72,0,0,0,.41-3.81m-.82.66a1.65,1.65,0,1,1-2.32-.25,1.67,1.67,0,0,1,2.32.25m-.35.28a1.2,1.2,0,1,1-1.69-.18,1.21,1.21,0,0,1,1.69.18m.63,3.5-.66,4.2a3.56,3.56,0,0,0-2.33-.6,3.6,3.6,0,0,0-2.18,1l1.49-5a3.19,3.19,0,0,0,3.68.4M13.86,4,7.61,6.53A3.18,3.18,0,0,0,6.55,3.41L13,1.59A2.59,2.59,0,0,0,13.86,4"/><path class="cls-3" d="M1.13,26.65a2.36,2.36,0,0,1,2.58.45,2.23,2.23,0,0,1,.65,2.26L7,26.2s.15-.62-.18-.84S4.9,24,4.67,23.84a.83.83,0,0,0-1.31.21c-.28.38-2.23,2.6-2.23,2.6"/><polygon class="cls-3" points="5.39 24.02 7.77 21.5 6.2 24.57 5.39 24.02"/><path class="cls-3" d="M7.66,19.93,8,16.63l.86,3a13.63,13.63,0,0,1,1.79-1c-.07.16-1.16,1.68-1.16,1.68l2.31,1-2.37.39L9.12,24l-.81-2.28.55.36v-.78l1.52-.18-1.62-.53.54-.8-.88.46-.14-.86L8,20.44l-1.09-.2.61.79-2.28.76,1.46-1h0a4.19,4.19,0,0,1-.42-1Z"/><path class="cls-3" d="M18,2.8a3,3,0,0,1-.79,1.33A2.17,2.17,0,0,1,16,4.66l1.59,1.49s.39.15.55-.06,1-1.11,1.14-1.25a.54.54,0,0,0,0-.87L18,2.8"/><polygon class="cls-3" points="18.64 5.86 19.19 6.37 19.27 5.09 18.64 5.86"/><polygon class="cls-3" points="19.54 5.52 19.48 6.53 20.23 7.23 20.25 6.22 19.54 5.52"/><polygon class="cls-3" points="20.55 6.62 20.55 7.5 21.35 8.29 21.32 7.35 20.55 6.62"/><polygon class="cls-3" points="21.65 7.73 21.68 8.65 22.29 9.33 22.28 8.39 21.65 7.73"/><polygon class="cls-3" points="22.48 8.52 22.5 8.88 22.82 8.84 22.48 8.52"/><path class="cls-3" d="M39.55,19.59a1.33,1.33,0,0,0,1.18.54,1.37,1.37,0,0,0,.55-.21,1.54,1.54,0,0,0,.39-.31,1.33,1.33,0,0,0,.06-1.48l.24-.49a1.7,1.7,0,0,1-1.29-.6l-.25.49a1.33,1.33,0,0,0-1.09,1,1.15,1.15,0,0,0,0,.54,1.19,1.19,0,0,0,.23.52m.89-1.24a.51.51,0,0,1,.66.3.51.51,0,0,1-.31.65.5.5,0,0,1-.65-.3.51.51,0,0,1,.3-.65"/><path class="cls-4" d="M39.88,22.34l.12.92s0,0,0,0,0,0,0,0-.27-.06-.36,0h0l0,0-.19-.57a.58.58,0,0,1,.51-.39"/><path class="cls-4" d="M39.56,23.3h0l0,0h0a.24.24,0,0,1,.15,0,.34.34,0,0,0-.2,0"/><path class="cls-4" d="M39.94,23.26v0h0s0,0,0,0,0,0,0,0l-.13-.92h-.06Z"/><path class="cls-4" d="M40,23.45a.08.08,0,0,1,0,.08l-.2.43a.1.1,0,0,1-.13.05l0,0a.1.1,0,0,1-.06-.1l.07-.52a.06.06,0,0,1,.06-.06.44.44,0,0,1,.29.14"/><path class="cls-4" d="M39.78,23.92a.1.1,0,0,1-.13,0l0,0a.1.1,0,0,1-.06-.1l.07-.51s0,0,0,0l-.07.52a.11.11,0,0,0,.06.1l0,0a.1.1,0,0,0,.13-.05l.2-.44s0,0,0,0Z"/><path class="cls-4" d="M39.44,22.48s0,0,0,0,0,0,0,0l0,0,0,0"/><path class="cls-4" d="M38.9,22.06s0,0,0,0a.25.25,0,0,1,.12.08.85.85,0,0,1,.28.43l0,0,0,0a.39.39,0,0,1,.44-.32l0,0a0,0,0,0,0,0,0,7.46,7.46,0,0,0-.46-.68.08.08,0,0,0-.09,0c-.32.18-.4.36-.4.52"/><path class="cls-4" d="M39.76,22.47l-.47,1.23,0,0h0c-.08-.08-.28-.25-.45-.22h0s0,0,0,0l.14-.83a.83.83,0,0,1,.89-.14"/><path class="cls-4" d="M38.73,23.44h0s0,0,0,0h0a.39.39,0,0,1,.21,0,.48.48,0,0,0-.25-.09"/><path class="cls-4" d="M39.11,23.89a.09.09,0,0,1,0,.1l-.55.39a.13.13,0,0,1-.19,0l0-.05a.15.15,0,0,1,0-.17l.44-.59a.07.07,0,0,1,.11,0,.6.6,0,0,1,.26.36"/><path class="cls-4" d="M38.57,24.35a.14.14,0,0,1-.19,0l0-.05a.15.15,0,0,1,0-.16l.43-.59,0,0-.43.59a.14.14,0,0,0,0,.17l0,.05a.13.13,0,0,0,.19,0l.55-.39,0,0Z"/><path class="cls-4" d="M38.71,21.44s0,0,0,0a.31.31,0,0,1,.09.17,1,1,0,0,1,0,.64s0,0,0,0a.06.06,0,0,0,.06,0,.58.58,0,0,1,.75-.1h0a.08.08,0,0,0,0,0,7.08,7.08,0,0,0-.09-1,.09.09,0,0,0-.1-.07c-.51,0-.74.16-.84.35"/><g class="cls-5"><g class="cls-6"><g class="cls-6"><path class="cls-4" d="M38.88,22.45h0v0h0s0,0,0,0"/></g></g></g><path class="cls-4" d="M39,22.82l-.94.91s0,0,0,0l0,0c0-.11-.15-.34-.31-.39a0,0,0,0,1,0,0v0l.49-.7a.81.81,0,0,1,.86.25"/><path class="cls-4" d="M37.7,23.26h0v0a0,0,0,0,0,0,0,.41.41,0,0,1,.17.13.61.61,0,0,0-.19-.2"/><path class="cls-4" d="M37.85,23.84a.07.07,0,0,1-.07.07l-.66.13a.13.13,0,0,1-.16-.1v-.06a.12.12,0,0,1,.07-.15l.64-.36a.08.08,0,0,1,.11,0,.61.61,0,0,1,.08.44"/><path class="cls-4" d="M37.18,24a.16.16,0,0,1-.17-.11v-.06a.13.13,0,0,1,.07-.15l.63-.35h0l-.64.36a.12.12,0,0,0-.07.15v.06a.13.13,0,0,0,.16.1l.66-.13h0Z"/><path class="cls-4" d="M38.54,21.49s0,0,0,.05a.33.33,0,0,1,0,.2,1.33,1.33,0,0,1-.25.67,0,0,0,0,0,0,.05s0,0,0,0a.55.55,0,0,1,.73.22s0,0,0,0,0,0,0,0a8.76,8.76,0,0,0,.37-1.09.1.1,0,0,0,0-.11c-.47-.21-.75-.15-.92,0"/><g class="cls-5"><g class="cls-7"><g class="cls-7"><path class="cls-4" d="M37.69,23.29l0,0h0v0"/><path class="cls-4" d="M38.32,22.48s0-.05,0-.07h0a0,0,0,0,0,0,.05s0,0,0,0h0"/></g></g></g><path class="cls-4" d="M39,22.25l-.32-.46a1,1,0,0,1-.09-.18,2.68,2.68,0,0,1-.14-1c.07-.42.15-.8.15-.8l.91.45a7.38,7.38,0,0,1,.12.89c0,.05-.15.7-.15.7Z"/><path class="cls-4" d="M39.57,20.66a.52.52,0,0,1,.33.64.5.5,0,0,1-.63.32.49.49,0,0,1-.33-.63.51.51,0,0,1,.63-.33"/><path class="cls-4" d="M39.15,20.87a0,0,0,0,1,0,.06s0,0-.06,0a0,0,0,0,1,0-.06s0,0,.06,0"/><path class="cls-4" d="M38.47,22.49,37,22.74a0,0,0,0,1,0,0s0,0,0,0a.78.78,0,0,0,0-.56s0,0,0,0,0,0,0,0l.9-.34a.9.9,0,0,1,.63.78"/><path class="cls-4" d="M37,22.05h0s0,0,0,0,0,0,0,0a.42.42,0,0,1,.08.23.5.5,0,0,0,0-.3"/><path class="cls-4" d="M36.73,22.68a.13.13,0,0,1-.12,0l-.69-.3a.14.14,0,0,1-.08-.2l0-.06A.15.15,0,0,1,36,22l.82.08c.06,0,.08.05.09.1s0,.31-.2.46"/><path class="cls-4" d="M38.83,20.9a0,0,0,0,0,0,0,.4.4,0,0,1-.12.19,1.55,1.55,0,0,1-.66.46s0,0,0,0a0,0,0,0,0,0,.05.62.62,0,0,1,.53.68.08.08,0,0,0,0,0s0,0,0,0a7.28,7.28,0,0,0,1-.76.12.12,0,0,0,0-.15c-.3-.49-.59-.61-.85-.59"/><path class="cls-4" d="M38,21.67h0s0,0,0,0l0,0h0"/><path class="cls-4" d="M36.9,20.09a.1.1,0,0,1-.07.09l-.75.21a.16.16,0,0,1-.2-.1l0-.07a.17.17,0,0,1,.07-.18l.7-.47a.1.1,0,0,1,.13,0,.72.72,0,0,1,.14.51"/><path class="cls-4" d="M36.9,20a.11.11,0,0,1-.07.09l-.75.21a.16.16,0,0,1-.2-.1l0-.07h0a.06.06,0,0,0,0,.06l0,.07a.16.16,0,0,0,.2.1l.75-.21a.1.1,0,0,0,.07-.09V20"/><path class="cls-4" d="M37.87,20.14a.11.11,0,0,0,.08,0A1,1,0,0,0,38,19.9a1.05,1.05,0,0,0-.09-.71s-.13,0-.16,0l-.84.28s0,0,0,0,0,0,0,0a.71.71,0,0,1,.09.53s0,0,0,0a.06.06,0,0,0,0,0,2.1,2.1,0,0,1,.8,0"/><path class="cls-4" d="M40.25,20.25a1.31,1.31,0,0,1-1-.78,1.14,1.14,0,0,1-.12-.55,1.17,1.17,0,0,1,.07-.38.58.58,0,0,0-.18,0,1.8,1.8,0,0,0-.93.47.26.26,0,0,0,0,.2.48.48,0,0,1,.28.38.58.58,0,0,1-.1.41c0,.07,0,.1,0,.15v.11a.28.28,0,0,0,0,.12.82.82,0,0,0,.22.27,1.1,1.1,0,0,0,.28.17.1.1,0,0,0,.09,0A1.06,1.06,0,0,1,40,21H40a.12.12,0,0,0,0-.05,2.56,2.56,0,0,0,.2-.69v0h0"/><path class="cls-8" d="M23.1,27.45c0-.32,0-.65,0-1a.32.32,0,0,1,.15-.31.34.34,0,0,1,.26,0l1.43.35a2.13,2.13,0,0,1,.43.13.8.8,0,0,1,.49.7,8.61,8.61,0,0,1,0,.88q0,.54,0,1.08a.91.91,0,0,1,0,.17.3.3,0,0,1-.38.24l-.78-.22-1.06-.31a.72.72,0,0,1-.54-.72c0-.32,0-.64,0-1"/><path class="cls-8" d="M22.31,27.44v.92a.31.31,0,0,1-.4.33l-.35-.08-1.5-.44a.72.72,0,0,1-.5-.55,1.36,1.36,0,0,1,0-.29q0-.91,0-1.83a.64.64,0,0,1,0-.24.29.29,0,0,1,.37-.14l1.17.34.52.14a1,1,0,0,1,.67.94c0,.3,0,.6,0,.9"/><path class="cls-8" d="M16,25.51v-1a.39.39,0,0,1,.09-.26.3.3,0,0,1,.31-.07l1.21.32.57.16a.81.81,0,0,1,.58.64.91.91,0,0,1,0,.17c0,.61,0,1.22,0,1.83a.38.38,0,0,1-.51.38l-1.71-.5a.84.84,0,0,1-.56-.73v-1Z"/><path class="cls-8" d="M18.73,22.57v.93a.76.76,0,0,1,0,.15.3.3,0,0,1-.41.22c-.6-.16-1.21-.31-1.81-.48a.76.76,0,0,1-.51-.56.73.73,0,0,1,0-.22V20.72a.31.31,0,0,1,.41-.32l1.7.45a.91.91,0,0,1,.66.69v1"/><path class="cls-8" d="M22.3,23.55c0,.31,0,.61,0,.92s-.2.41-.46.33l-.93-.26-.81-.23a.88.88,0,0,1-.59-.79c0-.63,0-1.26,0-1.89a.55.55,0,0,1,0-.18.22.22,0,0,1,.31-.18l1.13.29.15.08.59.33.4.2s.05,0,.07.06a.87.87,0,0,1,.11.41c0,.31,0,.61,0,.91Z"/><path class="cls-8" d="M23.1,22.53l.66.29a.29.29,0,0,0,.27,0l.71-.3a.17.17,0,0,1,.1,0l.42.11a.86.86,0,0,1,.61.83q0,.95,0,1.89a.71.71,0,0,1,0,.14.32.32,0,0,1-.43.25l-1.74-.43a.81.81,0,0,1-.58-.67.91.91,0,0,1,0-.17V22.53"/><path class="cls-8" d="M23.49,20.83c0,.32,0,.64,0,1,0,.16-.06.22-.25.19a.8.8,0,0,1-.26-.09l-1.22-.61a1.27,1.27,0,0,1-.61-.66.59.59,0,0,1-.05-.22V18.55c0-.13.06-.18.19-.18a.72.72,0,0,1,.21.05c.35.13.68.28,1,.42.14.06.27.11.4.18a1.19,1.19,0,0,1,.54.67.47.47,0,0,1,0,.16v1"/><path class="cls-8" d="M24.28,20.82c0-.29,0-.59,0-.88a.9.9,0,0,1,.24-.63,1.3,1.3,0,0,1,.55-.38l1.17-.45a.69.69,0,0,1,.25,0,.15.15,0,0,1,.18.17v1c0,.26,0,.52,0,.78a.86.86,0,0,1-.2.57,1.33,1.33,0,0,1-.5.41l-1.15.55c-.09,0-.19.06-.28.09h-.08c-.12,0-.18,0-.18-.18v-1"/><path class="cls-8" d="M20.32,19.46v.92c0,.15-.05.2-.2.16a.86.86,0,0,1-.21-.07c-.48-.23-1-.45-1.43-.69a1,1,0,0,1-.54-.72V17.32h0c0-.17.07-.24.24-.18a3.85,3.85,0,0,1,.47.19c.37.15.73.29,1.09.45a1,1,0,0,1,.57.69.49.49,0,0,1,0,.12v.88"/><path class="cls-8" d="M27.46,19.53c0-.28,0-.55,0-.83a.87.87,0,0,1,.26-.61,1.17,1.17,0,0,1,.44-.29l1.36-.59.19,0a.13.13,0,0,1,.14.13V19a.82.82,0,0,1-.22.51.85.85,0,0,1-.35.27l-1.41.71a.76.76,0,0,1-.21.08c-.15,0-.19,0-.19-.16Z"/><path class="cls-8" d="M28.25,21.79v1.67a1,1,0,0,1-.1.48,2.88,2.88,0,0,1-.78,1l-.43.32-.27.19v-.06c0-.67,0-1.34,0-2a1.27,1.27,0,0,1,.25-.7,1.86,1.86,0,0,1,.52-.49l.59-.35a1.45,1.45,0,0,1,.22-.09"/><path class="cls-8" d="M28.25,25.13v.4c0,.39,0,.79,0,1.18a1.35,1.35,0,0,1-.14.59,3.94,3.94,0,0,1-1,1.29L26.7,29l0,0v0c0-.64,0-1.27,0-1.9a1.5,1.5,0,0,1,.27-.8,2.42,2.42,0,0,1,.7-.69l.52-.37.09-.05"/><path class="cls-8" d="M17.15,18.14V19a.2.2,0,0,1,0,.07.08.08,0,0,1-.09.08,1.06,1.06,0,0,1-.19-.06c-.29-.15-.57-.31-.85-.47a.82.82,0,0,1-.45-.74V16.24a.11.11,0,0,1,.14-.09l.23.1.73.32a.86.86,0,0,1,.48.64.19.19,0,0,1,0,.08v.85"/><path class="cls-8" d="M30.63,18.1v-.8a.83.83,0,0,1,.48-.73l.89-.36,0,0c.11,0,.16,0,.17.12v1.57a.81.81,0,0,1-.45.72l-.85.44a.65.65,0,0,1-.2.05s-.07,0-.08-.06a.31.31,0,0,1,0-.1V18.1"/><path class="cls-8" d="M26.08,17.88a1.74,1.74,0,0,1-.26.15l-1,.38a3,3,0,0,1-1.12.15,1.61,1.61,0,0,1-.53-.15L22,17.94l-.06,0,.26-.14c.31-.13.62-.26.93-.37a3.05,3.05,0,0,1,1.2-.15,1.68,1.68,0,0,1,.54.16l1.15.44.07,0"/><path class="cls-8" d="M23.09,16.74c-.1.05-.2.11-.3.15-.34.13-.68.27-1,.38a2.85,2.85,0,0,1-1,.12,1.7,1.7,0,0,1-.6-.14L19,16.77l-.05,0a2.49,2.49,0,0,1,.33-.16c.28-.12.57-.23.86-.33a3,3,0,0,1,1.15-.16,1.38,1.38,0,0,1,.53.13l1.25.49h0v0"/><path class="cls-8" d="M16,15.57a4,4,0,0,1,.36-.17l.85-.32a3.3,3.3,0,0,1,1-.16,1.94,1.94,0,0,1,.75.16l1.18.47s0,0,0,0l-.18.1a10.38,10.38,0,0,1-1.21.46,3.25,3.25,0,0,1-1,.09,1.65,1.65,0,0,1-.48-.14L16,15.61l0,0v0"/><path class="cls-8" d="M24.84,16.74l.37-.17c.29-.12.57-.24.87-.34a2.57,2.57,0,0,1,1.2-.1,2,2,0,0,1,.41.13l1.19.46,0,0-.16.09a8,8,0,0,1-1.26.48,2.44,2.44,0,0,1-1,.07,1.51,1.51,0,0,1-.41-.13l-1.26-.49a0,0,0,0,1,0,0"/><path class="cls-8" d="M26,15.6c-.13.06-.26.13-.39.18s-.51.22-.78.31a3.09,3.09,0,0,1-1.17.14,1.63,1.63,0,0,1-.52-.15l-1.19-.46,0,0a1.41,1.41,0,0,1,.24-.13c.33-.13.67-.27,1-.39A2.89,2.89,0,0,1,24.25,15a2.38,2.38,0,0,1,.5.15l1.15.45.05,0v0"/><path class="cls-8" d="M23,14.43a1.44,1.44,0,0,1-.45.22c-.25.1-.5.21-.75.29a3.09,3.09,0,0,1-1.21.13,1.81,1.81,0,0,1-.45-.14l-1.24-.48.1-.06.61-.26a4.5,4.5,0,0,1,.81-.26,2.59,2.59,0,0,1,1,0,1.87,1.87,0,0,1,.4.13l1.19.46h0"/><path class="cls-8" d="M31.7,15.62l-.29.14c-.3.12-.59.25-.89.35a2.87,2.87,0,0,1-1.09.14,2.07,2.07,0,0,1-.55-.17l-1.14-.44-.06,0,.25-.13.93-.36A2.8,2.8,0,0,1,30,15a1.51,1.51,0,0,1,.46.13l1.22.48v0"/><path class="cls-8" d="M24.75,14.46c.11-.05.21-.11.32-.15.28-.12.56-.23.85-.33a2.9,2.9,0,0,1,1.17-.13,2,2,0,0,1,.49.15l1.14.44.06,0-.32.16c-.28.11-.57.23-.86.33a2.64,2.64,0,0,1-1.22.12A2.16,2.16,0,0,1,26,15l-1.19-.46h0v0"/><path class="cls-8" d="M21.81,13.31l.37-.17c.27-.11.55-.22.84-.31a2.58,2.58,0,0,1,1.17-.11,2.44,2.44,0,0,1,.46.14l1.15.45.05,0a2.19,2.19,0,0,1-.27.13l-1,.38a3.13,3.13,0,0,1-.86.12A1.8,1.8,0,0,1,23,13.8c-.38-.16-.76-.3-1.15-.45l-.05,0Z"/><path class="cls-8" d="M30.24,20.36v.1c0,.44,0,.87,0,1.31a1.49,1.49,0,0,1-.25.85,1.73,1.73,0,0,1-.55.56l-.31.19-.09,0V21.73a1.15,1.15,0,0,1,.31-.77,3.31,3.31,0,0,1,.6-.44l.29-.16"/><path class="cls-8" d="M29,26.58V24.93a.49.49,0,0,1,0-.12,1.56,1.56,0,0,1,.25-.56,2.7,2.7,0,0,1,.79-.79l.12-.09h0a.43.43,0,0,0,0,.05v1.45a1.18,1.18,0,0,1-.17.54,2.89,2.89,0,0,1-.76.94l-.19.18-.08.06"/><path class="cls-8" d="M31.82,21.49v1.1a1.75,1.75,0,0,1-.17.75,2.91,2.91,0,0,1-.58.89l0,0v-.08c0-.4,0-.81,0-1.22a1.88,1.88,0,0,1,.66-1.36l.12-.11s0,0,0,0"/><path class="cls-8" d="M31.82,19v.08c0,.27,0,.55,0,.82a2,2,0,0,1-.17.76,1.84,1.84,0,0,1-.44.63l-.19.2V19.79a.22.22,0,0,1,.08-.18l.65-.52.06-.05"/></g></g></g></svg>