<svg width="44" height="44" viewBox="0 0 44 44" fill="none" xmlns="http://www.w3.org/2000/svg">
<path d="M31.1724 9.66401C31.1724 9 31.8276 9 32.4828 9L41 16.3041C40.5632 16.7467 39.5586 17.6321 39.0345 17.6321C38.3793 17.6321 37.069 18.9601 36.4138 20.9521C35.7586 22.9441 35.7586 22.2801 33.7931 24.9362C31.8276 27.5922 29.8621 26.9282 27.8966 27.5922C25.931 28.2562 25.2759 29.5842 21.3448 28.9202C17.4138 28.2562 18.7241 30.2482 16.7586 30.9122C14.7931 31.5762 12.8276 32.9042 10.2069 32.9042C7.58621 32.9042 7.58621 34.2323 5.62069 34.8963C4.04828 35.4275 3.21839 33.7896 3 32.9042C3 31.7976 3.13103 29.3186 3.65517 28.2562C4.31034 26.9282 4.31034 27.5922 4.96552 26.9282C5.62069 26.2642 5.62069 25.6002 5.62069 24.9362C5.62069 24.2722 6.27586 22.9441 6.27586 22.2801C6.27586 21.6161 6.93103 20.9521 6.93103 20.2881C6.93103 19.6241 5.62069 18.2961 5.62069 17.6321C5.62069 16.9681 7.58621 16.3041 8.89655 15.6401C10.2069 14.9761 11.5172 16.3041 14.1379 15.6401C16.7586 14.9761 16.1034 12.984 16.7586 12.32C17.4138 11.656 18.7241 11.656 19.3793 12.32C20.0345 12.984 21.3448 12.984 22.6552 12.984C23.9655 12.984 23.9655 10.992 24.6207 10.992C25.2759 10.992 27.2414 14.3121 27.8966 14.9761C28.5517 15.6401 30.5172 14.9761 31.1724 14.3121C31.8276 13.648 31.8276 11.656 31.8276 10.992C31.8276 10.328 31.1724 10.328 31.1724 9.66401Z" fill="#C1D4FE"/>
</svg>
