<svg width="44" height="44" viewBox="0 0 44 44" fill="none" xmlns="http://www.w3.org/2000/svg">
<path d="M27.1265 4.13758L26.1265 3.13758C25.4597 3.30424 24.026 3.53758 23.626 3.13758C23.226 2.73758 21.7926 3.30424 21.126 3.63758C20.126 3.80424 18.026 4.13758 17.626 4.13758C17.126 4.13758 16.126 4.63758 15.126 4.63758C14.126 4.63758 13.126 5.13758 13.126 5.63758C13.126 6.13758 12.126 6.63758 11.126 6.63758C10.326 6.63758 9.79264 6.97091 9.62598 7.13758C9.29279 7.30424 8.42643 7.63758 7.62643 7.63758C6.82643 7.63758 6.95976 8.63758 7.12643 9.13758C7.2931 9.97091 7.62643 10.7376 7.62643 11.1376C7.62643 11.6376 8.62643 11.6376 9.62643 11.6376C10.6264 11.6376 10.6264 12.1376 11.1264 12.6376C11.6264 13.1376 11.1264 15.1376 10.6264 15.6376C10.1264 16.1376 10.1264 17.1376 9.62643 17.6376C9.12643 18.1376 8.62643 18.6376 9.12643 20.1376C9.62643 21.6376 9.62643 21.1376 9.62643 21.6376C9.62643 22.1376 8.62643 22.6376 8.12643 22.6376C7.62643 22.6376 7.62643 23.6376 8.12643 24.6376C8.62643 25.6376 9.62643 25.1376 9.62643 26.1376C9.62643 27.1376 9.12651 28.1376 8.62651 28.6376C8.12651 29.1376 8.62651 30.1376 9.12651 30.1376C9.52651 30.1376 9.62651 31.1376 9.62651 31.6376L11.1265 33.1376C11.6265 33.6376 13.1265 33.1376 14.6265 33.1376C15.8265 33.1376 15.7932 34.1376 15.6265 34.6376V36.6376C15.6265 37.1376 16.6265 38.1376 17.1265 39.1376C17.6265 40.1376 18.1265 39.1376 18.6265 39.1376C19.1265 39.1376 20.6265 38.1376 21.1265 38.1376C21.6265 38.1376 21.6265 38.6376 21.6265 39.6376C21.6265 40.6376 23.6265 41.1376 24.6265 41.1376C25.6265 41.1376 27.1265 41.1376 27.6265 40.6376C28.1265 40.1376 27.1265 38.6376 27.1265 37.6376C27.1265 36.6376 27.6265 37.1376 28.6265 37.1376C29.6265 37.1376 30.6265 38.6376 32.1265 39.1376C33.6265 39.6376 34 38 34 37.5C34 37 33.1265 34.1376 34.1265 33.6376C35.1265 33.1376 35.6265 30.6376 36.1265 30.6376C36.5 29.5 36.1265 30.1376 36.6265 29.1376C37.1265 28.1376 36.1265 25.6376 35.6265 25.1376L34.6265 24.1376C34.2265 23.7376 33.7932 20.9709 33.6265 19.6376L33.1265 16.6376C32.9598 15.9709 32.5265 14.5376 32.1265 14.1376C31.6265 13.6376 31.1265 12.6376 31.1265 12.1376C31.1265 11.6376 31.6265 10.6376 31.6265 10.1376C31.6265 9.63758 31.1265 8.63758 31.1265 7.63758C31.1265 6.83758 30.1265 6.30424 29.6265 6.13758C29.2932 5.97091 28.5265 5.53758 28.1265 5.13758L27.1265 4.13758Z" fill="#C1D4FE"/>
</svg>
