<svg width="44" height="44" viewBox="0 0 44 44" fill="none" xmlns="http://www.w3.org/2000/svg">
<path d="M11.7216 12.5789C11.7216 13.0789 11.7216 14.0789 10.7216 14.5789C10.055 14.9122 8.52175 15.5789 7.72204 15.5789C6.72239 15.5789 6.72162 18.0789 6.22204 20.5789C5.72245 23.0789 6.22204 24.0789 6.22204 24.5789C6.22204 25.0789 7.72204 26.0789 7.72204 28.0789C7.72204 30.0789 7.22162 30.0789 6.72162 31.0789C6.22162 32.0789 8.22162 32.0789 10.2216 33.0789C12.2216 34.0789 12.7216 33.5789 15.2216 34.0789C17.7216 34.5789 18.7216 34.5789 20.2216 34.5789C21.7216 34.5789 24.2216 35.0789 24.2216 35.5789C24.2216 36.0789 25.7216 39.0789 27.2216 39.0789C28.7216 39.0789 32.2216 38.5789 33.7216 37.5789C35.2216 36.5789 35.2216 34.5789 35.2216 32.0789C35.2216 29.5789 34.2216 29.5789 32.7216 27.5789C31.2216 25.5789 33.7216 26.5789 35.7216 25.0789C37.7216 23.5789 38.2216 20.0789 37.7216 19.0789C37.2216 18.0789 37.2216 17.0789 38.2216 15.5789C39.2216 14.0789 37.7216 13.5789 37.2216 13.0789C36.7216 12.5789 36.2216 12.0789 34.7216 11.0789C33.2216 10.079 31.7216 11.5789 30.7216 12.0789C29.7216 12.5789 27.7216 12.5789 26.2216 11.5789C24.7216 10.5788 25.7216 10.0789 25.2216 8.57886C24.7216 7.07886 23.7216 8.57886 22.2216 8.57886C20.7216 8.57886 19.7216 7.07886 19.2216 6.57886C18.7216 6.07886 17.7216 5.57893 16.2216 5.07893C14.7216 4.57893 14.7216 6.57893 13.2216 7.57893C11.7216 8.57893 11.2216 8.57893 10.2216 9.07893C9.22162 9.57893 9.72162 10.5789 9.72162 11.0789C9.72162 11.5789 11.7216 12.0789 11.7216 12.5789Z" fill="#C1D4FE"/>
</svg>
