<svg width="44" height="44" viewBox="0 0 44 44" fill="none" xmlns="http://www.w3.org/2000/svg">
<path d="M15.0055 2.98437H15.444L16.3209 3.87869C16.7594 4.32584 17.1979 3.87874 17.6364 2.98437C18.0749 2.09 18.9519 2.53719 19.3904 2.09C19.8289 1.64282 20.2674 2.98437 20.2674 3.43155C20.2674 3.87874 20.7059 4.7731 20.7059 6.11465C20.7059 7.4562 21.5829 7.4562 22.8984 7.4562C24.2139 7.4562 25.0909 7.90339 25.9679 8.35057C26.8449 8.79775 26.8449 10.1393 29.0374 11.0337C31.23 11.928 30.3529 11.4809 30.7914 12.3752C31.23 13.2696 32.1069 14.6111 32.984 15.5055L35.1765 17.7414C36.0535 18.6358 35.615 19.083 37.8075 19.9773C40 20.8717 40 21.3189 40 22.2133C40 23.1076 39.5615 24.8964 38.6845 24.8964C37.8075 24.8964 36.492 24.002 36.492 22.6604C36.492 21.3189 34.738 22.2133 33.4225 21.7661C32.1069 21.3189 31.23 22.6604 30.7914 23.5548C30.3529 24.4492 27.7219 28.921 26.8449 28.921C25.9679 28.921 25.9679 29.8154 24.6524 31.1569C23.3369 32.4985 23.3369 34.2872 24.2139 36.0759C25.0909 37.8647 25.5294 39.2062 25.5294 39.6534C25.5294 40.1006 23.7326 41.3521 22.8556 40.905C21.9786 40.4578 21.5401 39.1162 20.7059 37.8647C19.3904 36.5231 19.3904 37.4175 18.5134 38.759C17.8118 39.8323 15.0053 38.3119 13.6898 37.4175C13.5437 37.2684 13.2513 36.8809 13.2513 36.5231V32.0513C13.2513 30.7097 11.9358 30.2626 11.4973 28.921C11.0588 27.5795 10.6203 24.8964 10.6203 24.002C10.6203 23.1076 9.74331 21.7661 9.30481 20.8717C8.86631 19.9773 8.4278 19.083 8.86631 17.7414C9.30481 16.3999 7.11229 13.2696 6.67379 13.2696C6.23543 13.2696 5.79679 12.8223 4.48142 12.3752C4.13061 12.0175 3.89825 11.3318 4.04442 11.0336C4.62909 10.5864 6.23705 9.15546 6.23705 8.79771C6.23705 8.35053 6.67393 7.4562 7.11243 6.56184C7.46323 5.84634 9.30657 5.22025 10.1836 5.22025C11.059 5.22025 11.2337 5.13116 11.9323 4.77498L11.936 4.7731C12.813 4.32592 12.813 4.32592 13.2515 3.87874C13.6023 3.52099 14.567 3.13343 15.0055 2.98437Z" fill="#C1D4FE"/>
</svg>
