<svg width="44" height="44" viewBox="0 0 44 44" fill="none" xmlns="http://www.w3.org/2000/svg">
<path d="M38.7226 20.2755C38.7226 21.2755 40.2226 22.7755 39.2226 24.7755C38.3893 25.1088 36.6226 25.7754 36.2224 25.7754C35.7222 25.7754 36.7227 26.7754 38.7226 27.7754C40.7225 28.7754 38.7226 29.2754 38.2227 29.7754C37.7227 30.2754 35.7226 31.2754 33.2227 31.7754C30.7227 32.2754 30.7227 33.2754 30.2227 34.7754C29.7227 36.2754 28.2227 37.2754 27.2227 37.7754C26.2227 38.2754 21.7227 38.2754 21.2227 38.7754C20.7227 39.2754 17.7227 39.7754 16.2227 38.7754C14.7227 37.7754 13.2222 36.7754 12.2227 36.2754C11.2231 35.7754 9.22266 35.7754 6.22266 34.7754C3.22266 33.7754 4.22222 33.2754 4.22222 31.7754C4.22222 30.2754 3.72222 28.2754 4.22222 27.7754C4.72222 27.2754 5.72222 25.2754 6.72222 23.7754C7.72222 22.2754 5.72222 21.2754 5.72222 19.2754C5.72222 17.2754 7.22222 16.2754 7.72222 15.2754C8.22222 14.2754 7.72222 12.7754 8.22222 11.7755C8.72222 10.7756 11.2222 11.2754 13.2222 11.2754C15.2222 11.2754 17.7222 9.27551 18.2222 8.27539C18.7222 7.27527 19.7222 6.77551 22.7222 4.77551C25.7222 2.77551 27.7222 5.27551 28.7222 5.27551C29.7222 5.27551 34.2222 4.77551 34.7222 4.77551C35.2222 4.77551 34.2224 5.77551 33.7224 6.77551C33.2224 7.77551 34.2224 8.77551 35.7226 9.27551C37.2228 9.77551 36.2224 10.7755 36.2224 11.7755V11.7766C36.2224 12.7755 36.2224 12.7762 35.7226 14.7755C35.2226 16.7755 36.2226 16.7755 37.2226 17.2755C38.2226 17.7755 38.7226 19.2755 38.7226 20.2755Z" fill="#C1D4FE"/>
</svg>
