<svg width="312" height="312" viewBox="0 0 312 312" fill="none" xmlns="http://www.w3.org/2000/svg">
<path fill-rule="evenodd" clip-rule="evenodd" d="M13.5729 147.133C-9.18174 108.067 -2.8606 59.6433 29.042 27.6101C48.9106 7.66974 75.6864 -2.18555 103.761 0.407945C139.84 3.74244 172.166 34.694 196.494 59.1247C197.169 59.7989 197.169 60.903 196.494 61.5774C195.811 62.2516 194.713 62.2516 194.038 61.57C170.429 37.8581 138.475 7.09177 103.449 3.86842C76.3986 1.37867 50.6466 10.856 31.5052 30.0627C0.708039 60.9772 -5.39055 107.682 16.5703 145.399C17.0526 146.221 16.7706 147.281 15.9471 147.77C15.1236 148.244 14.0552 147.963 13.5729 147.133Z" fill="#243E8F"/>
<path fill-rule="evenodd" clip-rule="evenodd" d="M298.565 164.86C321.088 203.929 314.831 252.371 283.259 284.383C263.586 304.324 237.082 314.181 209.292 311.594C173.586 308.274 141.582 277.314 117.501 252.874C116.833 252.2 116.833 251.103 117.501 250.429C118.177 249.755 119.264 249.755 119.932 250.435C143.3 274.15 174.93 304.918 209.6 308.141C236.369 310.639 261.867 301.16 280.806 281.953C311.292 251.036 317.321 204.314 295.582 166.61C295.112 165.788 295.384 164.72 296.206 164.245C297.037 163.749 298.088 164.031 298.565 164.86Z" fill="#243E8F"/>
<path fill-rule="evenodd" clip-rule="evenodd" d="M167.934 11.2642C208.223 -9.4887 256.557 -1.0036 287.231 32.0833C306.33 52.689 314.985 79.6748 311.082 107.367C306.061 142.964 273.481 173.578 247.821 196.561C247.106 197.187 246.003 197.142 245.354 196.435C244.707 195.729 244.759 194.641 245.474 194.007C270.39 171.708 302.761 141.455 307.625 106.896C311.387 80.2194 303.059 54.2565 284.661 34.4088C255.046 2.46994 208.432 -5.71345 169.542 14.3182C168.694 14.7524 167.636 14.4286 167.196 13.5897C166.757 12.7434 167.077 11.6984 167.934 11.2642Z" fill="#243E8F"/>
<path fill-rule="evenodd" clip-rule="evenodd" d="M142.073 300.738C102.339 321.486 54.6783 313.006 24.4203 279.917C5.58512 259.317 -2.94356 232.33 0.905732 204.628C5.84957 169.035 37.9882 138.42 63.2951 115.443C63.993 114.81 65.0875 114.861 65.7266 115.56C66.3584 116.267 66.3144 117.356 65.6017 117.989C41.0367 140.296 9.11121 170.538 4.31426 205.098C0.604547 231.785 8.81003 257.743 26.9619 277.599C56.1622 309.533 102.141 317.718 140.494 297.691C141.331 297.25 142.374 297.581 142.808 298.42C143.241 299.251 142.918 300.297 142.073 300.738Z" fill="#243E8F"/>
<path d="M79 82.0417L115.984 118L122 111.958L85.0155 76L79 82.0417Z" fill="#243E8F"/>
<path d="M234.4 77L200 111.295L203.6 115L238 80.7055L234.4 77Z" fill="#243E8F"/>
<path d="M240 229.954L203.02 194L197 200.046L233.98 236L240 229.954Z" fill="#243E8F"/>
<path d="M79.6988 240L115 205.709L111.3 202L76 236.291L79.6988 240Z" fill="#243E8F"/>
<path fill-rule="evenodd" clip-rule="evenodd" d="M142.583 139.549C142.415 139.76 139.748 142.408 139.588 142.51C138.77 142.313 136.001 141 135.621 141.059C135.176 141.205 132.604 146.026 132.341 146.478L135.57 149.308C135.504 149.906 134.73 151.729 134.482 153.509L130.223 154.115L130.23 160.628C130.99 160.745 131.859 160.92 132.531 161.036L134.182 161.379C134.62 161.547 134.62 162.648 134.883 163.633C135.066 164.333 135.256 164.989 135.468 165.587C134.781 166.31 132.67 167.622 132.217 168.272L135.329 173.785C136.359 173.72 138.068 172.721 139.295 172.466L139.756 172.897C140.377 173.612 141.765 175.084 142.459 175.5L140.976 179.439C141.472 179.876 145.965 182.487 146.527 182.648L149.267 179.629C149.822 179.709 150.684 180.051 151.283 180.212C152.057 180.401 152.678 180.526 153.489 180.708L154.175 184.668C154.723 184.982 159.186 184.668 160.596 184.85C160.677 183.968 160.947 180.978 161.67 180.693L162.466 180.518C163.847 180.227 164.483 179.928 165.643 179.629C166.527 180.671 167.411 181.787 168.216 182.824L173.716 179.715C173.738 178.542 172.488 176.704 172.488 175.609C173.702 174.676 174.402 173.654 175.579 172.568L179.385 174.005C179.853 173.626 180.605 172.035 181.027 171.328C181.474 170.555 182.256 169.417 182.62 168.535C182.379 168.163 180.013 166.106 179.487 165.901C179.552 165.573 180.634 161.671 180.663 161.613C181.24 161.255 183.834 161.014 184.783 160.905L184.775 154.436C184.221 154.304 180.823 153.794 180.758 153.604L179.508 149.446C180.597 148.513 181.824 147.776 182.774 146.763C182.467 145.975 180.275 142.459 179.61 141.197L175.571 142.62C174.498 141.708 173.658 140.592 172.496 139.695C172.78 138.462 173.905 136.624 174.015 135.457C173.38 135.326 169.633 132.868 168.494 132.394L165.702 135.742C164.789 135.647 164.519 135.391 163.73 135.114C163.102 134.881 162.401 134.786 161.597 134.706L161.02 131.052C160.954 130.541 161.035 130.228 160.56 130.228H154.752C154.219 130.228 154.3 130.716 154.219 131.249L153.576 134.852C152.568 134.4 150.494 135.523 149.515 135.749C149.091 135.129 148.668 134.597 148.185 133.955C147.842 133.488 147.229 132.554 146.819 132.321C146.403 132.467 145.746 132.89 145.344 133.138L142.524 134.706C141.925 134.998 141.64 135.173 141.18 135.494L142.583 139.549ZM125 157.032C125 139.315 140.121 124.684 158.098 125.005C175.944 125.319 190.217 140.03 189.998 158.221C189.897 166.478 185.878 175.529 180.064 180.883C158.478 200.773 125 185.996 125 157.032Z" fill="#243E8F"/>
<path d="M233.462 207H232.538C220.09 207 210 217.297 210 230C210 242.703 220.09 253 232.538 253H233.462C245.91 253 256 242.703 256 230C256 217.297 245.91 207 233.462 207Z" fill="url(#paint0_linear)"/>
<path d="M250 80.7882V80.2115C250 72.3628 243.731 66 236 66C228.269 66 222 72.3628 222 80.2115V80.7882C222 88.6372 228.269 95 236 95C243.731 95 250 88.6372 250 80.7882Z" fill="url(#paint1_linear)"/>
<path d="M94 236.275V235.725C94 228.145 87.732 222 80.0002 222C72.268 222 66 228.145 66 235.725V236.275C66 243.856 72.268 250 80.0002 250C87.732 250 94 243.856 94 236.275Z" fill="url(#paint2_linear)"/>
<path d="M105 83.475V82.5253C105 69.5325 94.7026 59 82 59C69.2974 59 59 69.5325 59 82.5246V83.475C59 96.4668 69.2974 107 82 107C94.7026 107 105 96.4668 105 83.475Z" fill="url(#paint3_linear)"/>
<path fill-rule="evenodd" clip-rule="evenodd" d="M127.687 120.789C127.354 121.221 122.009 126.553 121.698 126.769C120.07 126.367 114.533 123.73 113.771 123.827C112.882 124.125 107.745 133.836 107.212 134.745L113.682 140.442C113.556 141.633 111.994 145.297 111.505 148.901L103 150.115L103.015 163.222C104.54 163.445 106.279 163.81 107.627 164.041L110.913 164.726C111.779 165.061 111.787 167.287 112.312 169.261C112.682 170.661 113.06 171.98 113.489 173.178C112.105 174.638 107.886 177.283 106.975 178.593L113.2 189.696C115.258 189.576 118.686 187.559 121.136 187.053L122.046 187.923C123.29 189.338 126.058 192.31 127.457 193.159L124.482 201.082C125.466 201.969 134.46 207.219 135.578 207.539L141.041 201.463C142.151 201.619 143.869 202.318 145.083 202.638C146.622 203.049 147.866 203.279 149.487 203.645L150.849 211.627C151.937 212.268 160.857 211.621 163.677 212C163.84 210.22 164.388 204.21 165.832 203.645L167.431 203.264C170.198 202.668 171.457 202.074 173.774 201.463C175.551 203.569 177.305 205.827 178.919 207.919L189.911 201.657C189.956 199.296 187.454 195.587 187.454 193.405C189.875 191.514 191.28 189.473 193.627 187.268L201.222 190.181C202.162 189.406 203.68 186.226 204.502 184.774C205.397 183.21 206.951 180.924 207.699 179.159C207.211 178.406 202.472 174.273 201.422 173.841C201.571 173.186 203.724 165.322 203.775 165.217C204.932 164.495 210.106 164.019 212 163.788L211.985 150.778C210.882 150.495 204.088 149.482 203.954 149.088L201.467 140.717C203.643 138.84 206.093 137.351 207.98 135.31C207.359 133.717 202.999 126.65 201.666 124.103L193.582 126.955C191.437 125.123 189.764 122.881 187.447 121.064C188.002 118.577 190.266 114.869 190.474 112.53C189.201 112.269 181.71 107.325 179.437 106.356L173.863 113.103C172.02 112.925 171.495 112.411 169.939 111.837C168.666 111.376 167.267 111.175 165.654 111.026L164.491 103.668C164.359 102.626 164.529 102 163.581 102H151.981C150.908 102 151.078 102.976 150.916 104.055L149.635 111.309C147.621 110.393 143.469 112.649 141.514 113.103C140.671 111.86 139.819 110.788 138.864 109.499C138.176 108.568 136.962 106.677 136.133 106.23C135.311 106.52 133.994 107.384 133.187 107.861L127.554 111.018C126.362 111.607 125.784 111.964 124.867 112.604L127.687 120.789ZM119.063 156.386C119.063 135.273 136.955 117.84 158.214 118.22C179.326 118.599 196.218 136.137 195.952 157.815C195.825 167.639 191.065 178.437 184.203 184.819C158.666 208.537 119.063 190.91 119.063 156.386Z" fill="#243E8F"/>
<path d="M22.0948 140L40.4568 121.63C29.4388 84.8911 36.7841 66.5217 62.4926 48.1521C97.2751 23.2986 128.601 55.4998 139.619 62.8477C148.433 68.726 164.103 61.6231 169 59.1737C121.256 4.06495 71.033 17.1692 55.1481 26.1079C-3.61339 59.1737 13.5254 119.181 22.0948 140Z" fill="url(#paint4_linear)"/>
<path d="M138 287.846L119.48 269.368C82.4394 280.456 63.9194 273.064 45.3992 247.19C20.342 212.184 52.8072 180.658 60.2153 169.57C66.1418 160.698 58.9807 144.928 56.5113 140C0.950676 188.05 14.1624 238.596 23.1744 254.582C56.5112 313.72 117.01 296.471 138 287.846Z" fill="url(#paint5_linear)"/>
<path d="M169 24.0948L187.52 42.4568C224.561 31.4388 243.08 38.7841 261.601 64.4926C286.658 99.275 254.193 130.601 246.785 141.619C240.858 150.433 248.02 166.103 250.488 171C306.049 123.256 292.838 73.033 283.826 57.1481C250.488 -1.61341 189.989 15.5254 169 24.0948Z" fill="url(#paint6_linear)"/>
<path d="M287.846 177L269.368 195.369C280.456 232.109 273.064 250.479 247.19 268.848C212.184 293.701 180.658 261.5 169.57 254.152C160.698 248.274 144.928 255.377 140 257.827C188.05 312.935 238.596 299.831 254.582 290.892C313.72 257.827 296.471 197.819 287.846 177Z" fill="url(#paint7_linear)"/>
<defs>
<linearGradient id="paint0_linear" x1="232.924" y1="241.451" x2="232.924" y2="218.451" gradientUnits="userSpaceOnUse">
<stop stop-color="#971B1E"/>
<stop offset="1" stop-color="#C93827"/>
</linearGradient>
<linearGradient id="paint1_linear" x1="250.315" y1="80.5243" x2="221.728" y2="80.5243" gradientUnits="userSpaceOnUse">
<stop stop-color="#E04226"/>
<stop offset="1" stop-color="#F16822"/>
</linearGradient>
<linearGradient id="paint2_linear" x1="79.984" y1="222.007" x2="79.984" y2="250.033" gradientUnits="userSpaceOnUse">
<stop stop-color="#243E8F"/>
<stop offset="1" stop-color="#08AFD8"/>
</linearGradient>
<linearGradient id="paint3_linear" x1="105.528" y1="83.1998" x2="58.5809" y2="83.1998" gradientUnits="userSpaceOnUse">
<stop stop-color="#036635"/>
<stop offset="1" stop-color="#81C241"/>
</linearGradient>
<linearGradient id="paint4_linear" x1="-14.6312" y1="128.978" x2="121.287" y2="33.5015" gradientUnits="userSpaceOnUse">
<stop stop-color="#971B1E"/>
<stop offset="1" stop-color="#C93827"/>
</linearGradient>
<linearGradient id="paint5_linear" x1="126.888" y1="324.808" x2="30.8575" y2="187.857" gradientUnits="userSpaceOnUse">
<stop stop-color="#E34825"/>
<stop offset="1" stop-color="#EF6322"/>
</linearGradient>
<linearGradient id="paint6_linear" x1="180.111" y1="-12.6312" x2="275.322" y2="124.019" gradientUnits="userSpaceOnUse">
<stop stop-color="#243E8F"/>
<stop offset="1" stop-color="#08ADD7"/>
</linearGradient>
<linearGradient id="paint7_linear" x1="324.808" y1="188.021" x2="188.597" y2="284.316" gradientUnits="userSpaceOnUse">
<stop stop-color="#036635"/>
<stop offset="1" stop-color="#81C241"/>
</linearGradient>
</defs>
</svg>
