<svg width="246" height="200" viewBox="0 0 246 200" fill="none" xmlns="http://www.w3.org/2000/svg">
<path d="M207.336 11C207.336 11.8 208.669 11.6667 209.336 11.5C210.336 12.1667 212.936 13.8 215.336 15C218.336 16.5 219.336 18 220.336 19.5C221.336 21 221.836 22.5 220.836 25C219.836 27.5 215.836 31 213.336 31.5C210.836 32 212.836 34.5 211.836 37C210.836 39.5 214.836 38.5 217.336 40C219.836 41.5 224.336 45 223.336 47.5C222.336 50 219.836 50.5 219.336 52.5C218.836 54.5 214.836 55.5 214.836 57.5C214.836 59.5 214.836 60 215.336 62C215.836 64 218.836 65 220.336 67C221.836 69 223.836 70.5 226.836 73C229.236 75 229.169 75.8333 228.836 76C228.836 77 228.736 79.2 228.336 80C227.836 81 228.836 85 229.836 86.5C230.836 88 231.836 89 237.836 89.5C243.836 90 242.836 96 241.336 96.5C239.836 97 240.336 99 241.836 100.5C243.336 102 244.836 105.5 244.836 106C244.836 106.5 243.336 110.5 243.336 111.5C243.336 112.5 243.336 114.5 241.336 117.5C239.336 120.5 242.836 120.5 244.836 122C246.836 123.5 245.836 126 244.836 126C243.836 126 238.836 127 236.836 126C234.836 125 235.336 122.5 235.336 121.5C235.336 120.5 234.336 119.5 232.836 118.5C231.336 117.5 229.336 116 228.336 115.5C227.336 115 224.336 116.5 222.836 118.5C221.336 120.5 222.836 121 221.336 123.5C219.836 126 218.336 126.5 216.836 127.5C215.336 128.5 212.836 128.5 210.836 127C209.236 125.8 207.503 127.167 206.836 128C208.169 129.5 210.836 132.7 210.836 133.5C210.836 134.5 209.336 141 208.336 142C207.336 143 205.836 142 204.836 141.5C203.836 141 200.836 140 199.336 139C197.836 138 197.836 139.5 197.836 140C197.836 140.5 196.836 142 193.836 143.5C190.836 145 191.336 145.5 186.336 147.5C181.336 149.5 180.836 150 178.336 150.5C175.836 151 176.836 154 174.336 155C171.836 156 171.336 153.5 168.836 152.5C166.336 151.5 164.336 152 163.336 150.5C162.336 149 160.336 147.5 156.836 148C153.336 148.5 153.336 149.5 153.336 150.5C153.336 151.5 156.336 152 157.336 153.5C158.336 155 155.836 161.5 155.336 162C154.836 162.5 151.336 163.5 150.836 164.5C150.336 165.5 150.836 167.5 151.336 170.5C151.836 173.5 149.336 174.5 146.836 177C144.336 179.5 145.336 178.5 142.836 179.5C140.336 180.5 138.836 179.5 135.336 179.5C131.836 179.5 130.336 182 128.336 182.5C126.336 183 126.336 182.5 124.836 181.5C123.336 180.5 122.336 179.5 120.336 178.5C118.336 177.5 119.336 178 117.336 178C115.336 178 115.336 176 113.336 174.5C111.336 173 110.836 174.5 108.836 175C106.836 175.5 106.336 174 103.336 173.5C100.336 173 100.836 174.5 100.336 176.5C99.8359 178.5 101.836 180.5 100.836 181.5C99.8359 182.5 98.3359 180 95.8359 179.5C93.3359 179 93.8359 181 94.8359 182.5C95.8359 184 94.3359 185.5 93.8359 187C93.3359 188.5 90.8359 190.5 89.3359 192C87.8359 193.5 85.8359 194.5 83.8359 194.5C81.8359 194.5 80.3359 195.5 78.8359 196.5C77.3359 197.5 75.8359 198.5 75.3359 199C74.8359 199.5 70.8359 199 66.8359 198.5C62.8359 198 62.8359 197 61.3359 196C59.8359 195 56.8359 195 53.8359 194.5C50.8359 194 51.8359 195 49.8359 195.5C47.8359 196 47.3359 196.5 42.8359 195C38.3359 193.5 40.3359 192 39.8359 191C39.3359 190 36.3359 190.5 34.3359 190.5C32.3359 190.5 31.8359 190.5 31.3359 193C30.8359 195.5 30.3359 194.5 29.3359 194C28.3359 193.5 27.3359 192.5 25.8359 191.5C24.3359 190.5 22.8359 192 21.3359 191.5C19.8359 191 19.3359 189.5 18.3359 189C17.3359 188.5 18.3359 186 18.8359 184.5C19.3359 183 18.8359 182 18.3359 181C17.8359 180 17.3359 178 17.8359 177C18.3359 176 20.8359 175 21.8359 174.5C22.8359 174 21.3359 172 20.8359 170.5C20.3359 169 21.3359 167.5 22.8359 167C24.3359 166.5 22.8359 165 21.3359 164C19.8359 163 21.3359 161 21.8359 160C22.3359 159 22.3359 159.5 23.3359 158C24.3359 156.5 22.8359 157 21.8359 156.5C20.8359 156 18.8359 156 16.3359 156C13.8359 156 14.8359 154.5 14.3359 152.5C13.8359 150.5 13.8359 150 13.8359 149C13.8359 148 11.3359 148 9.83594 147.5C8.33594 147 6.83594 145.5 6.83594 144.5C6.83594 143.5 6.33594 142.5 7.83594 141C9.33594 139.5 9.83594 136.5 9.83594 135.5C9.83594 134.5 7.83594 135 7.33594 135.5C6.83594 136 4.83594 135.5 3.33594 135C1.83594 134.5 1.83594 133 1.33594 133C0.835938 133 0.835938 131 0.835938 130.5C0.835938 130 1.33639 129 0.336385 128.5C-0.663615 128 0.836385 126.5 1.33639 126C1.83639 125.5 2.83639 125.5 3.33639 125C3.83639 124.5 3.33639 123 3.33639 121C3.33639 119 5.33639 121 5.83639 120.5C6.33639 120 5.83639 118 5.83639 117C5.83639 116 8.33638 114.5 9.33638 114.5C10.3364 114.5 11.3364 117.5 11.8364 117.5C12.3364 117.5 14.8364 117 15.8364 116.5C16.8364 116 18.3364 117.5 19.3364 118C20.3364 118.5 20.3364 118.5 21.8364 118.5C23.3364 118.5 24.3364 118 25.3364 117.5C26.3364 117 26.8364 116.5 27.8364 116C28.8364 115.5 29.8364 114.5 29.3364 114C28.8364 113.5 28.8364 111.5 29.3364 110.5C29.8364 109.5 32.3364 108 33.3364 108C34.3364 108 35.8364 107.5 36.8364 108C37.8364 108.5 37.3364 108.5 37.8364 109.5C38.3364 110.5 38.3364 109 38.8364 108.5C39.3364 108 40.3364 106 41.8364 105.5C43.3364 105 48.3364 104.5 48.3364 102C48.3364 99.5 50.8364 99 51.3364 100.5C51.8364 102 53.3364 100.5 53.8364 100C54.3364 99.5 55.3364 97.5 55.3364 97C55.3364 96.5 59.3364 95.5 60.3364 95C61.3364 94.5 61.8364 92.5 62.3364 91.5C62.8364 90.5 66.3364 87.5 67.3364 87C68.3364 86.5 70.3364 87 70.8364 87C71.3364 87 75.3364 88 76.3364 88.5C77.3364 89 78.8364 89 80.3364 89.5C81.8364 90 81.8364 87.5 81.8364 87C81.8364 86.5 80.8364 84 80.8364 83C80.8364 82 82.3364 81.5 82.8364 81C83.3364 80.5 83.8364 77 85.3364 75C86.8364 73 90.3364 72 91.8362 72.5C93.3359 73 92.3364 71 92.3364 70C92.3364 69 91.3364 67.5 90.8364 65.5C90.3364 63.5 91.8362 63.5 92.3364 63C92.8367 62.5 94.3364 61.5 95.8364 61C97.3364 60.5 95.3362 57 95.8364 55.5C96.3367 54 94.3362 54 93.3362 53C92.3362 52 90.8362 50.5 91.8362 48C92.8362 45.5 92.8362 45 95.3362 44.5C97.8362 44 97.3362 44.5 100.336 45.5C103.336 46.5 102.836 45 103.836 44.5C104.836 44 108.336 41.5 108.836 41.5C109.336 41.5 112.336 42.5 114.336 43C116.336 43.5 117.836 44 118.336 44C118.836 44 120.836 46 123.836 48C126.836 50 126.336 49 127.836 49C129.336 49 127.836 47.5 128.336 46C128.836 44.5 128.336 40.5 128.836 40C129.336 39.5 131.336 39.5 132.336 39.5C133.336 39.5 135.836 41.5 137.836 42C139.836 42.5 139.836 41 140.336 40.5L143.836 37C144.836 36 145.336 33.5 145.336 32.5C145.336 31.5 144.836 31 144.836 29.5C144.836 28 148.336 30 149.836 30C151.336 30 151.336 27.5 152.836 27C154.336 26.5 157.336 26.5 158.336 26.5C159.336 26.5 160.836 27 163.336 27.5C165.836 28 166.336 26.5 167.836 26C169.336 25.5 172.336 21 173.336 21C174.336 21 176.336 21.5 177.336 21.5C178.336 21.5 180.336 20.5 180.836 21C181.336 21.5 183.336 20 184.336 19.5C185.336 19 184.336 16 186.336 15.5C188.336 15 187.336 13.5 187.336 12C187.336 10.5 188.836 9 189.336 8.5C189.836 8 193.336 7.5 193.336 6C193.336 4.5 191.836 4 191.336 3C190.836 2 192.836 2 193.836 1C194.836 0 196.836 0.5 197.836 0.5C198.836 0.5 200.336 0 200.836 0C201.336 0 203.836 1 204.336 1.5C204.836 2 204.836 3.5 204.836 5C204.836 6.5 206.336 7.5 206.336 8C206.336 8.5 207.336 10 207.336 11Z" fill="#EFF5FF"/>
<path d="M219.836 68.5C219.836 68 220.336 68 220.836 68L227.336 73.5C227.003 73.8333 226.236 74.5 225.836 74.5C225.336 74.5 224.336 75.5 223.836 77C223.336 78.5 223.336 78 221.836 80C220.336 82 218.836 81.5 217.336 82C215.836 82.5 215.336 83.5 212.336 83C209.336 82.5 210.336 84 208.836 84.5C207.336 85 205.836 86 203.836 86C201.836 86 201.836 87 200.336 87.5C199.136 87.9 198.503 86.6667 198.336 86C198.336 85.1667 198.436 83.3 198.836 82.5C199.336 81.5 199.336 82 199.836 81.5C200.336 81 200.336 80.5 200.336 80C200.336 79.5 200.836 78.5 200.836 78C200.836 77.5 201.336 77 201.336 76.5C201.336 76 200.336 75 200.336 74.5C200.336 74 201.836 73.5 202.836 73C203.836 72.5 204.836 73.5 206.836 73C208.836 72.5 208.336 71 208.836 70.5C209.336 70 210.336 70 210.836 70.5C211.336 71 212.336 71 213.336 71C214.336 71 214.336 69.5 214.836 69.5C215.336 69.5 216.836 72 217.336 72.5C217.836 73 219.336 72.5 219.836 72C220.336 71.5 220.336 70 220.336 69.5C220.336 69 219.836 69 219.836 68.5Z" fill="#C1D4FE"/>
<path fill-rule="evenodd" clip-rule="evenodd" d="M220.819 67.8501L220.89 67.8501L227.557 73.4909L227.442 73.6062C227.271 73.7768 226.99 74.0321 226.699 74.2459C226.554 74.3528 226.403 74.4517 226.26 74.5245C226.12 74.5953 225.971 74.6501 225.836 74.6501C225.755 74.6501 225.629 74.693 225.467 74.8037C225.309 74.9117 225.131 75.0738 224.949 75.2852C224.587 75.7077 224.222 76.3156 223.978 77.0475C223.726 77.8032 223.594 78.0731 223.328 78.4063C223.248 78.5056 223.16 78.6073 223.055 78.7286C222.812 79.008 222.479 79.3916 221.956 80.0901C221.183 81.1198 220.403 81.5129 219.622 81.7081C219.292 81.7905 218.962 81.8376 218.641 81.8835C218.588 81.8911 218.535 81.8986 218.482 81.9063C218.108 81.9609 217.744 82.0219 217.383 82.1424C217.02 82.2635 216.716 82.4151 216.412 82.5711C216.391 82.5818 216.37 82.5926 216.349 82.6035C216.067 82.7484 215.779 82.8962 215.449 83.0161C214.732 83.2768 213.83 83.4013 212.311 83.1481C211.569 83.0244 211.091 83.0276 210.767 83.0997C210.451 83.1698 210.276 83.3063 210.138 83.4711C210.074 83.5483 210.015 83.6394 209.952 83.7371C209.747 84.0529 209.497 84.4377 208.883 84.6424C208.514 84.7653 208.144 84.9193 207.762 85.0833C207.699 85.1103 207.635 85.1376 207.571 85.1651C207.25 85.3036 206.919 85.4461 206.577 85.5776C205.756 85.8934 204.861 86.1501 203.836 86.1501C202.869 86.1501 202.399 86.3889 201.985 86.6847C201.899 86.7466 201.813 86.8126 201.724 86.8808C201.382 87.1433 201.001 87.4365 200.383 87.6424C200.056 87.7515 199.759 87.7512 199.497 87.6718C199.236 87.5929 199.018 87.4388 198.84 87.2542C198.487 86.8878 198.277 86.3861 198.19 86.0365L198.186 86.0186V86.0001C198.186 85.5788 198.211 84.8981 198.286 84.2209C198.361 83.5502 198.488 82.8593 198.701 82.433C198.951 81.9331 199.095 81.7653 199.268 81.6784C199.305 81.6602 199.341 81.6465 199.371 81.635C199.373 81.6342 199.375 81.6333 199.378 81.6325C199.41 81.6199 199.44 81.6085 199.472 81.5925C199.533 81.5617 199.614 81.5095 199.729 81.394C200.183 80.9407 200.186 80.4979 200.186 80.0001C200.186 79.8543 200.221 79.6822 200.269 79.5075C200.317 79.3316 200.381 79.1408 200.442 78.9551L200.443 78.9527C200.506 78.7642 200.567 78.5808 200.613 78.4138C200.659 78.2447 200.686 78.1043 200.686 78.0001C200.686 77.7144 200.824 77.437 200.943 77.1993C200.946 77.1939 200.949 77.1884 200.951 77.183C201.081 76.9243 201.186 76.7078 201.186 76.5001C201.186 76.4161 201.14 76.289 201.048 76.1188C200.958 75.9539 200.837 75.7723 200.711 75.5833L200.708 75.5797C200.585 75.3948 200.457 75.2028 200.36 75.0251C200.265 74.8515 200.186 74.6661 200.186 74.5001C200.186 74.3009 200.331 74.1367 200.492 74.008C200.661 73.8728 200.891 73.7421 201.143 73.6159C201.397 73.4894 201.68 73.3633 201.96 73.2389L201.962 73.238C202.244 73.1127 202.522 72.9891 202.768 72.8659C203.285 72.6077 203.804 72.7134 204.362 72.8271C204.404 72.8357 204.447 72.8444 204.49 72.853C205.108 72.9766 205.832 73.0965 206.799 72.8546C207.28 72.7343 207.601 72.5566 207.821 72.3575C208.041 72.1588 208.17 71.9312 208.258 71.6974C208.325 71.5183 208.366 71.3426 208.406 71.1691C208.42 71.1108 208.433 71.0528 208.448 70.995C208.502 70.7775 208.572 70.5515 208.729 70.394C209.014 70.1095 209.431 69.9751 209.836 69.9751C210.24 69.9751 210.657 70.1095 210.942 70.394C211.157 70.6094 211.492 70.7281 211.919 70.7891C212.344 70.8498 212.833 70.8501 213.336 70.8501C213.739 70.8501 213.952 70.5571 214.139 70.183C214.167 70.1265 214.196 70.0663 214.224 70.0058C214.283 69.8813 214.342 69.7553 214.403 69.6563C214.492 69.5112 214.624 69.3501 214.836 69.3501C214.952 69.3501 215.064 69.4178 215.158 69.4897C215.258 69.567 215.366 69.6741 215.478 69.798C215.703 70.0465 215.956 70.3801 216.207 70.7244C216.356 70.9297 216.507 71.1426 216.65 71.345C216.746 71.4808 216.839 71.612 216.926 71.7329C217.147 72.0406 217.327 72.2795 217.442 72.394C217.531 72.4834 217.677 72.5393 217.877 72.5536C218.076 72.5678 218.309 72.5396 218.549 72.4796C219.034 72.3583 219.506 72.118 219.729 71.894C219.83 71.7934 219.915 71.6319 219.982 71.4229C220.048 71.2163 220.094 70.9763 220.124 70.7315C220.185 70.2418 220.186 69.7503 220.186 69.5001C220.186 69.3161 220.103 69.2296 219.979 69.1062L219.975 69.1017C219.849 68.9757 219.686 68.8123 219.686 68.5001C219.686 68.3492 219.724 68.2209 219.803 68.1189C219.881 68.0183 219.989 67.9577 220.101 67.9203C220.311 67.85 220.582 67.8501 220.819 67.8501ZM220.04 68.3031C220.01 68.3418 219.986 68.401 219.986 68.5001C219.986 68.6841 220.068 68.7706 220.192 68.894L220.196 68.8985C220.322 69.0245 220.486 69.1879 220.486 69.5001V69.5016C220.486 69.752 220.486 70.2594 220.422 70.7687C220.39 71.0239 220.342 71.2839 220.267 71.5148C220.194 71.7433 220.091 71.9568 219.942 72.1062C219.666 72.3822 219.137 72.6419 218.622 72.7706C218.362 72.8356 218.095 72.8699 217.856 72.8528C217.619 72.8359 217.39 72.7668 217.229 72.6062C217.094 72.4707 216.899 72.2096 216.682 71.9079C216.593 71.7832 216.499 71.6509 216.403 71.5148C216.261 71.3145 216.113 71.1058 215.964 70.9008C215.715 70.5576 215.469 70.235 215.255 69.9991C215.149 69.8808 215.054 69.7887 214.974 69.7272C214.935 69.6966 214.902 69.6761 214.876 69.6636C214.863 69.6575 214.853 69.654 214.846 69.6521C214.843 69.6511 214.84 69.6506 214.838 69.6504L214.836 69.6501C214.798 69.6501 214.742 69.6766 214.659 69.8127C214.606 69.8985 214.559 69.9984 214.506 70.1123C214.476 70.1762 214.444 70.2445 214.407 70.3172C214.219 70.6931 213.932 71.1501 213.336 71.1501H213.329C212.834 71.1501 212.325 71.1501 211.877 71.0861C211.429 71.0221 211.014 70.8908 210.729 70.6062C210.514 70.3907 210.181 70.2751 209.836 70.2751C209.49 70.2751 209.157 70.3907 208.942 70.6062C208.849 70.6987 208.794 70.8477 208.739 71.0677C208.727 71.1167 208.714 71.169 208.702 71.2237C208.66 71.4009 208.613 71.6036 208.538 71.8028C208.439 72.069 208.286 72.3414 208.022 72.5802C207.758 72.8186 207.391 73.0159 206.872 73.1456C205.84 73.4037 205.063 73.2736 204.431 73.1472C204.397 73.1404 204.363 73.1336 204.33 73.1269C203.741 73.0082 203.323 72.924 202.903 73.1343C202.65 73.2608 202.366 73.3869 202.086 73.5113L202.084 73.5122C201.802 73.6375 201.524 73.7611 201.278 73.8843C201.03 74.0081 200.823 74.1274 200.679 74.2422C200.528 74.3635 200.486 74.4493 200.486 74.5001C200.486 74.5841 200.531 74.7112 200.623 74.8814C200.713 75.0463 200.834 75.2279 200.96 75.4169L200.963 75.4205C201.086 75.6054 201.214 75.7974 201.311 75.9751C201.406 76.1487 201.486 76.3341 201.486 76.5001C201.486 76.7858 201.347 77.0632 201.228 77.3009C201.225 77.3063 201.222 77.3118 201.22 77.3172C201.09 77.5759 200.986 77.7924 200.986 78.0001C200.986 78.1459 200.95 78.318 200.902 78.4927C200.854 78.6686 200.791 78.8594 200.729 79.0451L200.728 79.0475C200.665 79.236 200.604 79.4194 200.558 79.5864C200.512 79.7555 200.486 79.8959 200.486 80.0001V80.0075C200.486 80.5078 200.486 81.0622 199.942 81.6062C199.807 81.7407 199.7 81.8135 199.606 81.8608C199.56 81.8839 199.518 81.8998 199.485 81.9127L199.482 81.9137C199.448 81.9266 199.425 81.9354 199.403 81.9468C199.326 81.9849 199.22 82.0671 198.97 82.5672C198.783 82.9409 198.66 83.5834 198.585 84.2543C198.511 84.9087 198.486 85.568 198.486 85.9814C198.567 86.2972 198.756 86.7349 199.056 87.046C199.207 87.2031 199.383 87.324 199.584 87.3847C199.783 87.4448 200.015 87.4487 200.288 87.3578C200.854 87.1692 201.189 86.9121 201.526 86.6536C201.619 86.5822 201.713 86.5107 201.811 86.4405C202.272 86.1113 202.802 85.8501 203.836 85.8501C204.81 85.8501 205.665 85.6068 206.469 85.2976C206.805 85.1685 207.13 85.0286 207.451 84.8902C207.516 84.8626 207.58 84.835 207.644 84.8075C208.027 84.6434 208.407 84.4849 208.788 84.3578C209.294 84.1892 209.47 83.9196 209.663 83.6223C209.736 83.5105 209.811 83.3948 209.908 83.2791C210.083 83.0689 210.314 82.8929 210.701 82.8068C211.08 82.7226 211.602 82.7258 212.36 82.8521C213.841 83.0989 214.689 82.9734 215.347 82.7341C215.658 82.6209 215.93 82.4813 216.215 82.3351C216.235 82.3248 216.255 82.3145 216.275 82.3041C216.58 82.1476 216.901 81.9867 217.288 81.8578C217.677 81.7283 218.063 81.6643 218.439 81.6095C218.493 81.6016 218.547 81.5938 218.601 81.5861C218.923 81.5401 219.236 81.4954 219.549 81.4171C220.268 81.2373 220.988 80.8804 221.716 79.9101C222.245 79.2035 222.597 78.7986 222.841 78.5171C222.941 78.4009 223.024 78.3056 223.093 78.2189C223.327 77.9271 223.445 77.697 223.693 76.9527C223.949 76.1846 224.334 75.5425 224.722 75.09C224.915 74.8639 225.113 74.6822 225.298 74.5559C225.479 74.4322 225.666 74.3501 225.836 74.3501C225.9 74.3501 225.997 74.3215 226.124 74.257C226.247 74.1943 226.384 74.1057 226.522 74.0043C226.739 73.8445 226.952 73.6588 227.112 73.5077L220.781 68.1501C220.546 68.1506 220.343 68.1556 220.195 68.2049C220.12 68.23 220.071 68.2632 220.04 68.3031Z" fill="white"/>
<path d="M169.336 88.5001C169.336 89.0001 169.336 90.0001 168.336 90.5001C167.669 90.8334 166.136 91.5 165.336 91.5C164.337 91.5 164.336 94 163.836 96.5C163.337 99 163.836 100 163.836 100.5C163.836 101 165.336 102 165.336 104C165.336 106 164.836 106 164.336 107C163.836 108 165.836 108 167.836 109C169.836 110 170.336 109.5 172.836 110C175.336 110.5 176.336 110.5 177.836 110.5C179.336 110.5 181.836 111 181.836 111.5C181.836 112 183.336 115 184.836 115C186.336 115 189.836 114.5 191.336 113.5C192.836 112.5 192.836 110.5 192.836 108C192.836 105.5 191.836 105.5 190.336 103.5C188.836 101.5 191.336 102.5 193.336 101C195.336 99.5 195.836 96 195.336 95C194.836 94 194.836 93 195.836 91.5C196.836 90 195.336 89.5 194.836 89C194.336 88.5 193.836 88 192.336 87.0001C190.836 86.0001 189.336 87.5 188.336 88C187.336 88.5 185.336 88.5001 183.836 87.5C182.336 86.4999 183.336 86 182.836 84.5C182.336 83 181.336 84.5 179.836 84.5C178.336 84.5 177.336 83 176.836 82.5C176.336 82 175.336 81.5001 173.836 81.0001C172.336 80.5001 172.336 82.5001 170.836 83.5001C169.336 84.5001 168.836 84.5001 167.836 85.0001C166.836 85.5001 167.336 86.5001 167.336 87.0001C167.336 87.5001 169.336 88.0001 169.336 88.5001Z" fill="#C1D4FE"/>
<path fill-rule="evenodd" clip-rule="evenodd" d="M172.262 82.0806C171.945 82.5859 171.562 83.196 170.919 83.625C169.907 84.2994 169.328 84.5316 168.765 84.7574C168.49 84.8676 168.219 84.9763 167.903 85.1343C167.676 85.2475 167.544 85.3835 167.467 85.5251C167.389 85.6683 167.36 85.8288 167.36 86.0001C167.36 86.1727 167.389 86.3483 167.421 86.5202C167.424 86.5376 167.427 86.5552 167.43 86.5728C167.457 86.7208 167.485 86.8731 167.485 87.0001C167.485 87.0112 167.491 87.0397 167.534 87.0889C167.576 87.1371 167.642 87.191 167.731 87.2503C167.909 87.3691 168.15 87.4896 168.403 87.616L168.409 87.6191C168.654 87.7418 168.911 87.8701 169.106 88.0003C169.205 88.066 169.295 88.1371 169.362 88.2139C169.429 88.2897 169.485 88.3862 169.485 88.5001L169.485 88.5097C169.486 89.0068 169.486 90.0928 168.403 90.6343C168.065 90.803 167.51 91.0554 166.937 91.2659C166.371 91.4742 165.765 91.6501 165.336 91.6501C165.164 91.6501 165.018 91.7513 164.882 92.0013C164.745 92.2537 164.639 92.6255 164.545 93.092C164.459 93.5237 164.386 94.023 164.307 94.5637C164.301 94.6042 164.295 94.6449 164.289 94.6859C164.203 95.2718 164.109 95.9002 163.983 96.5295C163.736 97.7655 163.737 98.6255 163.798 99.2352C163.828 99.5406 163.874 99.7852 163.913 99.9874C163.915 99.9994 163.918 100.011 163.92 100.023C163.955 100.205 163.986 100.366 163.986 100.5C163.986 100.527 163.997 100.572 164.034 100.643C164.069 100.712 164.123 100.793 164.192 100.889C164.236 100.95 164.286 101.017 164.341 101.09C164.453 101.24 164.584 101.414 164.711 101.604C165.095 102.18 165.486 102.96 165.486 104C165.486 105.012 165.359 105.538 165.157 105.942C165.066 106.126 164.96 106.281 164.853 106.437C164.844 106.45 164.835 106.462 164.827 106.475C164.71 106.646 164.59 106.827 164.47 107.067C164.416 107.175 164.403 107.255 164.409 107.316C164.416 107.375 164.443 107.431 164.499 107.491C164.62 107.618 164.854 107.733 165.199 107.859C165.388 107.928 165.605 107.998 165.843 108.074C166.446 108.268 167.178 108.504 167.903 108.866C168.885 109.357 169.491 109.477 170.162 109.538C170.32 109.553 170.483 109.564 170.657 109.575C171.224 109.614 171.899 109.66 172.865 109.853C175.35 110.35 176.34 110.35 177.832 110.35H177.835C178.599 110.35 179.61 110.477 180.432 110.666C180.842 110.761 181.213 110.873 181.483 110.996C181.618 111.058 181.736 111.125 181.823 111.2C181.907 111.272 181.985 111.373 181.985 111.5C181.985 111.536 182.001 111.617 182.045 111.746C182.087 111.869 182.149 112.022 182.229 112.194C182.39 112.539 182.62 112.953 182.896 113.352C183.173 113.752 183.492 114.13 183.829 114.408C184.168 114.686 184.51 114.85 184.835 114.85C185.573 114.85 186.813 114.727 188.056 114.478C189.304 114.228 190.528 113.858 191.252 113.375C191.958 112.905 192.318 112.197 192.501 111.283C192.685 110.363 192.685 109.255 192.685 108C192.685 106.776 192.442 106.186 192.03 105.655C191.855 105.43 191.65 105.216 191.411 104.967C191.359 104.913 191.306 104.857 191.25 104.799C190.944 104.477 190.596 104.097 190.215 103.59C190.025 103.336 189.892 103.122 189.814 102.939C189.736 102.757 189.706 102.59 189.745 102.439C189.785 102.284 189.891 102.176 190.021 102.097C190.147 102.021 190.309 101.966 190.484 101.918C190.628 101.878 190.788 101.842 190.959 101.803C191.63 101.651 192.472 101.46 193.245 100.88C194.208 100.158 194.82 98.9446 195.128 97.7744C195.281 97.1913 195.358 96.6252 195.365 96.1461C195.373 95.6617 195.31 95.2847 195.201 95.0672C194.942 94.5477 194.808 94.0186 194.874 93.421C194.94 92.8265 195.203 92.1787 195.711 91.4169C195.949 91.0588 196.028 90.7766 196.021 90.5514C196.015 90.328 195.924 90.1404 195.783 89.9711C195.64 89.7993 195.45 89.6524 195.256 89.5124C195.222 89.4883 195.188 89.4641 195.154 89.4398C194.998 89.3293 194.841 89.2179 194.729 89.1061L194.727 89.1033C194.233 88.6101 193.74 88.1167 192.252 87.125C191.563 86.6655 190.874 86.7727 190.21 87.0742C189.877 87.2256 189.557 87.4235 189.252 87.6186C189.208 87.6467 189.165 87.6749 189.121 87.703C188.868 87.8662 188.624 88.0236 188.403 88.1342C187.872 88.3998 187.092 88.5261 186.261 88.4622C185.428 88.3981 184.527 88.1416 183.752 87.6249C183.368 87.3684 183.129 87.1347 182.988 86.8968C182.844 86.6551 182.81 86.4227 182.81 86.1876C182.81 86.0721 182.818 85.9577 182.825 85.8402C182.849 85.4798 182.874 85.09 182.693 84.5475C182.573 84.1882 182.438 84.0542 182.314 84.0077C182.182 83.9583 182.01 83.9853 181.763 84.078C181.649 84.1208 181.528 84.174 181.394 84.2323L181.372 84.242C181.232 84.3035 181.08 84.3694 180.919 84.4296C180.598 84.55 180.235 84.6501 179.835 84.6501C179.033 84.6501 178.374 84.2488 177.862 83.8005C177.605 83.5756 177.381 83.3359 177.192 83.1232C177.13 83.0528 177.072 82.9865 177.018 82.9248C176.906 82.7962 176.811 82.6879 176.729 82.6061C176.256 82.1332 175.287 81.642 173.788 81.1425C173.445 81.0282 173.209 81.0617 173.019 81.1697C172.818 81.2837 172.647 81.4915 172.46 81.7709C172.396 81.8673 172.331 81.9715 172.262 82.0806ZM172.871 80.9087C173.149 80.7511 173.476 80.7221 173.883 80.8578C175.384 81.3583 176.415 81.867 176.942 82.394C177.031 82.4831 177.136 82.6041 177.253 82.7379C177.305 82.7979 177.36 82.8604 177.416 82.9239C177.602 83.133 177.816 83.362 178.059 83.5747C178.547 84.0014 179.138 84.3501 179.835 84.3501C180.185 84.3501 180.51 84.2626 180.814 84.1487C180.966 84.0917 181.111 84.0287 181.252 83.9671L181.277 83.9564C181.407 83.8991 181.536 83.8429 181.658 83.7971C181.911 83.7024 182.176 83.6356 182.419 83.7268C182.67 83.8209 182.848 84.0619 182.978 84.4526C183.179 85.0566 183.148 85.5219 183.124 85.8891C183.117 85.9967 183.11 86.0958 183.11 86.1876C183.11 86.3899 183.139 86.5637 183.246 86.7439C183.355 86.9279 183.553 87.1317 183.919 87.3753C184.644 87.8586 185.493 88.1022 186.284 88.163C187.079 88.2241 187.799 88.1004 188.268 87.8659C188.474 87.7633 188.702 87.6164 188.956 87.4524C189 87.4241 189.045 87.3952 189.09 87.366C189.396 87.1704 189.732 86.9622 190.086 86.8011C190.797 86.4777 191.608 86.3349 192.419 86.8753C193.928 87.8816 194.436 88.3882 194.942 88.894C195.034 88.9861 195.164 89.0786 195.318 89.1884C195.354 89.2142 195.392 89.241 195.431 89.269C195.627 89.4102 195.844 89.5758 196.013 89.779C196.185 89.9848 196.312 90.2347 196.321 90.5425C196.33 90.8486 196.222 91.1914 195.96 91.5833C195.468 92.3215 195.231 92.9236 195.172 93.4541C195.113 93.9815 195.229 94.4525 195.47 94.933C195.611 95.2155 195.673 95.6509 195.665 96.1509C195.657 96.6562 195.577 97.2464 195.418 97.8507C195.101 99.0555 194.463 100.342 193.425 101.12C192.595 101.743 191.672 101.951 190.999 102.103C190.838 102.139 190.69 102.172 190.562 102.207C190.394 102.253 190.266 102.3 190.176 102.354C190.089 102.407 190.05 102.459 190.035 102.514C190.02 102.574 190.025 102.669 190.09 102.821C190.154 102.972 190.271 103.164 190.455 103.41C190.825 103.903 191.165 104.274 191.468 104.592C191.521 104.648 191.573 104.702 191.624 104.756C191.863 105.005 192.081 105.233 192.266 105.47C192.729 106.065 192.985 106.724 192.985 108V108.012C192.985 109.253 192.985 110.39 192.795 111.342C192.603 112.303 192.213 113.095 191.419 113.625C190.643 114.142 189.367 114.522 188.115 114.772C186.858 115.024 185.598 115.15 184.835 115.15C184.411 115.15 184.003 114.939 183.639 114.639C183.273 114.338 182.935 113.936 182.65 113.523C182.363 113.109 182.125 112.68 181.957 112.321C181.874 112.142 181.807 111.979 181.761 111.842C181.716 111.711 181.685 111.589 181.685 111.5C181.685 111.5 181.685 111.5 181.685 111.5L181.685 111.5L181.685 111.5L181.685 111.497C181.684 111.495 181.682 111.49 181.678 111.484C181.67 111.47 181.655 111.451 181.627 111.427C181.571 111.379 181.482 111.325 181.359 111.269C181.115 111.158 180.766 111.052 180.364 110.959C179.561 110.773 178.572 110.65 177.835 110.65C176.329 110.65 175.319 110.65 172.806 110.147C171.862 109.958 171.211 109.914 170.645 109.876C170.469 109.864 170.301 109.852 170.134 109.837C169.43 109.773 168.786 109.643 167.768 109.134C167.066 108.783 166.372 108.56 165.775 108.368C165.531 108.289 165.302 108.216 165.097 108.141C164.755 108.017 164.457 107.882 164.281 107.697C164.189 107.6 164.126 107.485 164.111 107.349C164.096 107.214 164.13 107.075 164.201 106.933C164.331 106.674 164.461 106.479 164.579 106.306C164.587 106.294 164.595 106.282 164.603 106.271C164.712 106.112 164.807 105.972 164.889 105.808C165.062 105.462 165.186 104.988 165.186 104C165.186 103.041 164.827 102.32 164.461 101.771C164.338 101.586 164.218 101.427 164.109 101.28C164.052 101.205 163.999 101.134 163.949 101.064C163.877 100.965 163.813 100.87 163.767 100.781C163.722 100.694 163.686 100.598 163.686 100.5C163.686 100.396 163.66 100.261 163.621 100.059L163.618 100.044C163.579 99.84 163.531 99.5845 163.499 99.265C163.435 98.6246 163.436 97.7347 163.689 96.4707C163.813 95.8499 163.906 95.2284 163.992 94.6424C163.998 94.6007 164.004 94.5592 164.01 94.5178C164.089 93.9798 164.163 93.4729 164.251 93.0331C164.346 92.5622 164.458 92.1527 164.618 91.8582C164.779 91.5614 165.007 91.3501 165.336 91.3501C165.706 91.3501 166.267 91.1927 166.834 90.9843C167.394 90.7782 167.939 90.5306 168.268 90.366C169.178 89.911 169.185 89.0075 169.185 88.5001C169.185 88.4891 169.18 88.4606 169.137 88.4114C169.095 88.3632 169.029 88.3093 168.94 88.25C168.762 88.1312 168.521 88.0107 168.268 87.8843L168.262 87.8812C168.017 87.7585 167.76 87.6302 167.565 87.5C167.466 87.4343 167.376 87.3632 167.309 87.2864C167.242 87.2106 167.185 87.1141 167.185 87.0001C167.185 86.9023 167.163 86.779 167.134 86.6227C167.131 86.6068 167.128 86.5905 167.125 86.5739C167.094 86.4019 167.06 86.2026 167.06 86.0001C167.06 85.7965 167.094 85.582 167.204 85.3814C167.314 85.1793 167.495 85.0028 167.768 84.866C168.119 84.6905 168.404 84.5771 168.684 84.4653C169.231 84.2468 169.764 84.0343 170.752 83.3753C171.337 82.9855 171.68 82.4416 171.996 81.9387C172.068 81.8244 172.139 81.7122 172.211 81.6044C172.399 81.3213 172.603 81.0603 172.871 80.9087Z" fill="white"/>
<path d="M103.723 127.276C103.723 128.276 105.223 129.776 104.223 131.776C103.389 132.109 101.623 132.775 101.222 132.775C100.722 132.775 101.723 133.775 103.723 134.775C105.723 135.775 103.723 136.275 103.223 136.775C102.723 137.275 100.723 138.275 98.2227 138.775C95.7227 139.275 95.7227 140.275 95.2227 141.775C94.7227 143.275 93.2227 144.275 92.2227 144.775C91.2227 145.275 86.7227 145.275 86.2227 145.775C85.7227 146.275 82.7227 146.775 81.2227 145.775C79.7227 144.775 78.2222 143.775 77.2227 143.275C76.2231 142.775 74.2227 142.775 71.2227 141.775C68.2227 140.775 69.2222 140.275 69.2222 138.775C69.2222 137.275 68.7222 135.275 69.2222 134.775C69.7222 134.275 70.7222 132.275 71.7222 130.775C72.7222 129.275 70.7222 128.275 70.7222 126.275C70.7222 124.275 72.2222 123.275 72.7222 122.275C73.2222 121.275 72.7222 119.775 73.2222 118.776C73.7222 117.776 76.2222 118.275 78.2222 118.275C80.2222 118.275 82.7222 116.276 83.2222 115.275C83.7222 114.275 84.7222 113.776 87.7222 111.776C90.7222 109.776 92.7222 112.276 93.7222 112.276C94.7222 112.276 99.2222 111.776 99.7222 111.776C100.222 111.776 99.2224 112.776 98.7224 113.776C98.2224 114.776 99.2224 115.776 100.723 116.276C102.223 116.776 101.222 117.776 101.222 118.776V118.777C101.222 119.776 101.222 119.776 100.723 121.776C100.223 123.776 101.223 123.776 102.223 124.276C103.223 124.776 103.723 126.276 103.723 127.276Z" fill="#C1D4FE"/>
<path d="M107.549 136.101H108.049L109.049 137.101C109.549 137.601 110.049 137.101 110.549 136.101C111.049 135.101 112.049 135.601 112.549 135.101C113.049 134.601 113.549 136.101 113.549 136.601C113.549 137.101 114.049 138.101 114.049 139.601C114.049 141.101 115.049 141.101 116.549 141.101C118.049 141.101 119.049 141.601 120.049 142.101C121.049 142.601 121.049 144.101 123.549 145.101C126.049 146.101 125.049 145.601 125.549 146.601C126.049 147.601 127.049 149.101 128.049 150.101L130.549 152.601C131.549 153.601 131.049 154.101 133.549 155.101C136.049 156.101 136.049 156.601 136.049 157.601C136.049 158.601 135.549 160.601 134.549 160.601C133.549 160.601 132.049 159.601 132.049 158.101C132.049 156.601 130.049 157.601 128.549 157.101C127.049 156.601 126.049 158.101 125.549 159.101C125.049 160.101 122.049 165.101 121.049 165.101C120.049 165.101 120.049 166.101 118.549 167.601C117.049 169.101 117.049 171.101 118.049 173.101C119.049 175.101 119.549 176.601 119.549 177.101C119.549 177.601 117.5 179 116.5 178.5C115.5 178 115 176.5 114.049 175.101C112.549 173.601 112.549 174.601 111.549 176.101C110.749 177.301 107.549 175.601 106.049 174.601C105.882 174.434 105.549 174.001 105.549 173.601V168.601C105.549 167.101 104.049 166.601 103.549 165.101C103.049 163.601 102.549 160.601 102.549 159.601C102.549 158.601 101.549 157.101 101.049 156.101C100.549 155.101 100.049 154.101 100.549 152.601C101.049 151.101 98.5488 147.601 98.0488 147.601C97.5489 147.601 97.0488 147.1 95.5489 146.601C95.1489 146.201 94.884 145.434 95.0506 145.101C95.7173 144.601 97.5508 143.001 97.5508 142.601C97.5508 142.101 98.0489 141.101 98.5489 140.101C98.9489 139.301 101.051 138.601 102.051 138.601C103.049 138.601 103.248 138.501 104.045 138.103L104.049 138.101C105.049 137.601 105.049 137.601 105.549 137.101C105.949 136.701 107.049 136.267 107.549 136.101Z" fill="#C1D4FE"/>
<path d="M95.1265 147.138L94.1265 146.138C93.4597 146.304 92.026 146.538 91.626 146.138C91.226 145.738 89.7926 146.304 89.126 146.638C88.126 146.804 86.026 147.138 85.626 147.138C85.126 147.138 84.126 147.638 83.126 147.638C82.126 147.638 81.126 148.138 81.126 148.638C81.126 149.138 80.126 149.638 79.126 149.638C78.326 149.638 77.7926 149.971 77.626 150.138C77.2928 150.304 76.4264 150.638 75.6264 150.638C74.8264 150.638 74.9598 151.638 75.1264 152.138C75.2931 152.971 75.6264 153.738 75.6264 154.138C75.6264 154.638 76.6264 154.638 77.6264 154.638C78.6264 154.638 78.6264 155.138 79.1264 155.638C79.6264 156.138 79.1264 158.138 78.6264 158.638C78.1264 159.138 78.1264 160.138 77.6264 160.638C77.1264 161.138 76.6264 161.638 77.1264 163.138C77.6264 164.638 77.6264 164.138 77.6264 164.638C77.6264 165.138 76.6264 165.638 76.1264 165.638C75.6264 165.638 75.6264 166.638 76.1264 167.638C76.6264 168.638 77.6264 168.138 77.6264 169.138C77.6264 170.138 77.1265 171.138 76.6265 171.638C76.1265 172.138 76.6265 173.138 77.1265 173.138C77.5265 173.138 77.6265 174.138 77.6265 174.638L79.1265 176.138C79.6265 176.638 81.1265 176.138 82.6265 176.138C83.8265 176.138 83.7932 177.138 83.6265 177.638V179.638C83.6265 180.138 84.6265 181.138 85.1265 182.138C85.6265 183.138 86.1265 182.138 86.6265 182.138C87.1265 182.138 88.6265 181.138 89.1265 181.138C89.6265 181.138 89.6265 181.638 89.6265 182.638C89.6265 183.638 91.6265 184.138 92.6265 184.138C93.6265 184.138 95.1265 184.138 95.6265 183.638C96.1265 183.138 95.1265 181.638 95.1265 180.638C95.1265 179.638 95.6265 180.138 96.6265 180.138C97.6265 180.138 98.6265 181.638 100.127 182.138C101.627 182.638 102 181 102 180.5C102 180 101.127 177.138 102.127 176.638C103.127 176.138 103.627 173.638 104.127 173.638C104.5 172.5 104.127 173.138 104.627 172.138C105.127 171.138 104.127 168.638 103.627 168.138L102.627 167.138C102.227 166.738 101.793 163.971 101.627 162.638L101.127 159.638C100.96 158.971 100.527 157.538 100.127 157.138C99.6265 156.638 99.1265 155.638 99.1265 155.138C99.1265 154.638 99.6265 153.638 99.6265 153.138C99.6265 152.638 99.1265 151.638 99.1265 150.638C99.1265 149.838 98.1265 149.304 97.6265 149.138C97.2932 148.971 96.5265 148.538 96.1265 148.138L95.1265 147.138Z" fill="#C1D4FE"/>
<path d="M80.1364 146.721C80.5 146.903 80.608 147.221 79.6367 147.221C79.1367 147.221 79.1367 147.721 79.1367 148.221C79.1367 148.721 78.1367 148.721 77.6367 148.721H76.6367C76.3034 148.888 75.5367 149.321 75.1367 149.721C74.6367 150.221 73.6367 150.721 73.1367 150.721C72.6367 150.721 73.1367 151.721 73.1367 152.221C73.1367 152.721 73.6367 153.721 73.6367 154.721C73.6367 155.721 73.6367 155.221 74.1367 155.221H75.1367C75.6367 155.221 76.1367 155.721 76.6367 155.721C77.0367 155.721 77.1367 156.054 77.1367 156.221C77.3034 156.554 77.6367 157.321 77.6367 157.721C77.6367 158.121 76.9701 158.554 76.6367 158.721C76.4701 159.054 76.1367 159.821 76.1367 160.221C76.1367 160.721 75.6367 160.721 75.6367 161.221C75.6367 161.721 75.1367 161.721 75.1367 162.221C75.1367 162.721 75.6367 163.221 75.6367 164.221C75.6367 165.221 75.6367 165.221 75.1367 165.221C74.6367 165.221 74.1367 165.721 73.6367 165.721C73.1367 165.721 73.6367 166.721 74.1367 167.221L75.6367 168.721C76.1367 169.221 76.1367 169.721 75.6367 170.221C75.2367 170.621 74.8034 171.721 74.6367 172.221C74.8034 172.554 75.0367 173.221 74.6367 173.221C74.1367 173.221 73.6367 174.221 72.1367 174.721C70.6367 175.221 72.1367 177.221 71.6367 178.721C71.1367 180.221 69.1367 179.221 67.1367 178.721C65.1367 178.221 64.6367 177.721 63.1367 177.721C61.6367 177.721 60.6367 178.721 57.6367 178.721C54.6367 178.721 57.1367 177.221 57.1367 175.221C57.1367 173.221 55.1367 173.221 55.6367 172.221C56.1367 171.221 55.6367 170.721 54.6367 170.221C53.6367 169.721 53.1367 170.221 51.1364 169.721C49.136 169.221 48.6367 169.221 48.6367 168.221C48.6367 167.221 47.6363 167.221 47.1363 166.221C46.6363 165.221 47.6363 163.721 48.1363 163.221C48.6363 162.721 50.1364 160.221 50.1364 159.221C50.1364 158.221 49.1364 157.721 50.1364 156.721C51.1364 155.721 51.6364 155.721 52.1364 155.221C52.6364 154.721 51.1364 153.221 51.1364 152.221C51.1364 151.221 51.1364 149.721 51.6364 148.221C52.1364 146.721 54.1364 149.221 54.1364 148.721C54.1364 148.221 57.1364 146.221 58.1364 145.721C59.1364 145.221 60.1364 147.221 61.1364 148.221C62.1364 149.221 62.6364 148.721 64.1364 148.721C65.6364 148.721 67.1364 145.721 68.1364 144.221C69.1364 142.721 68.6364 142.721 69.1364 142.221C69.5364 141.821 69.6364 142.054 69.6364 142.221L71.6364 143.221C72.6364 143.721 73.6364 143.721 75.6364 144.221C77.6364 144.721 77.6364 144.221 78.1364 144.721C78.6364 145.221 79.1364 146.221 80.1364 146.721Z" fill="#C1D4FE"/>
</svg>
